<svg width="15" height="6" viewBox="0 0 15 6" fill="none" xmlns="http://www.w3.org/2000/svg">
<path d="M7.78929 5.6953C7.60633 5.69602 7.42497 5.67209 7.25559 5.62489C7.08622 5.57768 6.93217 5.50813 6.80227 5.42021L1.2416 1.62593C1.11198 1.53749 1.00917 1.43249 0.939017 1.31694C0.868869 1.20138 0.832764 1.07753 0.832764 0.95245C0.832764 0.827373 0.868869 0.703519 0.939017 0.587963C1.00917 0.472406 1.11198 0.367409 1.2416 0.278966C1.37122 0.190523 1.5251 0.120365 1.69445 0.0725004C1.8638 0.0246352 2.04531 -1.8638e-09 2.22862 0C2.41193 1.8638e-09 2.59344 0.0246352 2.76279 0.0725004C2.93214 0.120365 3.08602 0.190523 3.21564 0.278966L7.78929 3.41873L12.3768 0.40228C12.5047 0.305251 12.6606 0.22727 12.8346 0.173215C13.0087 0.11916 13.1972 0.0901931 13.3885 0.088126C13.5797 0.0860588 13.7695 0.110935 13.946 0.161201C14.1225 0.211466 14.2818 0.28604 14.4142 0.380256C14.5465 0.474472 14.6489 0.586304 14.715 0.708759C14.7811 0.831214 14.8094 0.961657 14.7983 1.09193C14.7871 1.2222 14.7367 1.3495 14.6501 1.46587C14.5636 1.58224 14.4428 1.68516 14.2953 1.76822L8.7346 5.4297C8.48038 5.59694 8.1424 5.6919 7.78929 5.6953Z" fill="#0C5DC5"/>
</svg>
