<svg width="87" height="84" viewBox="0 0 87 84" fill="none" xmlns="http://www.w3.org/2000/svg">
<path d="M51.9621 7.31266L51.9732 7.30468L51.9842 7.29649C54.7413 5.24086 57.7236 4.36388 59.8661 4.55202C60.726 4.64439 61.2328 4.98766 61.39 5.20968L61.4145 5.24429L61.4409 5.27746C61.7539 5.67041 61.9399 6.42577 61.5543 7.66036C61.2172 8.73983 60.4862 9.99962 59.3631 11.2474H48.2623C49.0602 9.87844 50.3221 8.48941 51.9621 7.31266ZM35.8118 7.29516L35.8237 7.30403L35.8357 7.31266C37.4432 8.46616 38.7 9.88653 39.5051 11.2474H28.4346C27.3116 9.99962 26.5805 8.73983 26.2434 7.66035C25.8627 6.44137 26.0393 5.68958 26.345 5.29253C26.7648 4.80927 27.888 4.39295 29.8394 4.68807C31.7004 4.96953 33.8885 5.85679 35.8118 7.29516ZM5.98492 17.7492H40.5397V29.5736H5.98492V17.7492ZM12.1821 36.0754H40.5397V77.4318H12.1821V36.0754ZM75.6199 36.0754L75.7354 77.4318H47.258V36.0754H75.6199ZM81.8128 29.5736H47.258V17.7492H60.7552H81.8128V29.5736Z" fill="#EB5757" stroke="#EB5757" stroke-width="3"/>
<path d="M84.9157 13.4172H64.465C67.0678 9.68194 67.5636 5.59648 65.3326 2.91175C64.2171 1.51102 62.358 0.577203 60.251 0.343749C56.6566 -0.123161 52.3186 1.27757 48.6003 3.9623C46.4933 5.47975 44.882 7.23066 43.6426 9.0983C42.5271 7.23066 40.7919 5.47975 38.6848 3.9623C32.4877 -0.59007 25.175 -1.05698 21.9525 2.91175C19.7215 5.59648 20.0933 9.68194 22.8201 13.4172H2.36946C1.37792 13.4172 0.510315 14.2343 0.510315 15.1681V33.611C0.510315 34.5449 1.37792 35.2452 2.36946 35.2452H6.70748V81.2358C6.70748 82.2864 7.45114 83.1034 8.56663 83.1034H78.8425C79.834 83.1034 80.7016 82.2864 80.7016 81.3525V35.2452H85.0396C86.0312 35.2452 86.8988 34.4281 86.8988 33.4943V15.1681C86.7748 14.1176 85.9072 13.4172 84.9157 13.4172ZM50.8313 6.76375C53.8059 4.54593 57.1524 3.49539 59.7552 3.72884C60.8707 3.84557 61.8622 4.31248 62.358 5.01284C63.8453 6.88048 62.7298 10.3823 59.7552 13.4172H45.7496C46.3693 11.0827 48.2285 8.63139 50.8313 6.76375ZM24.9271 5.01284C26.7863 2.79502 32.2398 3.61211 36.4539 6.76375C39.0567 8.63139 40.9158 11.1994 41.5355 13.4172H27.5299C24.5553 10.3823 23.4398 6.88048 24.9271 5.01284ZM4.22861 16.919H41.7834V31.7434H4.22861V16.919ZM10.4258 35.2452H41.7834V79.6016H10.4258V35.2452ZM76.9833 79.6016H45.5017V35.2452H76.8594L76.9833 79.6016ZM83.0565 31.7434H45.5017V16.919H60.4989H83.0565V31.7434Z" fill="white"/>
</svg>
