<svg width="122" height="122" viewBox="0 0 122 122" fill="none" xmlns="http://www.w3.org/2000/svg">
<path opacity="0.5" fill-rule="evenodd" clip-rule="evenodd" d="M61 122C94.6894 122 122 94.6894 122 61C122 27.3106 94.6894 0 61 0C27.3106 0 0 27.3106 0 61C0 94.6894 27.3106 122 61 122Z" fill="#AACEEE"/>
<g filter="url(#filter0_d)">
<path fill-rule="evenodd" clip-rule="evenodd" d="M61 102C83.6437 102 102 83.6437 102 61C102 38.3563 83.6437 20 61 20C38.3563 20 20 38.3563 20 61C20 83.6437 38.3563 102 61 102Z" fill="white"/>
</g>
<path d="M55.032 70.288C53.32 70.288 51.768 69.92 50.376 69.184C49 68.432 47.912 67.4 47.112 66.088C46.328 64.76 45.936 63.264 45.936 61.6C45.936 59.936 46.328 58.448 47.112 57.136C47.912 55.808 49 54.776 50.376 54.04C51.768 53.288 53.328 52.912 55.056 52.912C56.512 52.912 57.824 53.168 58.992 53.68C60.176 54.192 61.168 54.928 61.968 55.888L59.472 58.192C58.336 56.88 56.928 56.224 55.248 56.224C54.208 56.224 53.28 56.456 52.464 56.92C51.648 57.368 51.008 58 50.544 58.816C50.096 59.632 49.872 60.56 49.872 61.6C49.872 62.64 50.096 63.568 50.544 64.384C51.008 65.2 51.648 65.84 52.464 66.304C53.28 66.752 54.208 66.976 55.248 66.976C56.928 66.976 58.336 66.312 59.472 64.984L61.968 67.288C61.168 68.264 60.176 69.008 58.992 69.52C57.808 70.032 56.488 70.288 55.032 70.288ZM69.4438 56.896C71.4438 56.896 72.9798 57.376 74.0518 58.336C75.1238 59.28 75.6598 60.712 75.6598 62.632V70H72.1558V68.392C71.4518 69.592 70.1398 70.192 68.2198 70.192C67.2278 70.192 66.3638 70.024 65.6278 69.688C64.9078 69.352 64.3558 68.888 63.9718 68.296C63.5878 67.704 63.3958 67.032 63.3958 66.28C63.3958 65.08 63.8438 64.136 64.7398 63.448C65.6518 62.76 67.0518 62.416 68.9398 62.416H71.9158C71.9158 61.6 71.6678 60.976 71.1718 60.544C70.6758 60.096 69.9318 59.872 68.9398 59.872C68.2518 59.872 67.5718 59.984 66.8998 60.208C66.2438 60.416 65.6838 60.704 65.2198 61.072L63.8758 58.456C64.5798 57.96 65.4198 57.576 66.3958 57.304C67.3878 57.032 68.4038 56.896 69.4438 56.896ZM69.1558 67.672C69.7958 67.672 70.3638 67.528 70.8598 67.24C71.3558 66.936 71.7078 66.496 71.9158 65.92V64.6H69.3478C67.8118 64.6 67.0438 65.104 67.0438 66.112C67.0438 66.592 67.2278 66.976 67.5958 67.264C67.9798 67.536 68.4998 67.672 69.1558 67.672Z" fill="#0B95D6"/>
<defs>
<filter id="filter0_d" x="16" y="20" width="90" height="90" filterUnits="userSpaceOnUse" color-interpolation-filters="sRGB">
<feFlood flood-opacity="0" result="BackgroundImageFix"/>
<feColorMatrix in="SourceAlpha" type="matrix" values="0 0 0 0 0 0 0 0 0 0 0 0 0 0 0 0 0 0 127 0"/>
<feOffset dy="4"/>
<feGaussianBlur stdDeviation="2"/>
<feColorMatrix type="matrix" values="0 0 0 0 0 0 0 0 0 0 0 0 0 0 0 0 0 0 0.25 0"/>
<feBlend mode="normal" in2="BackgroundImageFix" result="effect1_dropShadow"/>
<feBlend mode="normal" in="SourceGraphic" in2="effect1_dropShadow" result="shape"/>
</filter>
</defs>
</svg>
