<svg width="122" height="122" viewBox="0 0 122 122" fill="none" xmlns="http://www.w3.org/2000/svg">
<path opacity="0.5" fill-rule="evenodd" clip-rule="evenodd" d="M61 122C94.6894 122 122 94.6894 122 61C122 27.3106 94.6894 0 61 0C27.3106 0 0 27.3106 0 61C0 94.6894 27.3106 122 61 122Z" fill="#AACEEE"/>
<g filter="url(#filter0_d)">
<path fill-rule="evenodd" clip-rule="evenodd" d="M61 102C83.6437 102 102 83.6437 102 61C102 38.3563 83.6437 20 61 20C38.3563 20 20 38.3563 20 61C20 83.6437 38.3563 102 61 102Z" fill="white"/>
</g>
<path d="M57.032 70.288C55.32 70.288 53.768 69.92 52.376 69.184C51 68.432 49.912 67.4 49.112 66.088C48.328 64.76 47.936 63.264 47.936 61.6C47.936 59.936 48.328 58.448 49.112 57.136C49.912 55.808 51 54.776 52.376 54.04C53.768 53.288 55.328 52.912 57.056 52.912C58.512 52.912 59.824 53.168 60.992 53.68C62.176 54.192 63.168 54.928 63.968 55.888L61.472 58.192C60.336 56.88 58.928 56.224 57.248 56.224C56.208 56.224 55.28 56.456 54.464 56.92C53.648 57.368 53.008 58 52.544 58.816C52.096 59.632 51.872 60.56 51.872 61.6C51.872 62.64 52.096 63.568 52.544 64.384C53.008 65.2 53.648 65.84 54.464 66.304C55.28 66.752 56.208 66.976 57.248 66.976C58.928 66.976 60.336 66.312 61.472 64.984L63.968 67.288C63.168 68.264 62.176 69.008 60.992 69.52C59.808 70.032 58.488 70.288 57.032 70.288ZM69.9056 58.792C70.3536 58.168 70.9536 57.696 71.7056 57.376C72.4736 57.056 73.3536 56.896 74.3456 56.896V60.352C73.9296 60.32 73.6496 60.304 73.5056 60.304C72.4336 60.304 71.5936 60.608 70.9856 61.216C70.3776 61.808 70.0736 62.704 70.0736 63.904V70H66.3296V57.088H69.9056V58.792Z" fill="#0B95D6"/>
<defs>
<filter id="filter0_d" x="16" y="20" width="90" height="90" filterUnits="userSpaceOnUse" color-interpolation-filters="sRGB">
<feFlood flood-opacity="0" result="BackgroundImageFix"/>
<feColorMatrix in="SourceAlpha" type="matrix" values="0 0 0 0 0 0 0 0 0 0 0 0 0 0 0 0 0 0 127 0"/>
<feOffset dy="4"/>
<feGaussianBlur stdDeviation="2"/>
<feColorMatrix type="matrix" values="0 0 0 0 0 0 0 0 0 0 0 0 0 0 0 0 0 0 0.25 0"/>
<feBlend mode="normal" in2="BackgroundImageFix" result="effect1_dropShadow"/>
<feBlend mode="normal" in="SourceGraphic" in2="effect1_dropShadow" result="shape"/>
</filter>
</defs>
</svg>
