<svg width="65" height="63" viewBox="0 0 65 63" fill="none" xmlns="http://www.w3.org/2000/svg">
<path d="M10.4599 0H54.0892C56.8267 0 59.3076 1.10229 61.1468 2.88291C62.9433 4.66353 64.0554 7.12248 64.0554 9.8782V53.1218C64.0554 55.8351 62.9433 58.2941 61.1468 60.1171C59.3503 61.8977 56.8694 63 54.0892 63H10.4599C7.72242 63 5.24154 61.8977 3.40227 60.1171C1.60577 58.3365 0.49366 55.8775 0.49366 53.1218V9.8782C0.49366 7.16487 1.60577 4.70592 3.40227 2.88291C5.24154 1.10229 7.72242 0 10.4599 0Z" fill="#0C5DC6"/>
<path d="M29.4943 16.0678C30.863 14.7959 32.7451 14.372 34.5843 14.3296C36.5092 14.3296 38.434 14.3296 40.316 14.3296C40.316 16.3222 40.316 18.3572 40.316 20.3498C39.0756 20.3498 37.8352 20.3498 36.5947 20.3498C35.8248 20.3074 35.0121 20.9009 34.8838 21.664C34.8838 23.0207 34.8838 24.335 34.8838 25.6916C36.6803 25.6916 38.5195 25.6916 40.316 25.6916C40.1877 27.6418 39.9311 29.5496 39.6317 31.4998C38.0063 31.4998 36.4236 31.4998 34.7982 31.4998C34.7982 37.2233 34.7982 42.9467 34.7982 48.6701C32.4029 48.6701 30.0503 48.6701 27.655 48.6701C27.6122 42.9467 27.655 37.2233 27.6122 31.4998C26.4573 31.4998 25.3024 31.4998 24.1048 31.4998C24.1048 29.592 24.1048 27.6418 24.1048 25.734C25.2597 25.734 26.4146 25.734 27.6122 25.734C27.655 23.8686 27.5695 22.0032 27.655 20.1378C27.8261 18.6116 28.3821 17.1277 29.4943 16.0678Z" fill="white"/>
</svg>
