<svg width="122" height="122" viewBox="0 0 122 122" fill="none" xmlns="http://www.w3.org/2000/svg">
<path opacity="0.5" fill-rule="evenodd" clip-rule="evenodd" d="M61 122C94.6894 122 122 94.6894 122 61C122 27.3106 94.6894 0 61 0C27.3106 0 0 27.3106 0 61C0 94.6894 27.3106 122 61 122Z" fill="#AACEEE"/>
<g filter="url(#filter0_d)">
<path fill-rule="evenodd" clip-rule="evenodd" d="M61 102C83.6437 102 102 83.6437 102 61C102 38.3563 83.6437 20 61 20C38.3563 20 20 38.3563 20 61C20 83.6437 38.3563 102 61 102Z" fill="white"/>
<path fill-rule="evenodd" clip-rule="evenodd" d="M61 102C83.6437 102 102 83.6437 102 61C102 38.3563 83.6437 20 61 20C38.3563 20 20 38.3563 20 61C20 83.6437 38.3563 102 61 102Z" fill="url(#paint0_linear)"/>
</g>
<path d="M51.88 56.32V60.76H59.656V63.88H51.88V70H47.992V53.2H60.688V56.32H51.88ZM75.376 63.592C75.376 63.64 75.352 63.976 75.304 64.6H65.536C65.712 65.4 66.128 66.032 66.784 66.496C67.44 66.96 68.256 67.192 69.232 67.192C69.904 67.192 70.496 67.096 71.008 66.904C71.536 66.696 72.024 66.376 72.472 65.944L74.464 68.104C73.248 69.496 71.472 70.192 69.136 70.192C67.68 70.192 66.392 69.912 65.272 69.352C64.152 68.776 63.288 67.984 62.68 66.976C62.072 65.968 61.768 64.824 61.768 63.544C61.768 62.28 62.064 61.144 62.656 60.136C63.264 59.112 64.088 58.32 65.128 57.76C66.184 57.184 67.36 56.896 68.656 56.896C69.92 56.896 71.064 57.168 72.088 57.712C73.112 58.256 73.912 59.04 74.488 60.064C75.08 61.072 75.376 62.248 75.376 63.592ZM68.68 59.728C67.832 59.728 67.12 59.968 66.544 60.448C65.968 60.928 65.616 61.584 65.488 62.416H71.848C71.72 61.6 71.368 60.952 70.792 60.472C70.216 59.976 69.512 59.728 68.68 59.728Z" fill="#0B95D6"/>
<defs>
<filter id="filter0_d" x="16" y="20" width="90" height="90" filterUnits="userSpaceOnUse" color-interpolation-filters="sRGB">
<feFlood flood-opacity="0" result="BackgroundImageFix"/>
<feColorMatrix in="SourceAlpha" type="matrix" values="0 0 0 0 0 0 0 0 0 0 0 0 0 0 0 0 0 0 127 0"/>
<feOffset dy="4"/>
<feGaussianBlur stdDeviation="2"/>
<feColorMatrix type="matrix" values="0 0 0 0 0 0 0 0 0 0 0 0 0 0 0 0 0 0 0.25 0"/>
<feBlend mode="normal" in2="BackgroundImageFix" result="effect1_dropShadow"/>
<feBlend mode="normal" in="SourceGraphic" in2="effect1_dropShadow" result="shape"/>
</filter>
<linearGradient id="paint0_linear" x1="61" y1="20" x2="61" y2="102" gradientUnits="userSpaceOnUse">
<stop stop-color="white"/>
<stop offset="1" stop-color="white" stop-opacity="0"/>
</linearGradient>
</defs>
</svg>
