<svg width="64" height="63" viewBox="0 0 64 63" fill="none" xmlns="http://www.w3.org/2000/svg">
<path d="M10.4473 0H54.0765C56.814 0 59.2949 1.10229 61.1341 2.88291C62.9306 4.66353 64.0428 7.12248 64.0428 9.8782V53.1218C64.0428 55.8351 62.9306 58.2941 61.1341 60.1171C59.3377 61.8977 56.8568 63 54.0765 63H10.4473C7.70977 63 5.22889 61.8977 3.38962 60.1171C1.59313 58.3365 0.480988 55.8775 0.480988 53.1218V9.8782C0.480988 7.16487 1.59313 4.70592 3.38962 2.88291C5.18612 1.10229 7.70977 0 10.4473 0Z" fill="#EB5757"/>
<path d="M42.5704 14.4994C41.5438 15.1354 40.5172 15.7713 39.5334 16.4072C39.4051 16.492 39.234 16.5344 39.0629 16.5344C38.1647 16.5344 37.2236 16.5344 36.1971 16.5344C36.3254 16.6616 36.4109 16.7464 36.4965 16.8312C37.908 18.0183 39.0201 19.4173 39.4907 21.2403C40.175 24.0809 39.6618 26.6246 37.5231 28.702C36.7531 29.4651 35.8549 30.1858 35.085 30.9066C34.5717 31.3729 34.2295 31.9241 34.1439 32.6448C34.1012 33.2807 34.2295 33.8743 34.7 34.2982C35.4699 34.9765 36.2826 35.6125 37.0953 36.2908C38.4213 37.3931 39.7473 38.4954 40.6456 40.0216C41.2872 41.1663 41.5438 42.3534 41.4583 43.6677C41.2872 46.9321 39.4907 49.1791 36.7531 50.8325C34.8711 51.9772 32.7752 52.5284 30.5509 52.7403C28.8828 52.9099 27.2574 52.9099 25.632 52.6979C23.6644 52.4436 21.7823 51.8924 20.1569 50.7053C18.1893 49.2639 17.12 47.3561 17.4621 44.8547C17.7188 42.9893 18.7026 41.5479 20.1141 40.3608C21.7395 39.0465 23.6216 38.3258 25.632 37.9442C27.2146 37.6475 28.7972 37.5203 30.3798 37.3083C30.5082 37.3083 30.6793 37.2659 30.8931 37.2659C29.4816 35.6549 28.84 33.959 29.8666 32.0088C29.1394 32.0088 28.455 32.0512 27.7707 32.0088C24.862 31.8393 22.5095 30.6522 21.0124 28.1508C19.4725 25.5647 19.5581 22.8938 20.9268 20.2652C22.039 18.0607 23.8355 16.6616 26.1025 15.7289C27.7706 15.0506 29.5244 14.669 31.3209 14.5418C31.4064 14.5418 31.4492 14.4994 31.5347 14.457C35.2133 14.4994 38.8918 14.4994 42.5704 14.4994ZM30.5937 50.7901C30.5937 50.8325 30.5937 50.8749 30.5937 50.8749C31.6631 50.7053 32.6896 50.6206 33.759 50.3662C34.9139 50.1118 35.9404 49.6031 36.7531 48.7127C38.5924 46.7202 38.5496 43.9644 36.6676 41.9718C35.5983 40.8272 34.315 39.9792 33.0746 39.0465C32.7324 38.7922 32.3474 38.665 31.9197 38.665C30.7648 38.7498 29.5672 38.8346 28.4123 38.9617C27.0007 39.1313 25.632 39.5553 24.3915 40.3184C22.9372 41.2087 22.0389 42.3958 21.8678 44.0916C21.6968 46.2538 22.595 47.9072 24.3487 49.0943C26.2308 50.4086 28.3695 50.7477 30.5937 50.7901ZM35.3416 25.5647C35.2988 25.1831 35.2988 24.7592 35.2561 24.3776C35.0422 22.4698 34.4434 20.6892 33.374 19.0782C32.433 17.6367 31.1925 16.5768 29.3533 16.4072C27.7279 16.2377 25.4181 17.2551 24.7337 19.3749C24.306 20.6468 24.306 21.9611 24.5198 23.2753C24.7765 25.0136 25.3325 26.6246 26.3163 28.066C27.3429 29.5499 28.6261 30.525 30.5082 30.5674C32.0052 30.6098 33.2884 30.0586 34.2722 28.9564C35.1277 28.066 35.3416 26.8366 35.3416 25.5647Z" fill="white"/>
<path d="M49.9702 33.0686C49.9702 34.7644 49.9702 36.4178 49.9702 38.0713C49.1147 38.0713 48.302 38.0713 47.4893 38.0713C47.4893 36.4178 47.4893 34.7644 47.4893 33.0686C45.7784 33.0686 44.1102 33.0686 42.442 33.0686C42.442 32.2207 42.442 31.4151 42.442 30.5672C44.1102 30.5672 45.7784 30.5672 47.4466 30.5672C47.4466 28.8714 47.4466 27.2604 47.4466 25.6069C48.302 25.6069 49.1147 25.6069 49.9274 25.6069C49.9274 27.2604 49.9274 28.8714 49.9274 30.5672C51.6384 30.5672 53.3066 30.5672 54.9747 30.5672C54.9747 31.4151 54.9747 32.2207 54.9747 33.0686C53.3493 33.0686 51.6812 33.0686 49.9702 33.0686Z" fill="white"/>
</svg>
