<svg width="53" height="53" viewBox="0 0 53 53" fill="none" xmlns="http://www.w3.org/2000/svg">
<circle cx="26.9529" cy="26.0466" r="26.0471" fill="#0C5DC5"/>
<path d="M26.9556 19.8901C23.6705 19.8901 21.0208 22.4043 21.0208 25.5212C21.0208 28.6382 23.6705 31.1523 26.9556 31.1523C30.2406 31.1523 32.8903 28.6382 32.8903 25.5212C32.8903 22.4043 30.2406 19.8901 26.9556 19.8901ZM26.9556 29.1822C24.8327 29.1822 23.0972 27.5404 23.0972 25.5212C23.0972 23.5021 24.8275 21.8603 26.9556 21.8603C29.0836 21.8603 30.8139 23.5021 30.8139 25.5212C30.8139 27.5404 29.0784 29.1822 26.9556 29.1822ZM34.5174 19.6598C34.5174 20.39 33.8976 20.9732 33.1331 20.9732C32.3635 20.9732 31.7488 20.3851 31.7488 19.6598C31.7488 18.9344 32.3687 18.3463 33.1331 18.3463C33.8976 18.3463 34.5174 18.9344 34.5174 19.6598ZM38.4481 20.9928C38.3603 19.2334 37.9367 17.6749 36.5783 16.3909C35.225 15.1068 33.5825 14.705 31.7282 14.6167C29.8171 14.5138 24.0889 14.5138 22.1778 14.6167C20.3286 14.7001 18.6861 15.1019 17.3277 16.386C15.9692 17.67 15.5509 19.2285 15.4579 20.9879C15.3494 22.8012 15.3494 28.2363 15.4579 30.0496C15.5457 31.8091 15.9692 33.3676 17.3277 34.6516C18.6861 35.9356 20.3235 36.3375 22.1778 36.4257C24.0889 36.5286 29.8171 36.5286 31.7282 36.4257C33.5825 36.3424 35.225 35.9405 36.5783 34.6516C37.9316 33.3676 38.3551 31.8091 38.4481 30.0496C38.5565 28.2363 38.5565 22.8061 38.4481 20.9928ZM35.9791 31.9953C35.5762 32.9559 34.7963 33.6959 33.7788 34.0831C32.255 34.6565 28.6394 34.5242 26.9556 34.5242C25.2717 34.5242 21.6509 34.6516 20.1324 34.0831C19.12 33.7008 18.34 32.9608 17.932 31.9953C17.3277 30.5495 17.4671 27.1189 17.4671 25.5212C17.4671 23.9235 17.3328 20.488 17.932 19.0471C18.3349 18.0866 19.1148 17.3465 20.1324 16.9594C21.6561 16.386 25.2717 16.5183 26.9556 16.5183C28.6394 16.5183 32.2602 16.3909 33.7788 16.9594C34.7911 17.3416 35.5711 18.0817 35.9791 19.0471C36.5834 20.4929 36.444 23.9235 36.444 25.5212C36.444 27.1189 36.5834 30.5544 35.9791 31.9953Z" fill="white"/>
</svg>
