<svg width="31" height="29" viewBox="0 0 31 29" fill="none" xmlns="http://www.w3.org/2000/svg">
<path d="M15.6253 0C16.7253 0.4 17.2253 1.2 17.1253 2.4C17.1253 4.6 17.1253 6.8 17.1253 9C17.1253 10.2 16.3253 11.1 15.1253 11.1C14.0253 11.1 13.2253 10.3 13.2253 9.2C13.2253 6.8 13.2253 4.3 13.2253 1.9C13.2253 1.1 13.6253 0.6 14.4253 0.2C14.5253 0.1 14.7253 0.1 14.8253 0C15.0253 0 15.3253 0 15.6253 0Z" fill="#0B95D6"/>
<path d="M6.9253 28.9998C6.2253 28.9998 5.6253 28.5998 5.2253 27.8998C4.8253 27.1998 4.9253 26.4998 5.4253 25.7998C6.4253 24.3998 7.4253 23.0998 8.3253 21.6998C8.7253 21.1998 9.1253 20.5998 9.5253 20.0998C10.2253 19.1998 11.4253 18.9998 12.3253 19.5998C13.2253 20.1998 13.4253 21.3998 12.7253 22.2998C11.3253 24.1998 9.9253 26.0998 8.5253 27.9998C8.2253 28.6998 7.7253 28.8998 6.9253 28.9998Z" fill="#0B95D6"/>
<path d="M30.3253 11.3999C30.3253 12.3999 29.8253 13.0999 28.8253 13.3999C27.2253 13.8999 25.6253 14.3999 24.0253 14.8999C23.4253 15.0999 22.7253 15.2999 22.1253 15.4999C21.0253 15.7999 20.0253 15.2999 19.7253 14.1999C19.4253 13.1999 19.9253 12.0999 21.0253 11.7999C22.3253 11.3999 23.5253 10.9999 24.8253 10.5999C25.8253 10.2999 26.9253 9.89991 27.9253 9.59991C29.0253 9.29991 30.1253 9.89991 30.3253 10.9999C30.3253 11.1999 30.3253 11.3999 30.3253 11.3999Z" fill="#0B95D6"/>
<path d="M10.7253 13.7C10.7253 15.1 9.42529 16 8.02529 15.5C6.22529 14.9 4.52529 14.4 2.72529 13.8C2.22529 13.7 1.82529 13.5 1.32529 13.4C0.325292 13 -0.274708 12 0.125292 10.9C0.425292 9.89995 1.52529 9.29995 2.52529 9.59995C4.82529 10.3 7.12529 11.1 9.42529 11.8C10.2253 12.1 10.7253 12.9 10.7253 13.7Z" fill="#0B95D6"/>
<path d="M19.1253 19.2998C19.9253 19.2998 20.4253 19.5998 20.8253 20.0998C22.2253 21.9998 23.6253 23.8998 25.0253 25.7998C25.6253 26.6998 25.5253 27.8998 24.6253 28.4998C23.7253 29.1998 22.5253 28.9998 21.8253 28.0998C20.4253 26.1998 19.0253 24.2998 17.6253 22.2998C17.1253 21.6998 17.1253 20.8998 17.5253 20.1998C17.8253 19.5998 18.4253 19.2998 19.1253 19.2998Z" fill="#0B95D6"/>
</svg>
