<svg width="55" height="52" viewBox="0 0 55 52" fill="none" xmlns="http://www.w3.org/2000/svg">
<path d="M28.0177 -0.000488281C29.9902 0.716753 30.8867 2.15124 30.7074 4.30296C30.7074 8.24779 30.7074 12.1926 30.7074 16.1374C30.7074 18.2892 29.2729 19.903 27.1212 19.903C25.1488 19.903 23.7143 18.4685 23.7143 16.4961C23.7143 12.1926 23.7143 7.70986 23.7143 3.40641C23.7143 1.97193 24.4315 1.07537 25.866 0.358132C26.0453 0.178822 26.404 0.178822 26.5833 -0.000488281C26.9419 -0.000488281 27.4798 -0.000488281 28.0177 -0.000488281Z" fill="#0B95D6"/>
<path d="M12.4178 51.9994C11.1626 51.9994 10.0868 51.2822 9.36951 50.027C8.65227 48.7719 8.83158 47.5167 9.72813 46.2615C11.5212 43.7512 13.3143 41.4201 14.9281 38.9098C15.6454 38.0132 16.3626 36.9374 17.0799 36.0408C18.335 34.427 20.4868 34.0684 22.1005 35.1443C23.7143 36.2201 24.073 38.3719 22.8178 39.9857C20.3074 43.3925 17.7971 46.7994 15.2868 50.2063C14.7488 51.4615 13.8523 51.8201 12.4178 51.9994Z" fill="#0B95D6"/>
<path d="M54.3764 20.4408C54.3764 22.2339 53.4798 23.4891 51.6867 24.027C48.8178 24.9235 45.9488 25.8201 43.0798 26.7166C42.004 27.0753 40.7488 27.4339 39.673 27.7925C37.7005 28.3304 35.9074 27.4339 35.3695 25.4615C34.8316 23.6684 35.7281 21.696 37.7005 21.158C40.0316 20.4408 42.1833 19.7235 44.5143 19.0063C46.3074 18.4684 48.2798 17.7511 50.0729 17.2132C52.0454 16.6753 54.0178 17.7511 54.3764 19.7235C54.3764 20.0822 54.3764 20.4408 54.3764 20.4408Z" fill="#0B95D6"/>
<path d="M19.2316 24.5649C19.2316 27.0752 16.9005 28.689 14.3902 27.7925C11.1626 26.7166 8.11432 25.8201 4.88673 24.7442C3.99018 24.5649 3.27294 24.2063 2.37639 24.027C0.583283 23.3097 -0.492579 21.5166 0.224662 19.5442C0.762593 17.7511 2.73501 16.6752 4.52811 17.2132C8.65225 18.4683 12.7764 19.9028 16.9005 21.158C18.335 21.6959 19.2316 23.1304 19.2316 24.5649Z" fill="#0B95D6"/>
<path d="M34.2936 34.6064C35.7281 34.6064 36.6247 35.1444 37.3419 36.0409C39.8523 39.4478 42.3626 42.8547 44.873 46.2616C45.9488 47.8754 45.7695 50.0271 44.1557 51.103C42.5419 52.3582 40.3902 51.9996 39.135 50.3858C36.6247 46.9789 34.1143 43.572 31.604 39.9858C30.7074 38.9099 30.7074 37.4754 31.4247 36.2202C31.9626 35.1444 33.0385 34.6064 34.2936 34.6064Z" fill="#0B95D6"/>
</svg>
