<svg width="251" height="35" viewBox="0 0 251 35" fill="none" xmlns="http://www.w3.org/2000/svg">
<path fill-rule="evenodd" clip-rule="evenodd" d="M180.031 20.325C179.579 17.3393 180.212 14.5346 181.659 11.9108C182.836 9.7394 184.555 7.83943 186.636 6.30135C190.616 3.31567 196.045 1.59665 201.112 2.59187C208.35 4.03947 211.788 10.0108 212.873 16.4346C213.869 22.1345 213.507 29.0106 207.716 32.3582C202.921 35.1629 196.407 34.4391 191.34 32.4486C186.093 30.2772 180.755 26.0249 180.031 20.325ZM195.412 6.93467C178.945 11.2775 182.655 29.8249 200.026 29.1915C203.102 29.1011 206.269 28.1058 208.078 25.5725C209.978 22.5869 209.797 16.525 208.531 13.3584C206.359 8.2918 201.202 5.3966 195.412 6.93467Z" fill="#2105A3"/>
<path fill-rule="evenodd" clip-rule="evenodd" d="M51.466 9.46851C51.466 8.29233 51.5565 7.02568 51.7374 5.75903C51.8279 4.85428 52.3707 3.31621 53.185 2.41146C54.7231 0.511481 57.4373 1.59718 57.3469 3.85906C57.1659 6.57331 56.3516 8.02091 55.9897 9.64946C55.2659 12.7256 55.085 15.6208 57.8897 22.5874C58.4326 23.9445 59.1564 25.2112 59.3373 26.6588C59.6087 28.1968 59.4278 29.9159 58.8849 31.3635C58.523 32.4492 57.7992 33.8968 56.4421 34.0777C54.2707 34.2587 53.366 30.3682 53.0041 28.6492C52.4612 26.2064 52.5517 23.6731 52.4612 21.1398C52.1898 17.3398 51.3755 13.4494 51.466 9.46851Z" fill="#2105A3"/>
<path fill-rule="evenodd" clip-rule="evenodd" d="M145.198 31.4534C144.927 30.5487 144.746 29.3725 144.746 28.6487C144.565 26.5678 144.836 24.3059 145.289 22.225C145.56 21.1393 145.831 20.1441 146.193 19.1488C146.646 17.9727 147.008 16.7965 147.369 15.6203C147.641 14.5346 147.912 13.5394 148.274 12.5442C148.908 10.6442 149.631 8.56326 150.988 7.11566C152.617 5.39664 155.241 3.76809 157.231 2.77286C160.488 1.32526 165.193 0.0586126 167.274 3.94904C168.088 5.48711 168.36 7.11566 167.998 8.92517C167.093 13.4489 162.479 16.706 159.131 19.3298C158.407 19.8726 157.593 20.7774 157.593 21.7726C157.684 24.125 161.393 26.5678 163.203 27.3821C168.722 30.0963 170.35 29.5535 176.05 27.4725C181.75 25.3916 181.75 30.0058 179.036 31.9058C176.231 33.8058 171.436 34.4391 169.083 34.2582C164.65 33.8963 160.85 31.4534 157.503 28.3773C156.146 27.2011 154.698 25.3916 153.431 24.2154C152.346 23.2202 150.717 22.8583 150.174 24.3964C149.631 25.844 151.622 29.463 151.441 31.4534C151.26 33.5344 149.993 34.3486 148.546 34.1677C147.008 34.0772 145.65 32.901 145.198 31.4534ZM155.512 16.706C156.779 16.1632 157.865 14.8965 158.679 14.2632C160.036 13.1775 161.303 11.2775 162.117 9.82992C162.66 8.92517 163.203 7.56804 162.841 6.57281C162.75 6.39186 162.66 6.30139 162.569 6.12044C161.936 5.39664 160.036 5.75854 159.222 6.02996C155.965 7.11566 154.698 8.74422 152.707 11.4585C152.074 12.2727 151.712 13.3584 151.441 14.2632C150.807 16.6155 151.712 18.425 155.512 16.706Z" fill="#2105A3"/>
<path fill-rule="evenodd" clip-rule="evenodd" d="M95.8892 22.5869C95.6178 21.2298 95.2559 19.8726 94.894 18.5155C94.5321 17.1584 94.1702 15.8917 93.8987 14.5346C93.4464 12.7251 90.0083 -1.75088 95.7082 0.963366C97.3368 1.68717 97.3368 5.03474 97.1558 6.57282C96.9749 9.28707 97.2463 12.0918 98.0606 14.6251C98.7844 17.0679 99.6891 19.5107 100.413 21.9536C100.956 23.8535 102.584 29.0106 101.951 31.9963C101.408 34.5296 99.5986 34.5296 97.4272 33.6249C95.7987 32.9011 94.1702 31.7249 93.1749 31.0011C89.7369 28.4678 87.475 25.3011 84.3084 22.4059C80.9608 19.3298 77.8846 15.9822 74.3561 13.087C67.48 6.57282 65.2181 6.12044 66.8467 15.4394C67.2991 17.5203 67.2991 19.1488 67.9324 21.2298C68.1133 22.5869 68.5657 24.3964 68.5657 26.2964C68.5657 29.6439 67.8419 32.9915 66.2134 33.7153C65.4896 33.9868 64.6753 34.1677 64.042 33.7153C62.5944 32.8106 62.6848 30.0963 62.5039 28.6487C62.4134 26.9297 62.8658 22.9488 62.9563 18.606C63.0467 14.2632 62.5944 9.46802 63.861 6.39187C65.3086 2.41097 67.2991 1.95859 70.6466 4.40142C71.5514 5.12522 72.3657 5.84902 73.2704 6.57282C76.3466 9.28707 79.2418 12.1823 82.2274 15.0775C84.3988 17.1584 86.1179 19.2393 88.3797 21.2298C88.9226 21.6821 91.0035 23.4916 92.9035 24.7583C95.0749 26.2059 95.9797 26.4773 96.3416 26.0249C96.613 25.7535 96.3416 24.3964 95.8892 22.5869Z" fill="#2105A3"/>
<path fill-rule="evenodd" clip-rule="evenodd" d="M139.227 25.8442C139.86 25.7537 140.493 25.9347 140.946 26.2966C141.76 27.1109 141.67 28.287 141.308 29.2823C140.855 30.4584 139.95 31.6346 138.774 32.4489C135.065 35.0727 130.36 34.3489 126.47 32.5394C124.66 31.7251 122.941 30.7299 121.222 29.7346C120.046 29.1918 118.689 28.5585 117.332 28.468C116.789 28.3775 116.246 28.5585 115.613 28.6489C115.07 28.8299 114.527 29.0108 114.165 29.3727C113.713 29.6442 113.441 30.0061 113.079 30.368C112.446 31.0918 111.722 31.7251 110.908 32.3584C110.094 33.0822 108.827 33.8965 107.651 33.3536C106.384 32.7203 106.384 31.0013 106.565 29.9156C106.927 28.287 107.832 26.749 109.098 25.5728C113.713 21.4109 120.408 24.1252 124.841 27.0204C127.013 28.3775 132.622 31.7251 135.246 30.0061C136.693 29.0108 137.146 26.6585 138.865 26.0252L138.955 25.9347H139.227V25.8442Z" fill="#2105A3"/>
<path fill-rule="evenodd" clip-rule="evenodd" d="M139.227 4.31116C139.86 4.31116 140.493 4.49211 140.855 4.85401C141.76 5.57781 141.579 6.84446 141.308 7.83969C140.855 9.01586 139.86 10.192 138.774 10.9158C135.065 13.5396 130.36 12.8158 126.47 11.0063C124.66 10.1016 123.032 9.10634 121.222 8.20159C120.046 7.65874 118.689 6.93494 117.332 6.84446C116.789 6.84446 116.246 6.93494 115.613 7.11589C115.07 7.29684 114.527 7.38731 114.165 7.74921C113.713 8.02064 113.441 8.47301 113.079 8.83491C112.446 9.55871 111.722 10.192 110.908 10.8254C110.094 11.5492 108.827 12.3634 107.651 11.8206C106.384 11.1873 106.384 9.46824 106.565 8.38254C106.927 6.84446 107.832 5.21591 109.098 4.03974C113.713 -0.122115 120.408 2.59214 124.841 5.48734C127.013 6.84446 132.622 10.192 135.246 8.47301C136.693 7.47779 137.146 5.03496 138.865 4.40164H138.955L139.227 4.31116Z" fill="#2105A3"/>
<path fill-rule="evenodd" clip-rule="evenodd" d="M224.002 29.0106C228.616 30.0963 234.587 28.5583 239.202 27.1107C241.554 26.3869 244.721 25.2107 247.163 25.2107C251.597 25.2107 252.411 27.1107 248.43 29.3725C246.349 30.4582 243.725 31.363 242.821 31.7249C239.021 32.9011 235.492 33.082 231.602 33.4439C229.43 33.6249 227.078 33.9868 224.997 34.1677C220.202 34.5296 216.402 33.6249 216.402 26.1154C216.402 22.0441 216.492 17.8822 216.764 13.8108C216.945 11.0966 217.216 8.20139 217.759 5.57762C218.03 4.22049 218.664 1.86814 220.202 1.59671C221.197 1.50624 221.921 2.32051 222.373 3.04432C223.911 5.39667 221.921 12.9966 221.559 15.8013C221.287 17.9727 220.926 19.9631 220.654 22.1345C220.111 25.9345 220.202 28.1059 224.002 29.0106Z" fill="#2105A3"/>
<path fill-rule="evenodd" clip-rule="evenodd" d="M138.413 15.2583C139.046 15.1678 139.589 15.3487 140.041 15.7106C140.946 16.5249 140.855 17.7916 140.493 18.7868C140.041 20.1439 139.046 21.2296 137.96 21.9534C134.341 24.5772 129.546 23.8534 125.746 22.0439C123.937 21.2296 122.308 20.1439 120.498 19.2392C119.322 18.6058 117.965 18.063 116.608 17.882C116.065 17.882 115.522 17.9725 114.889 18.1535C114.346 18.3344 113.803 18.4249 113.441 18.7868C112.989 19.0582 112.718 19.5106 112.356 19.8725C111.632 20.5963 110.908 21.2296 110.184 21.8629C109.28 22.5867 108.103 23.401 106.927 22.8582C105.661 22.2248 105.661 20.5058 105.842 19.3296C106.203 17.6106 107.199 16.0725 108.465 14.8964C113.08 10.825 119.684 13.4488 124.117 16.344C126.379 17.7916 131.898 21.0487 134.613 19.3296C136.06 18.4249 136.513 15.9821 138.232 15.3487L138.413 15.2583Z" fill="#2105A3"/>
<path fill-rule="evenodd" clip-rule="evenodd" d="M12.4712 6.12065C10.3903 7.56825 8.85221 11.2777 8.12841 13.5396C7.22366 16.7062 6.31891 21.7728 6.68081 25.0299C6.95224 27.3823 7.94746 32.4489 6.13796 34.2584C5.32369 34.9822 3.78561 34.9822 2.97133 34.3489C-1.00957 31.3632 -0.195292 27.7442 0.890409 23.6728C2.24753 18.6967 6.40939 3.13497 10.8427 1.05405C15.6378 -0.936403 19.1664 3.58735 20.433 7.7492C20.7044 8.74442 20.9759 9.73965 21.1568 10.8253C21.8806 14.1729 22.5139 17.43 23.3282 20.7776C23.9615 23.3109 24.6853 27.3823 27.7615 28.0156C28.2139 28.1061 28.6662 28.1061 29.0281 27.9251C32.3757 26.568 33.5519 15.2586 34.2757 11.8206C34.5471 10.2825 35.1804 8.56347 35.9042 7.11587C37.8042 2.95402 41.3327 -0.936404 44.1375 5.2159C46.5803 10.5539 50.5612 25.4823 48.7517 30.9108C48.2089 32.4489 46.5803 34.0774 45.0422 34.3489C42.147 34.8917 42.0565 30.8203 42.2375 28.8299C42.4184 27.4728 42.6899 26.0252 42.8708 24.668C43.1423 22.7681 43.3232 20.7776 43.3232 18.7872C43.3232 17.1586 43.9565 7.83967 40.7899 8.8349C39.5232 9.1968 38.8899 12.273 38.528 13.4491C37.2614 17.43 36.628 21.7728 35.9042 25.9347C35.1804 30.0061 31.1995 35.2536 26.7663 34.6203C21.4282 33.8965 18.9854 24.1252 17.8092 19.511C17.0854 16.6157 16.5426 13.7206 15.9093 10.7349C15.6378 9.46822 15.0045 6.75397 13.6474 6.21112C13.2855 6.03017 12.9236 6.03017 12.4712 6.12065Z" fill="#2105A3"/>
</svg>
