<svg width="888" height="611" viewBox="0 0 888 611" fill="none" xmlns="http://www.w3.org/2000/svg">
<path d="M335.5 361.6C328 358.9 325.1 352.8 323 346.2C320.6 338.8 315.9 335.2 308 334.9C305.3 334.8 302.6 334.5 300 334.9C290.9 336.3 283.1 334 275.9 328C270.3 323.4 262.9 324.7 256.3 330.3C251.4 334.5 246.7 339.1 241.5 343C231.8 350.3 219.9 352.3 208.4 354.7C200.5 356.3 193.3 359.1 186.2 363.2C177.4 368.4 168 372.7 158.6 376.7C148 381.2 137.5 380.6 129 371.9C122.7 365.4 115 363.1 106.5 362.9C89.7 362.6 72.9 362.5 56.1 362.2C53.7 362.2 51 361.7 48.9 360.6C34.4 352.8 20.2 344.6 5.6 336.9C0.799997 334.4 2.7 329.8 1.5 326.4C0.399998 323.2 1.1 318.7 2.4 315.3C8.1 301.3 14.3 287.5 20.7 273.8C21.8 271.5 24.5 269.4 26.9 268.4C31.2 266.6 31 264.2 29.5 260.6C27.1 254.6 24.9 248.5 23.2 242.3C21.1 234.9 23 228.1 28.2 222.4C31.6 218.7 35.5 215.5 38.7 211.8C48.1 201 57.5 190.2 66.5 179.1C73.9 169.9 82.2 162.9 94.6 162C98.5 161.7 100.7 157.4 98.8 153.3C97.1 149.6 94.8 146 92 143C77.3 127.2 70 108.2 67.4 87.3001C66.1 76.7001 71.9 69.8001 82.5 68.3001C85 67.9001 87.5 67.7001 90 67.7001C99 67.8001 106.2 64.1001 113.2 58.8001C121.5 52.5001 130 46.2001 139.3 41.6001C150.6 35.9001 163.1 35.3001 175.5 38.1001C198.5 43.4001 221.5 48.9001 244.3 55.0001C250.2 56.6001 256.5 59.5001 260.9 63.6001C269.7 71.8001 279.8 75.5001 291.2 75.6001C315.3 75.8001 339.4 75.6001 363.6 75.2001C372.9 75.1001 382.4 73.5001 390.9 78.5001C394.9 80.8001 398.5 83.8001 402.1 86.7001C406.7 90.3001 408.4 89.9001 409.9 84.3001C410.6 81.7001 411.5 79.1001 411.5 76.5001C411.4 62.4001 420 53.6001 430.4 46.6001C436.7 42.4001 444.3 39.3001 451.7 37.5001C463.5 34.8001 475.6 33.7001 487.6 31.7001C489 31.5001 490.3 30.2001 491.4 29.2001C492 28.7001 492.1 27.7001 492.3 26.9001C496.1 9.60006 508.3 2.80006 524.6 1.90006C536.7 1.20006 548.9 1.40006 561 1.00006C568.5 0.800061 574.1 4.20006 578.6 9.90006C585.9 19.2001 594.3 27.9001 600 38.1001C605.7 48.2001 609 59.8001 612.5 71.0001C614.2 76.4001 612.5 81.9001 607.7 85.8001C607.4 86.0001 607.1 86.2001 607 86.5001C605.6 89.7001 603.1 93.0001 603.4 96.0001C603.6 97.6001 608.7 99.1001 611.8 99.7001C616.7 100.7 621.7 100.8 626.7 101.5C637.2 103 644.4 108.9 647.6 119C648.9 123.1 650.1 127.5 650 131.7C649.9 143.8 657.5 152 663.7 160.9C664.4 161.8 665.3 162.6 666.1 163.4C671.3 169.2 676.9 173.7 685.6 170.7C688 169.8 690.9 170.4 693.5 170C699.6 169 704.6 170.9 709.3 174.6C714.1 178.4 718.4 178.5 723.4 174.8C727.4 171.8 731 168.3 735.1 165.5C745 158.8 755.6 162.6 758.3 174.2C759.8 180.9 763.3 186.1 767.7 190.9C773 196.7 780.3 196.3 787.2 196.4C791 196.4 794.9 196 798.6 195.4C807.6 193.8 814.9 196.9 821.1 203.3C825.3 207.6 829.8 211.6 834.1 215.7C838.6 220 844.1 221.5 850.1 221.6C854.9 221.7 859.8 221.5 864.6 221.3C875.1 220.9 882.8 226.6 885.7 236.7C887.6 243.3 889.3 249.7 884.6 255.7C883.1 257.6 881.4 259.5 879.4 261C875 264.4 873.3 269.1 871.9 274.2C871 277.4 872.1 279.1 875 280.4C886.2 285.5 887.3 292.1 878.9 301.5C875.4 305.4 872.4 309.8 869.7 314.2C867.7 317.4 868.6 320.8 870.6 324C875.4 331.8 878.4 340.2 876.8 349.6C874.8 362 867.8 371.1 858 372.8C854.7 373.4 851.1 372.7 847.7 372.2C841.6 371.4 835.5 370.5 829.5 369.2C823.6 367.8 820 370.6 817.6 375.1C812.4 384.9 807.6 395 802.7 405C801.2 408.1 800.3 411.7 798.4 414.5C796.7 417 794.1 419.7 791.4 420.4C783 422.6 776.4 427.6 770.3 433.2C761.3 441.5 751 445.7 738.5 444.7C731.4 444.1 724.2 444.6 717 444.7C707.2 444.9 698.4 448.2 690.4 453.7C685.1 457.4 679.7 461 674.4 464.8C668.1 469.3 661 471.5 653.3 471.6C645.4 471.7 640.6 476.1 637.6 482.7C632.5 493.9 635 505.5 643.8 514.4C646.4 517 648.5 520 650.7 522.9C657.1 531.1 666 533.7 676 530.7C682.2 528.9 688.5 527.4 694.9 526.2C704.9 524.4 710.5 528.6 712 538.5C713.7 549.6 708.4 560.8 698 565.2C694.4 566.7 689.3 565.5 685.1 564.6C681.1 563.8 677.4 561.5 673.4 560.4C664.7 558 658.1 561.3 652.3 567.8C647.7 572.9 642.3 577.5 636.7 581.6C627.3 588.4 617.3 594.3 607.8 601.1C595.4 609.9 582.1 613.3 567.3 608.7C552.1 604 545 588.9 551.1 574.5C552.5 571.1 553.6 567.6 555.1 564.3C556.5 561 555.3 559.1 552.3 558.1C541.6 554.5 531.1 550 520.1 547.8C508.1 545.4 503.3 528.1 510.3 521.4C513.9 517.9 518.3 515.1 522.9 512.9C530.5 509.3 538.6 506.5 546.3 503.1C548.9 501.9 551 499.7 553.3 498C553.2 497.5 553.1 496.9 552.9 496.4C549.2 496.4 545.4 496.3 541.7 496.4C530.5 496.8 519.4 497.4 508.2 497.6C497.8 497.8 490.2 492.8 484.8 484C483.2 481.3 480.7 478.8 478.1 477.1C471.9 473 470.6 466.9 470.3 460.2C470.2 459.1 470.5 458 470.7 456.1C462.6 462 453.8 463.3 444.8 464C439.4 464.4 435.6 467.7 432.9 472.2C429.4 478 426.2 484.1 422.6 489.9C414.9 502.5 404.8 513 394.4 523.5C389.4 528.5 385.5 534.6 381.4 540.4C376.4 547.5 369.7 550.8 361.2 549.8C351.5 548.6 342.1 549.6 332.6 552.1C319.5 555.5 308.5 548.8 304 536C303 533 302.4 529.9 301.3 526.9C299.7 522.4 301.4 519 303.8 515.3C311.7 503.2 319.7 491.2 326.8 478.6C329.6 473.7 330.3 467.6 331.5 461.9C332.5 457.3 334.2 453.7 339 452.2C344.1 450.6 347.9 452.9 351 456.4C355.5 461.6 360.7 463.2 367.1 460.5C373.6 457.8 374.6 449.6 369.4 445.2C366.7 442.9 364.3 439.8 362.5 436.7C354.6 423 346.5 409.4 339.3 395.4C334 384.9 332.2 373.5 335.5 361.6Z" fill="white" fill-opacity="0.2"/>
<path d="M335.5 361.6C328 358.9 325.1 352.8 323 346.2C320.6 338.8 315.9 335.2 308 334.9C305.3 334.8 302.6 334.5 300 334.9C290.9 336.3 283.1 334 275.9 328C270.3 323.4 262.9 324.7 256.3 330.3C251.4 334.5 246.7 339.1 241.5 343C231.8 350.3 219.9 352.3 208.4 354.7C200.5 356.3 193.3 359.1 186.2 363.2C177.4 368.4 168 372.7 158.6 376.7C148 381.2 137.5 380.6 129 371.9C122.7 365.4 115 363.1 106.5 362.9C89.7 362.6 72.9 362.5 56.1 362.2C53.7 362.2 51 361.7 48.9 360.6C34.4 352.8 20.2 344.6 5.6 336.9C0.799997 334.4 2.7 329.8 1.5 326.4C0.399998 323.2 1.1 318.7 2.4 315.3C8.1 301.3 14.3 287.5 20.7 273.8C21.8 271.5 24.5 269.4 26.9 268.4C31.2 266.6 31 264.2 29.5 260.6C27.1 254.6 24.9 248.5 23.2 242.3C21.1 234.9 23 228.1 28.2 222.4C31.6 218.7 35.5 215.5 38.7 211.8C48.1 201 57.5 190.2 66.5 179.1C73.9 169.9 82.2 162.9 94.6 162C98.5 161.7 100.7 157.4 98.8 153.3C97.1 149.6 94.8 146 92 143C77.3 127.2 70 108.2 67.4 87.3001C66.1 76.7001 71.9 69.8001 82.5 68.3001C85 67.9001 87.5 67.7001 90 67.7001C99 67.8001 106.2 64.1001 113.2 58.8001C121.5 52.5001 130 46.2001 139.3 41.6001C150.6 35.9001 163.1 35.3001 175.5 38.1001C198.5 43.4001 221.5 48.9001 244.3 55.0001C250.2 56.6001 256.5 59.5001 260.9 63.6001C269.7 71.8001 279.8 75.5001 291.2 75.6001C315.3 75.8001 339.4 75.6001 363.6 75.2001C372.9 75.1001 382.4 73.5001 390.9 78.5001C394.9 80.8001 398.5 83.8001 402.1 86.7001C406.7 90.3001 408.4 89.9001 409.9 84.3001C410.6 81.7001 411.5 79.1001 411.5 76.5001C411.4 62.4001 420 53.6001 430.4 46.6001C436.7 42.4001 444.3 39.3001 451.7 37.5001C463.5 34.8001 475.6 33.7001 487.6 31.7001C489 31.5001 490.3 30.2001 491.4 29.2001C492 28.7001 492.1 27.7001 492.3 26.9001C496.1 9.60006 508.3 2.80006 524.6 1.90006C536.7 1.20006 548.9 1.40006 561 1.00006C568.5 0.800061 574.1 4.20006 578.6 9.90006C585.9 19.2001 594.3 27.9001 600 38.1001C605.7 48.2001 609 59.8001 612.5 71.0001C614.2 76.4001 612.5 81.9001 607.7 85.8001C607.4 86.0001 607.1 86.2001 607 86.5001C605.6 89.7001 603.1 93.0001 603.4 96.0001C603.6 97.6001 608.7 99.1001 611.8 99.7001C616.7 100.7 621.7 100.8 626.7 101.5C637.2 103 644.4 108.9 647.6 119C648.9 123.1 650.1 127.5 650 131.7C649.9 143.8 657.5 152 663.7 160.9C664.4 161.8 665.3 162.6 666.1 163.4C671.3 169.2 676.9 173.7 685.6 170.7C688 169.8 690.9 170.4 693.5 170C699.6 169 704.6 170.9 709.3 174.6C714.1 178.4 718.4 178.5 723.4 174.8C727.4 171.8 731 168.3 735.1 165.5C745 158.8 755.6 162.6 758.3 174.2C759.8 180.9 763.3 186.1 767.7 190.9C773 196.7 780.3 196.3 787.2 196.4C791 196.4 794.9 196 798.6 195.4C807.6 193.8 814.9 196.9 821.1 203.3C825.3 207.6 829.8 211.6 834.1 215.7C838.6 220 844.1 221.5 850.1 221.6C854.9 221.7 859.8 221.5 864.6 221.3C875.1 220.9 882.8 226.6 885.7 236.7C887.6 243.3 889.3 249.7 884.6 255.7C883.1 257.6 881.4 259.5 879.4 261C875 264.4 873.3 269.1 871.9 274.2C871 277.4 872.1 279.1 875 280.4C886.2 285.5 887.3 292.1 878.9 301.5C875.4 305.4 872.4 309.8 869.7 314.2C867.7 317.4 868.6 320.8 870.6 324C875.4 331.8 878.4 340.2 876.8 349.6C874.8 362 867.8 371.1 858 372.8C854.7 373.4 851.1 372.7 847.7 372.2C841.6 371.4 835.5 370.5 829.5 369.2C823.6 367.8 820 370.6 817.6 375.1C812.4 384.9 807.6 395 802.7 405C801.2 408.1 800.3 411.7 798.4 414.5C796.7 417 794.1 419.7 791.4 420.4C783 422.6 776.4 427.6 770.3 433.2C761.3 441.5 751 445.7 738.5 444.7C731.4 444.1 724.2 444.6 717 444.7C707.2 444.9 698.4 448.2 690.4 453.7C685.1 457.4 679.7 461 674.4 464.8C668.1 469.3 661 471.5 653.3 471.6C645.4 471.7 640.6 476.1 637.6 482.7C632.5 493.9 635 505.5 643.8 514.4C646.4 517 648.5 520 650.7 522.9C657.1 531.1 666 533.7 676 530.7C682.2 528.9 688.5 527.4 694.9 526.2C704.9 524.4 710.5 528.6 712 538.5C713.7 549.6 708.4 560.8 698 565.2C694.4 566.7 689.3 565.5 685.1 564.6C681.1 563.8 677.4 561.5 673.4 560.4C664.7 558 658.1 561.3 652.3 567.8C647.7 572.9 642.3 577.5 636.7 581.6C627.3 588.4 617.3 594.3 607.8 601.1C595.4 609.9 582.1 613.3 567.3 608.7C552.1 604 545 588.9 551.1 574.5C552.5 571.1 553.6 567.6 555.1 564.3C556.5 561 555.3 559.1 552.3 558.1C541.6 554.5 531.1 550 520.1 547.8C508.1 545.4 503.3 528.1 510.3 521.4C513.9 517.9 518.3 515.1 522.9 512.9C530.5 509.3 538.6 506.5 546.3 503.1C548.9 501.9 551 499.7 553.3 498C553.2 497.5 553.1 496.9 552.9 496.4C549.2 496.4 545.4 496.3 541.7 496.4C530.5 496.8 519.4 497.4 508.2 497.6C497.8 497.8 490.2 492.8 484.8 484C483.2 481.3 480.7 478.8 478.1 477.1C471.9 473 470.6 466.9 470.3 460.2C470.2 459.1 470.5 458 470.7 456.1C462.6 462 453.8 463.3 444.8 464C439.4 464.4 435.6 467.7 432.9 472.2C429.4 478 426.2 484.1 422.6 489.9C414.9 502.5 404.8 513 394.4 523.5C389.4 528.5 385.5 534.6 381.4 540.4C376.4 547.5 369.7 550.8 361.2 549.8C351.5 548.6 342.1 549.6 332.6 552.1C319.5 555.5 308.5 548.8 304 536C303 533 302.4 529.9 301.3 526.9C299.7 522.4 301.4 519 303.8 515.3C311.7 503.2 319.7 491.2 326.8 478.6C329.6 473.7 330.3 467.6 331.5 461.9C332.5 457.3 334.2 453.7 339 452.2C344.1 450.6 347.9 452.9 351 456.4C355.5 461.6 360.7 463.2 367.1 460.5C373.6 457.8 374.6 449.6 369.4 445.2C366.7 442.9 364.3 439.8 362.5 436.7C354.6 423 346.5 409.4 339.3 395.4C334 384.9 332.2 373.5 335.5 361.6Z" fill="url(#paint0_linear)" fill-opacity="0.5"/>
<defs>
<linearGradient id="paint0_linear" x1="444.292" y1="0.991699" x2="444.292" y2="610.75" gradientUnits="userSpaceOnUse">
<stop stop-color="white"/>
<stop offset="1" stop-color="white" stop-opacity="0"/>
</linearGradient>
</defs>
</svg>
