<svg width="122" height="122" viewBox="0 0 122 122" fill="none" xmlns="http://www.w3.org/2000/svg">
<path opacity="0.5" fill-rule="evenodd" clip-rule="evenodd" d="M61 122C94.6894 122 122 94.6894 122 61C122 27.3106 94.6894 0 61 0C27.3106 0 0 27.3106 0 61C0 94.6894 27.3106 122 61 122Z" fill="#AACEEE"/>
<g filter="url(#filter0_d)">
<path fill-rule="evenodd" clip-rule="evenodd" d="M61 102C83.6437 102 102 83.6437 102 61C102 38.3563 83.6437 20 61 20C38.3563 20 20 38.3563 20 61C20 83.6437 38.3563 102 61 102Z" fill="white"/>
</g>
<path d="M58.28 70L58.256 59.92L53.312 68.224H51.56L46.64 60.136V70H42.992V53.2H46.208L52.496 63.64L58.688 53.2H61.88L61.928 70H58.28ZM78.9699 57.088V67.84C78.9699 70.208 78.3539 71.968 77.1219 73.12C75.8899 74.272 74.0899 74.848 71.7219 74.848C70.4739 74.848 69.2899 74.696 68.1699 74.392C67.0499 74.088 66.1219 73.648 65.3859 73.072L66.8739 70.384C67.4179 70.832 68.1059 71.184 68.9379 71.44C69.7699 71.712 70.6019 71.848 71.4339 71.848C72.7299 71.848 73.6819 71.552 74.2899 70.96C74.9139 70.384 75.2259 69.504 75.2259 68.32V67.768C74.2499 68.84 72.8899 69.376 71.1459 69.376C69.9619 69.376 68.8739 69.12 67.8819 68.608C66.9059 68.08 66.1299 67.344 65.5539 66.4C64.9779 65.456 64.6899 64.368 64.6899 63.136C64.6899 61.904 64.9779 60.816 65.5539 59.872C66.1299 58.928 66.9059 58.2 67.8819 57.688C68.8739 57.16 69.9619 56.896 71.1459 56.896C73.0179 56.896 74.4419 57.512 75.4179 58.744V57.088H78.9699ZM71.8899 66.304C72.8819 66.304 73.6899 66.016 74.3139 65.44C74.9539 64.848 75.2739 64.08 75.2739 63.136C75.2739 62.192 74.9539 61.432 74.3139 60.856C73.6899 60.264 72.8819 59.968 71.8899 59.968C70.8979 59.968 70.0819 60.264 69.4419 60.856C68.8019 61.432 68.4819 62.192 68.4819 63.136C68.4819 64.08 68.8019 64.848 69.4419 65.44C70.0819 66.016 70.8979 66.304 71.8899 66.304Z" fill="#0B95D6"/>
<defs>
<filter id="filter0_d" x="16" y="20" width="90" height="90" filterUnits="userSpaceOnUse" color-interpolation-filters="sRGB">
<feFlood flood-opacity="0" result="BackgroundImageFix"/>
<feColorMatrix in="SourceAlpha" type="matrix" values="0 0 0 0 0 0 0 0 0 0 0 0 0 0 0 0 0 0 127 0"/>
<feOffset dy="4"/>
<feGaussianBlur stdDeviation="2"/>
<feColorMatrix type="matrix" values="0 0 0 0 0 0 0 0 0 0 0 0 0 0 0 0 0 0 0.25 0"/>
<feBlend mode="normal" in2="BackgroundImageFix" result="effect1_dropShadow"/>
<feBlend mode="normal" in="SourceGraphic" in2="effect1_dropShadow" result="shape"/>
</filter>
</defs>
</svg>
