<svg width="42" height="43" viewBox="0 0 42 43" fill="none" xmlns="http://www.w3.org/2000/svg">
<path d="M0 32.7033C0 25.3515 0 18.1791 0 10.8274C0 10.6481 0 10.4688 0 10.2895C0 9.75154 0 9.0343 0.17931 8.49637C0.717241 4.37223 3.94483 1.32395 8.24828 0.965332C8.96552 1.14464 9.50345 0.965332 10.2207 0.965332C17.2138 0.965332 24.2069 0.965332 31.2 0.965332C31.3793 0.965332 31.7379 0.965332 31.9172 1.14464C32.8138 1.14464 33.7103 1.32395 34.4276 1.32395C37.8345 2.04119 39.9862 4.01361 41.0621 7.4205C41.6 9.0343 41.6 10.6481 41.6 12.4412C41.6 18.7171 41.6 24.9929 41.6 31.2688C41.6 32.524 41.6 33.7791 41.4207 35.0343C40.8828 38.4412 38.9103 40.9515 35.6828 42.0274C34.069 42.5653 32.2759 42.5653 30.4828 42.5653C24.2069 42.5653 17.7517 42.5653 11.4759 42.5653C10.2207 42.5653 8.96552 42.5653 7.71035 42.386C3.58621 41.8481 0.537931 38.6205 0.17931 34.4964C0.17931 33.9584 0 33.2412 0 32.7033ZM10.5793 24.455C10.5793 25.1722 10.5793 25.8895 10.7586 26.6067C10.9379 27.324 10.9379 27.8619 11.1172 28.5791C11.8345 30.9102 13.0897 33.0619 15.2414 34.3171C17.2138 35.5722 19.3655 35.9308 21.6966 35.7515C25.4621 35.3929 28.1517 33.4205 29.5862 30.0136C30.6621 27.6826 30.8414 24.9929 30.4828 22.4826C29.9448 18.7171 28.6897 15.1308 26.5379 12.0826C25.4621 10.6481 24.3862 9.39292 22.7724 8.49637C21.3379 7.59981 19.9034 7.59981 18.469 8.49637C17.3931 9.0343 16.6759 9.75154 15.9586 10.6481C12.5517 14.5929 10.9379 19.4343 10.5793 24.455Z" fill="#EB5757"/>
</svg>
