<svg width="24" height="24" viewBox="0 0 24 24" fill="none" xmlns="http://www.w3.org/2000/svg">
<path d="M0 17.7C0 13.6 0 9.6 0 5.5C0 5.4 0 5.3 0 5.2C0 4.9 0 4.5 0.1 4.2C0.4 1.9 2.2 0.2 4.6 0C5 0.1 5.3 0 5.7 0C9.6 0 13.5 0 17.4 0C17.5 0 17.7 0 17.8 0.1C18.3 0.1 18.8 0.2 19.2 0.2C21.1 0.6 22.3 1.7 22.9 3.6C23.2 4.5 23.2 5.4 23.2 6.4C23.2 9.9 23.2 13.4 23.2 16.9C23.2 17.6 23.2 18.3 23.1 19C22.8 20.9 21.7 22.3 19.9 22.9C19 23.2 18 23.2 17 23.2C13.5 23.2 9.9 23.2 6.4 23.2C5.7 23.2 5 23.2 4.3 23.1C2 22.8 0.3 21 0.1 18.7C0.1 18.4 0 18 0 17.7ZM5.9 13.1C5.9 13.5 5.9 13.9 6 14.3C6.1 14.7 6.1 15 6.2 15.4C6.6 16.7 7.3 17.9 8.5 18.6C9.6 19.3 10.8 19.5 12.1 19.4C14.2 19.2 15.7 18.1 16.5 16.2C17.1 14.9 17.2 13.4 17 12C16.7 9.9 16 7.9 14.8 6.2C14.2 5.4 13.6 4.7 12.7 4.2C11.9 3.7 11.1 3.7 10.3 4.2C9.7 4.5 9.3 4.9 8.9 5.4C7 7.6 6.1 10.3 5.9 13.1Z" fill="#EB5757"/>
</svg>
