<svg width="42" height="44" viewBox="0 0 42 44" fill="none" xmlns="http://www.w3.org/2000/svg">
<g clip-path="url(#clip0)">
<path d="M42 43.2174C27.9906 43.2174 14.0234 43.2174 0 43.2174C0 28.8212 0 14.4395 0 0C13.9953 0 27.9766 0 42 0C42 14.3962 42 28.7634 42 43.2174ZM24.3653 14.454C24.3653 13.6879 24.3794 12.9074 24.3653 12.1413C24.3513 11.4331 24.7026 11.1296 25.3489 11.1151C26.1499 11.1007 26.9368 11.1296 27.7377 11.1007C27.9344 11.1007 28.1171 10.9706 28.2998 10.9128C28.2295 10.7104 28.2014 10.4358 28.0609 10.2912C25.9391 8.07977 23.8033 5.88277 21.6674 3.70022C21.2178 3.23769 20.6979 3.22324 20.2482 3.68576C18.0843 5.88277 15.9344 8.10868 13.7986 10.3201C13.6721 10.4502 13.5457 10.7393 13.6019 10.8694C13.6581 10.9995 13.9391 11.1007 14.1218 11.1007C14.9227 11.1296 15.7096 11.1151 16.5105 11.1151C17.452 11.1296 17.6768 11.3464 17.6768 12.3148C17.6768 13.7891 17.6628 15.2489 17.6768 16.7233C17.6768 17.576 17.9859 17.9229 18.815 17.9374C20.2904 17.9663 21.7658 17.9663 23.2412 17.9374C24.0141 17.9229 24.3372 17.5616 24.3653 16.7666C24.3653 16.0006 24.3653 15.2345 24.3653 14.454ZM17.6628 28.7634C17.6628 29.515 17.6628 30.2522 17.6628 31.0038C17.6628 32.0734 17.466 32.2757 16.4403 32.2902C15.7377 32.2902 15.0351 32.2757 14.3326 32.3046C14.1218 32.3191 13.911 32.4347 13.7002 32.507C13.7845 32.7094 13.8267 32.9695 13.9672 33.1285C16.0468 35.2822 18.1265 37.4213 20.2201 39.5605C20.6557 40.0086 21.1616 40.0375 21.5831 39.6039C23.719 37.4358 25.8267 35.2533 27.9344 33.0707C28.0468 32.9551 28.1733 32.666 28.1171 32.5793C28.0187 32.4347 27.7939 32.3335 27.6112 32.3191C26.8806 32.2902 26.1639 32.3046 25.4333 32.2902C24.5761 32.2757 24.3513 32.0445 24.3372 31.1772C24.3232 29.5584 24.3372 27.954 24.3232 26.3351C24.3091 25.5257 23.9859 25.1933 23.2131 25.1788C21.7377 25.1644 20.2623 25.1644 18.7869 25.1788C17.9578 25.1933 17.6628 25.5113 17.6487 26.3785C17.6628 27.1735 17.6628 27.9684 17.6628 28.7634ZM10.637 21.6232C10.637 19.4117 10.6511 17.2002 10.623 14.9888C10.623 14.6997 10.4824 14.4106 10.4122 14.1215C10.1593 14.2661 9.86417 14.3528 9.66745 14.5552C7.65808 16.5932 5.66276 18.6601 3.66745 20.7125C2.97892 21.4208 2.97892 21.8255 3.66745 22.5338C5.67682 24.6151 7.68618 26.682 9.72365 28.749C9.90632 28.9369 10.1874 29.0091 10.4262 29.1248C10.4965 28.8646 10.637 28.6044 10.637 28.3298C10.637 26.1039 10.637 23.8635 10.637 21.6232ZM31.3911 21.5364C31.3911 23.7045 31.377 25.8726 31.4052 28.0407C31.4052 28.3587 31.5316 28.6622 31.6159 28.9802C31.8829 28.8212 32.2061 28.7201 32.4169 28.5032C34.3419 26.5375 36.267 24.5573 38.178 22.5916C38.9087 21.84 38.9087 21.4642 38.192 20.7125C36.2389 18.7034 34.2857 16.6943 32.3326 14.6997C32.1499 14.5118 31.8829 14.4251 31.644 14.2805C31.5597 14.5552 31.4192 14.8442 31.4192 15.1189C31.3771 17.2436 31.3911 19.3828 31.3911 21.5364Z" fill="#EB5757"/>
</g>
<defs>
<clipPath id="clip0">
<rect width="42" height="43.2174" fill="white"/>
</clipPath>
</defs>
</svg>
