<svg width="64" height="63" viewBox="0 0 64 63" fill="none" xmlns="http://www.w3.org/2000/svg">
<path d="M9.96628 0H53.5955C56.333 0 58.8139 1.10229 60.6532 2.88291C62.4497 4.66353 63.5618 7.12248 63.5618 9.8782V53.1218C63.5618 55.8351 62.4497 58.2941 60.6532 60.1171C58.8567 61.8977 56.3758 63 53.5955 63H9.96628C7.22876 63 4.74789 61.8977 2.90862 60.1171C1.11212 58.3365 0 55.8775 0 53.1218V9.8782C0 7.16487 1.11212 4.70592 2.90862 2.88291C4.74789 1.10229 7.22876 0 9.96628 0Z" fill="#EE8208"/>
<path d="M31.9092 29.9312C36.871 29.9312 40.8917 25.946 40.8917 21.0281C40.8917 16.1102 36.871 12.125 31.9092 12.125C26.9475 12.125 22.9267 16.1102 22.9267 21.0281C22.9267 25.946 26.9475 29.9312 31.9092 29.9312ZM31.9092 16.6189C34.3473 16.6189 36.3149 18.5691 36.3149 20.9857C36.3149 23.4023 34.3473 25.3525 31.9092 25.3525C29.4711 25.3525 27.5035 23.4023 27.5035 20.9857C27.5035 18.5691 29.4711 16.6189 31.9092 16.6189ZM42.3032 30.9911C41.79 29.9736 40.3784 29.1257 38.5392 30.6095C36.0155 32.6021 31.952 32.6021 31.952 32.6021C31.952 32.6021 27.8885 32.6021 25.3648 30.6095C23.4828 29.1681 22.0713 29.9736 21.6008 30.9911C20.7025 32.7717 21.7291 33.6196 23.9533 35.0611C25.8781 36.2905 28.5301 36.7569 30.2411 36.9265L28.8295 38.3255C26.8192 40.3181 24.8943 42.2259 23.5256 43.5826C22.7129 44.3881 22.7129 45.66 23.5256 46.4655L23.7822 46.7199C24.5949 47.5254 25.8781 47.5254 26.6908 46.7199L31.9948 41.4628C34.0051 43.4554 35.93 45.3632 37.2987 46.7199C38.1114 47.5254 39.3946 47.5254 40.2073 46.7199L40.464 46.4655C41.2767 45.66 41.2767 44.3881 40.464 43.5826L35.1173 38.3255L33.663 36.9265C35.3739 36.7569 37.9831 36.2905 39.9079 35.0611C42.1749 33.6196 43.2015 32.7717 42.3032 30.9911Z" fill="white"/>
</svg>
