<svg width="86" height="86" viewBox="0 0 86 86" fill="none" xmlns="http://www.w3.org/2000/svg">
<path d="M63.3 41.7L33.3 22.2C32.8 21.9 32.3 21.9 31.8 22.1C31.3 22.4 31 23 31 23.5V62.5C31 63.1 31.3 63.6 31.8 63.8C32 63.9 32.3 64 32.5 64C32.8 64 33.1 63.9 33.3 63.8L63.3 44.3C63.7 44 64 43.5 64 43C64 42.5 63.7 42 63.3 41.7ZM34 59.7V26.3L59.7 43L34 59.7Z" fill="white"/>
<path d="M43 0C19.3 0 0 19.3 0 43C0 66.7 19.3 86 43 86C66.7 86 86 66.7 86 43C86 19.3 66.7 0 43 0ZM43 83C20.9 83 3 65.1 3 43C3 20.9 20.9 3 43 3C65.1 3 83 20.9 83 43C83 65.1 65.1 83 43 83Z" fill="white"/>
</svg>
