<svg width="123" height="123" viewBox="0 0 123 123" fill="none" xmlns="http://www.w3.org/2000/svg">
<path d="M61.2041 73.7526L60.6681 73.6691L60.9529 74.1309C61.0945 74.3606 61.2197 74.6024 61.3422 74.8456C61.362 74.8849 61.3818 74.9245 61.4016 74.964C61.5026 75.1655 61.6039 75.3676 61.709 75.553C61.9555 75.9874 62.2629 76.4064 62.7481 76.5496C64.7656 77.172 66.9176 77.6864 69.0777 77.7436L69.0777 77.7437H69.0843C70.9425 77.7437 73.121 77.4571 74.6694 75.1535L74.9312 74.764H74.462C73.6857 74.764 72.9681 74.7744 72.2926 74.7841C70.7398 74.8064 69.4096 74.8256 68.102 74.7087L68.102 74.7085L68.0937 74.7081C66.5773 74.623 65.0641 74.3765 63.1455 74.0639C62.5426 73.9657 61.8997 73.8609 61.2041 73.7526Z" fill="#4F8AD8" stroke="#4F8AD8" stroke-width="0.5"/>
<path d="M41.3597 26.3455L41.2522 26.2137L41.0902 26.2652C40.9008 26.3254 40.7285 26.4001 40.5688 26.4694L40.5642 26.4714C40.4002 26.5425 40.2489 26.6078 40.0856 26.6597L39.8556 26.7329L39.9206 26.9653C40.0015 27.2546 40.0524 27.5447 40.1052 27.8456C40.1272 27.9708 40.1495 28.0977 40.1744 28.2273C40.2567 28.6555 40.3659 29.0965 40.5928 29.499C41.7063 31.5362 42.8359 33.5625 43.9656 35.589C45.7774 38.8391 47.5895 42.0897 49.3362 45.3865C49.7299 46.1373 50.1337 46.8833 50.5369 47.6281C53.3009 52.7339 56.0327 57.7802 55.219 63.8907L55.2188 63.8925C54.9442 66.0748 55.5404 67.681 56.8126 68.8422C58.0679 69.988 59.9546 70.6752 62.2143 71.1007C62.9188 71.2465 63.6329 71.2746 64.3336 71.2674C64.6541 71.2642 64.9745 71.2535 65.2901 71.243L65.379 71.24C65.7245 71.2286 66.0642 71.2181 66.3994 71.2182L66.401 71.2181C70.6524 71.1896 73.9964 69.6036 75.6734 66.9892C77.3564 64.3656 77.3144 60.7803 74.9459 56.8631C73.5423 54.5092 71.7831 52.304 70.0345 50.1121C69.6348 49.6111 69.2357 49.1107 68.8415 48.6095C63.8926 42.3168 60.0055 35.5202 57.2376 28.1068C56.6406 26.5056 55.9704 24.9204 55.3063 23.3494C54.9175 22.4299 54.5308 21.5152 54.1621 20.605L54.072 20.3827L53.8462 20.4635C53.6172 20.5454 53.3872 20.6139 53.1498 20.6847L53.1469 20.6856C52.9124 20.7554 52.6707 20.8275 52.4279 20.9143L52.2067 20.9934L52.272 21.2192C52.4279 21.7582 52.5781 22.3001 52.7288 22.8435C53.0317 23.9363 53.3364 25.0354 53.6927 26.13L53.6926 26.13L53.6937 26.1333C56.7169 35.0084 61.163 43.1495 67.2093 50.6116C69.5069 53.4768 71.6282 56.5113 73.5732 59.6589C75.3901 62.638 74.0091 66.786 70.9305 67.8002L70.9286 67.8008C69.106 68.4176 67.0748 68.9122 65.2328 68.8025C63.9045 68.7181 62.7265 68.6132 61.7096 68.4064C60.6928 68.1997 59.8539 67.8942 59.1957 67.4193C57.9031 66.4866 57.2259 64.8359 57.4299 61.6884C57.6685 58.9523 57.3118 55.8622 56.1052 53.3883L56.105 53.3879C52.7819 46.6033 49.1619 39.9239 45.5417 33.2439C44.589 31.486 43.6363 29.7281 42.689 27.9682C42.5245 27.6254 42.2829 27.337 42.0432 27.0797C41.9577 26.9881 41.8745 26.9022 41.7939 26.8191C41.6379 26.6582 41.4919 26.5076 41.3597 26.3455Z" fill="#4F8AD8" stroke="#4F8AD8" stroke-width="0.5"/>
<path d="M66.2926 14.624L66.0923 14.5025L65.958 14.6945C65.9216 14.7466 65.881 14.7958 65.832 14.8553C65.8103 14.8816 65.7869 14.9099 65.7615 14.9415C65.6845 15.037 65.5984 15.1507 65.5279 15.2852L65.4742 15.3876L65.5174 15.4948C65.6299 15.7737 65.715 16.0504 65.8016 16.3318C65.825 16.4079 65.8485 16.4843 65.8727 16.5612C65.984 16.9149 66.1083 17.2738 66.2989 17.6078C69.1055 22.82 71.9417 28.0322 74.7775 33.2438L74.778 33.2447C77.6146 38.4577 80.4509 43.6701 83.2575 48.8824L83.2576 48.8826C88.483 58.5689 89.1884 68.6417 85.7811 79.062L85.7807 79.0631C84.8651 81.9105 84.2146 84.8432 83.5652 87.7708C83.2484 89.1991 82.9318 90.6262 82.5849 92.0416C81.9942 94.4357 81.3887 96.8158 80.7829 99.197L80.7828 99.1975C80.1778 101.576 79.5726 103.955 78.982 106.348C78.7961 106.944 78.732 107.66 78.86 108.271L78.8597 108.271L78.8628 108.283C78.8881 108.379 78.9502 108.448 78.9975 108.491C79.0486 108.537 79.1091 108.577 79.1696 108.61C79.2911 108.677 79.4409 108.734 79.5905 108.777C79.7403 108.819 79.9016 108.85 80.0478 108.857C80.1209 108.861 80.1963 108.859 80.2677 108.847C80.3365 108.836 80.4187 108.812 80.4911 108.761L80.4946 108.758C81.0517 108.345 81.629 107.684 81.8269 106.992C81.9807 106.464 82.0566 105.896 82.1299 105.343L82.1315 105.331C82.2053 104.775 82.2772 104.233 82.4186 103.721L82.4187 103.721L82.4202 103.715C82.9811 101.462 83.5717 99.2096 84.1627 96.9551L84.163 96.9538C84.7538 94.7003 85.345 92.445 85.9068 90.1894L85.9071 90.188C86.4691 87.8751 86.9866 85.5626 87.5035 83.2526L87.5037 83.2519C88.0208 80.9409 88.5374 78.6325 89.0982 76.3245L89.0985 76.3232C90.9359 68.5795 91.4214 60.6227 87.9583 53.3341L87.9579 53.3332C83.5717 44.1959 78.7242 35.2316 73.8838 26.2805C72.0039 22.804 70.1251 19.3295 68.2747 15.8476L68.2749 15.8475L68.27 15.839C68.0788 15.5109 67.6988 15.3002 67.349 15.1334C67.226 15.0748 67.1046 15.0205 66.9861 14.9676C66.7384 14.8569 66.5032 14.7518 66.2926 14.624Z" fill="#4F8AD8" stroke="#4F8AD8" stroke-width="0.5"/>
<path d="M68.4242 77.9204L68.4555 77.926L68.4873 77.9235C68.855 77.8945 69.2069 77.8656 69.544 77.8379C70.854 77.7304 71.9393 77.6413 72.8483 77.6372C73.9925 77.632 74.8074 77.7632 75.4071 78.1274C75.9954 78.4847 76.4162 79.0917 76.7118 80.1357C77.0089 81.1852 77.1708 82.6464 77.2593 84.6716C77.4836 92.0108 75.1273 98.79 72.7446 105.645C72.6391 105.949 72.5337 106.252 72.4284 106.556C72.2857 106.933 72.3277 107.329 72.3957 107.682C72.4186 107.801 72.4465 107.924 72.4733 108.042C72.4862 108.099 72.4988 108.155 72.5105 108.208C72.5478 108.379 72.5783 108.539 72.5916 108.692L72.6284 109.112L72.9795 108.878C73.1122 108.789 73.2765 108.704 73.461 108.614C73.5132 108.588 73.5673 108.562 73.6225 108.536C73.7567 108.471 73.8968 108.404 74.028 108.335C74.2144 108.237 74.4008 108.127 74.5549 107.998C74.7086 107.87 74.847 107.709 74.9111 107.505L74.9112 107.505L74.9136 107.496C75.2635 106.226 75.6202 104.957 75.9769 103.688C77.4853 98.321 78.9949 92.9496 80.0007 87.4689L80.0013 87.4652C80.4459 84.815 79.6648 81.9299 78.9439 79.2675C78.8803 79.0326 78.8172 78.7994 78.7554 78.5683C78.4069 77.2396 77.5012 76.3851 76.3494 75.8616C75.2049 75.3416 73.8074 75.1422 72.4322 75.1137L72.4304 75.1137C68.3607 75.0574 64.2446 74.7762 60.3697 73.8805C58.4331 73.4189 56.595 73.5869 55.1485 74.3689C53.6959 75.1541 52.6623 76.5461 52.3249 78.4765L52.3248 78.4775C51.4553 83.5632 53.8253 87.7421 56.1534 91.847C56.2458 92.01 56.3382 92.1729 56.4304 92.3358C56.6328 92.7043 56.8398 93.0724 57.0468 93.4406C58.1826 95.4607 59.3198 97.4831 59.7119 99.5842C59.9113 100.754 59.7985 101.975 59.6074 103.229C59.5519 103.594 59.4894 103.963 59.4265 104.334C59.2753 105.227 59.1219 106.133 59.0586 107.018L59.058 107.027V107.036C59.058 107.351 59.1847 107.662 59.3204 107.936C59.3821 108.06 59.4498 108.184 59.5141 108.302C59.5219 108.316 59.5296 108.33 59.5372 108.344C59.6094 108.476 59.6761 108.6 59.7314 108.719L59.8439 108.96L60.0776 108.833C60.1722 108.782 60.2789 108.732 60.3954 108.679L60.415 108.67C60.5229 108.621 60.6387 108.568 60.7466 108.511C60.9589 108.399 61.2223 108.234 61.3168 107.963L61.3168 107.963L61.3183 107.959C62.6151 104.024 63.8399 99.9783 61.5964 95.8149L61.5957 95.8136C61.0142 94.7495 60.4178 93.6963 59.8234 92.6466C58.1733 89.7326 56.5391 86.8465 55.2841 83.834C54.5434 82.0406 54.5979 79.4603 55.3441 77.5987C55.577 77.024 55.9009 76.6687 56.2758 76.4506C56.6551 76.23 57.1075 76.1379 57.614 76.1279C58.1213 76.1178 58.6673 76.1901 59.2252 76.2855C59.4164 76.3182 59.6109 76.354 59.8053 76.3897C60.168 76.4565 60.5302 76.5232 60.8698 76.5694L60.8711 76.5696C62.9847 76.8463 65.0595 77.2602 66.6668 77.5808C67.3472 77.7166 67.9438 77.8356 68.4242 77.9204Z" fill="#4F8AD8" stroke="#4F8AD8" stroke-width="0.5"/>
<path d="M36.7946 110.202L36.6661 109.565C36.5706 109.091 36.4775 108.711 36.3965 108.38C36.352 108.198 36.3112 108.031 36.2757 107.872C36.1788 107.439 36.1236 107.072 36.1926 106.708C36.1927 106.708 36.1928 106.708 36.1928 106.707L36.4384 106.754C36.9703 103.824 37.6203 100.893 38.2703 98.0189L36.7946 110.202ZM36.7946 110.202L37.1262 109.643C37.4219 109.144 37.6715 108.775 37.8775 108.47C37.9361 108.383 37.9912 108.301 38.0428 108.224C38.2694 107.882 38.4418 107.595 38.513 107.266C38.6436 106.812 38.7757 106.358 38.9081 105.903C39.6118 103.486 40.3209 101.051 40.82 98.5762C41.232 96.5906 41.5872 94.606 41.941 92.6289C42.5562 89.1912 43.1674 85.7759 44.0667 82.4167C45.6836 76.4198 44.3018 70.774 41.5632 65.7209C38.484 60.0089 34.8909 54.5216 31.3077 49.0495C29.8645 46.8454 28.4228 44.6437 27.017 42.4308L27.0169 42.4306C26.3616 41.4013 25.6267 40.3895 24.9032 39.3934C24.5143 38.8579 24.1288 38.3271 23.7607 37.8005L23.6393 37.6269L23.4482 37.7181C23.2755 37.8004 23.1169 37.8692 22.954 37.9398L22.9525 37.9404C22.7909 38.0105 22.6249 38.0824 22.4436 38.1689L22.2569 38.2579L22.3093 38.458C22.3694 38.6872 22.3995 38.9311 22.432 39.1943C22.4448 39.2979 22.458 39.4045 22.4735 39.5144C22.5257 39.8839 22.6045 40.2826 22.8123 40.6129L22.8123 40.6129L22.8134 40.6146C25.0889 44.1656 27.3791 47.7023 29.6689 51.2385L29.669 51.2387C31.959 54.7751 34.2486 58.3109 36.5234 61.8607L36.5236 61.8611C39.2338 66.075 41.3937 70.428 41.7439 75.4939L41.744 75.4954C42.0369 79.3785 41.5248 83.1281 40.7295 86.8434C40.3317 88.7012 39.8638 90.5477 39.391 92.3981C39.3642 92.5029 39.3374 92.6077 39.3106 92.7125C38.8646 94.4569 38.4176 96.2056 38.0264 97.9641L36.7946 110.202ZM24.7078 39.5499C25.4281 40.5415 26.1543 41.5413 26.806 42.5649L41.9933 75.4766C41.6387 70.3483 39.4522 65.9525 36.7339 61.7258C34.4587 58.1754 32.1688 54.6391 29.8789 51.1028C27.589 47.5665 25.2991 44.0302 23.0239 40.4797C22.7986 40.1216 22.7403 39.6497 22.6823 39.1797C22.649 38.9101 22.6158 38.6411 22.5512 38.3946C22.7284 38.31 22.8909 38.2396 23.0535 38.1691C23.216 38.0987 23.3785 38.0283 23.5558 37.9437C23.9295 38.4783 24.3178 39.0129 24.7078 39.5499Z" fill="#4F8AD8" stroke="#4F8AD8" stroke-width="0.5"/>
<path d="M70.7132 65.8078H71.1166L70.9371 65.4466C70.3808 64.3266 69.63 63.6497 68.7543 63.2585C67.8879 62.8714 66.9169 62.772 65.93 62.7718C64.8851 62.7436 63.8699 62.8134 62.9438 63.1919C62.0088 63.5741 61.1849 64.2622 60.5097 65.4329L60.2935 65.8078H60.7263H60.746H60.7657H60.7854H60.8051H60.8248H60.8445H60.8642H60.8839H60.9036H60.9232H60.9429H60.9625H60.9822H61.0018H61.0214H61.041H61.0606H61.0802H61.0998H61.1194H61.139H61.1586H61.1781H61.1977H61.2172H61.2368H61.2563H61.2759H61.2954H61.3149H61.3344H61.3539H61.3734H61.3929H61.4124H61.4318H61.4513H61.4708H61.4902H61.5097H61.5291H61.5486H61.568H61.5874H61.6068H61.6262H61.6456H61.665H61.6844H61.7038H61.7232H61.7426H61.762H61.7813H61.8007H61.82H61.8394H61.8587H61.878H61.8974H61.9167H61.936H61.9553H61.9746H61.9939H62.0132H62.0325H62.0518H62.0711H62.0904H62.1096H62.1289H62.1482H62.1674H62.1867H62.2059H62.2251H62.2444H62.2636H62.2828H62.302H62.3213H62.3405H62.3597H62.3789H62.3981H62.4173H62.4365H62.4556H62.4748H62.494H62.5132H62.5323H62.5515H62.5707H62.5898H62.609H62.6281H62.6473H62.6664H62.6855H62.7047H62.7238H62.7429H62.762H62.7811H62.8003H62.8194H62.8385H62.8576H62.8767H62.8958H62.9149H62.9339H62.953H62.9721H62.9912H63.0103H63.0293H63.0484H63.0675H63.0865H63.1056H63.1246H63.1437H63.1628H63.1818H63.2008H63.2199H63.2389H63.258H63.277H63.296H63.3151H63.3341H63.3531H63.3721H63.3912H63.4102H63.4292H63.4482H63.4672H63.4862H63.5052H63.5242H63.5432H63.5622H63.5812H63.6002H63.6192H63.6382H63.6572H63.6762H63.6952H63.7142H63.7332H63.7522H63.7711H63.7901H63.8091H63.8281H63.8471H63.866H63.885H63.904H63.923H63.9419H63.9609H63.9799H63.9988H64.0178H64.0368H64.0557H64.0747H64.0937H64.1126H64.1316H64.1506H64.1695H64.1885H64.2074H64.2264H64.2454H64.2643H64.2833H64.3022H64.3212H64.3401H64.3591H64.3781H64.397H64.416H64.4349H64.4539H64.4728H64.4918H64.5108H64.5297H64.5487H64.5676H64.5866H64.6056H64.6245H64.6435H64.6624H64.6814H64.7004H64.7193H64.7383H64.7573H64.7762H64.7952H64.8142H64.8331H64.8521H64.8711H64.89H64.909H64.928H64.9469H64.9659H64.9849H65.0039H65.0229H65.0418H65.0608H65.0798H65.0988H65.1178H65.1368H65.1557H65.1747H65.1937H65.2127H65.2317H65.2507H65.2697H65.2887H65.3077H65.3267H65.3457H65.3647H65.3837H65.4028H65.4218H65.4408H65.4598H65.4788H65.4979H65.5169H65.5359H65.555H65.574H65.593H65.6121H65.6311H65.6502H65.6692H65.6883H65.7073H65.7264H65.7454H65.7645H65.7836H65.8026H65.8217H65.8408H65.8598H65.8789H65.898H65.9171H65.9362H65.9553H65.9744H65.9935H66.0126H66.0317H66.0508H66.0699H66.089H66.1082H66.1273H66.1464H66.1656H66.1847H66.2038H66.223H66.2421H66.2613H66.2805H66.2996H66.3188H66.338H66.3571H66.3763H66.3955H66.4147H66.4339H66.4531H66.4723H66.4915H66.5107H66.5299H66.5491H66.5683H66.5876H66.6068H66.6261H66.6453H66.6645H66.6838H66.7031H66.7223H66.7416H66.7609H66.7801H66.7994H66.8187H66.838H66.8573H66.8766H66.8959H66.9153H66.9346H66.9539H66.9732H66.9926H67.0119H67.0313H67.0506H67.07H67.0894H67.1087H67.1281H67.1475H67.1669H67.1863H67.2057H67.2251H67.2445H67.264H67.2834H67.3028H67.3223H67.3417H67.3612H67.3806H67.4001H67.4196H67.4391H67.4586H67.478H67.4975H67.5171H67.5366H67.5561H67.5756H67.5952H67.6147H67.6343H67.6538H67.6734H67.6929H67.7125H67.7321H67.7517H67.7713H67.7909H67.8105H67.8302H67.8498H67.8694H67.8891H67.9087H67.9284H67.9481H67.9677H67.9874H68.0071H68.0268H68.0465H68.0662H68.086H68.1057H68.1254H68.1452H68.1649H68.1847H68.2045H68.2243H68.2441H68.2639H68.2837H68.3035H68.3233H68.3431H68.363H68.3828H68.4027H68.4226H68.4424H68.4623H68.4822H68.5021H68.522H68.5419H68.5619H68.5818H68.6018H68.6217H68.6417H68.6617H68.6816H68.7016H68.7216H68.7417H68.7617H68.7817H68.8018H68.8218H68.8419H68.8619H68.882H68.9021H68.9222H68.9423H68.9624H68.9826H69.0027H69.0229H69.043H69.0632H69.0834H69.1036H69.1238H69.144H69.1642H69.1844H69.2047H69.2249H69.2452H69.2654H69.2857H69.306H69.3263H69.3466H69.367H69.3873H69.4077H69.428H69.4484H69.4688H69.4892H69.5096H69.53H69.5504H69.5708H69.5913H69.6117H69.6322H69.6527H69.6732H69.6937H69.7142H69.7347H69.7553H69.7758H69.7964H69.817H69.8375H69.8581H69.8787H69.8994H69.92H69.9406H69.9613H69.982H70.0026H70.0233H70.044H70.0648H70.0855H70.1062H70.127H70.1478H70.1685H70.1893H70.2101H70.2309H70.2518H70.2726H70.2935H70.3143H70.3352H70.3561H70.377H70.3979H70.4188H70.4398H70.4607H70.4817H70.5027H70.5237H70.5447H70.5657H70.5868H70.6078H70.6289H70.6499H70.671H70.6921H70.7132Z" fill="#4F8AD8" stroke="#4F8AD8" stroke-width="0.5"/>
<rect x="2" y="2" width="119" height="119" rx="17" stroke="#4F8AD8" stroke-width="4"/>
</svg>
