<svg width="123" height="123" viewBox="0 0 123 123" fill="none" xmlns="http://www.w3.org/2000/svg">
<path d="M64.2618 49.4664C64.2618 62.6746 53.1706 73.4679 39.3809 73.4679C25.5912 73.4679 14.5 62.6746 14.5 49.4664C14.5 36.2582 25.5912 25.4648 39.3809 25.4648C53.1706 25.4648 64.2618 36.2582 64.2618 49.4664Z" fill="white" stroke="#4F8AD8" stroke-width="3"/>
<path d="M86.0903 80.1236C86.0903 93.3318 74.9991 104.125 61.2094 104.125C47.4197 104.125 36.3285 93.3318 36.3285 80.1236C36.3285 66.9155 47.4197 56.1221 61.2094 56.1221C74.9991 56.1221 86.0903 66.9155 86.0903 80.1236Z" fill="white" stroke="#4F8AD8" stroke-width="3"/>
<path d="M64.4771 74.6552H61.6691C61.2731 74.1512 60.8351 73.7672 60.3551 73.5032C59.7551 73.1672 59.0771 72.9992 58.3211 72.9992C57.0251 72.9992 55.9451 73.4492 55.0811 74.3492C54.2291 75.2372 53.8031 76.2872 53.8031 77.4992C53.8031 78.7712 54.2351 79.8572 55.0991 80.7572C55.9751 81.6452 57.0551 82.0892 58.3391 82.0892C58.9631 82.0892 59.5511 81.9632 60.1031 81.7112C60.6551 81.4592 61.1351 81.0692 61.5431 80.5412H64.4051C63.8411 81.7532 63.0431 82.7012 62.0111 83.3852C60.9191 84.1172 59.6711 84.4832 58.2671 84.4832C56.1191 84.4832 54.3851 83.7032 53.0651 82.1432C51.9131 80.7752 51.3371 79.2272 51.3371 77.4992C51.3371 75.8072 51.9071 74.2892 53.0471 72.9452C54.3791 71.3852 56.1311 70.6052 58.3031 70.6052C59.6951 70.6052 60.9311 70.9592 62.0111 71.6672C63.0911 72.3752 63.9131 73.3712 64.4771 74.6552ZM70.35 76.1852C69.63 76.1852 69.09 76.4072 68.73 76.8512C68.382 77.2832 68.208 77.9252 68.208 78.7772V84.1592H65.814V74.1872H68.01V75.0872C68.502 74.2592 69.204 73.8452 70.116 73.8452C70.224 73.8572 70.302 73.8632 70.35 73.8632V76.1852Z" fill="#4F8AD8"/>
<path d="M37.4771 43.6552H34.6691C34.2731 43.1512 33.8351 42.7672 33.3551 42.5032C32.7551 42.1672 32.0771 41.9992 31.3211 41.9992C30.0251 41.9992 28.9451 42.4492 28.0811 43.3492C27.2291 44.2372 26.8031 45.2872 26.8031 46.4992C26.8031 47.7712 27.2351 48.8572 28.0991 49.7572C28.9751 50.6452 30.0551 51.0892 31.3391 51.0892C31.9631 51.0892 32.5511 50.9632 33.1031 50.7112C33.6551 50.4592 34.1351 50.0692 34.5431 49.5412H37.4051C36.8411 50.7532 36.0431 51.7012 35.0111 52.3852C33.9191 53.1172 32.6711 53.4832 31.2671 53.4832C29.1191 53.4832 27.3851 52.7032 26.0651 51.1432C24.9131 49.7752 24.3371 48.2272 24.3371 46.4992C24.3371 44.8072 24.9071 43.2892 26.0471 41.9452C27.3791 40.3852 29.1311 39.6052 31.3031 39.6052C32.6951 39.6052 33.9311 39.9592 35.0111 40.6672C36.0911 41.3752 36.9131 42.3712 37.4771 43.6552ZM48.75 53.1592H46.554V51.8092C46.158 52.3492 45.666 52.7632 45.078 53.0512C44.502 53.3392 43.872 53.4832 43.188 53.4832C41.868 53.4832 40.74 53.0152 39.804 52.0792C38.808 51.0832 38.31 49.8112 38.31 48.2632C38.31 46.7152 38.784 45.4312 39.732 44.4112C40.692 43.3792 41.868 42.8632 43.26 42.8632C44.7 42.8632 45.786 43.4392 46.518 44.5912L46.554 43.1872H48.75V53.1592ZM46.5 48.1552C46.5 47.2792 46.236 46.5592 45.708 45.9952C45.192 45.4192 44.502 45.1312 43.638 45.1312C42.786 45.1312 42.084 45.4252 41.532 46.0132C40.98 46.6012 40.704 47.3512 40.704 48.2632C40.704 49.1152 40.974 49.8232 41.514 50.3872C42.066 50.9392 42.774 51.2152 43.638 51.2152C44.49 51.2152 45.18 50.9332 45.708 50.3692C46.236 49.8052 46.5 49.0672 46.5 48.1552Z" fill="#4F8AD8"/>
<path d="M105.522 45.5016C105.522 58.7097 94.4309 69.5031 80.6412 69.5031C66.8515 69.5031 55.7603 58.7097 55.7603 45.5016C55.7603 32.2934 66.8515 21.5 80.6412 21.5C94.4309 21.5 105.522 32.2934 105.522 45.5016Z" fill="white" stroke="#4F8AD8" stroke-width="3"/>
<path d="M80.7731 48.1592H78.3071V38.1872L74.9411 48.1592H72.8531L69.4871 38.1872V48.1592H67.0211V34.8392H70.3691L73.8971 45.0272L77.4251 34.8392H80.7731V48.1592ZM92.9122 46.6472C92.9122 48.3512 92.3662 49.6952 91.2742 50.6792C90.2782 51.5792 89.0362 52.0292 87.5482 52.0292C86.3362 52.0292 85.2742 51.7112 84.3622 51.0752C83.4622 50.4392 82.8622 49.5392 82.5622 48.3752H85.3162C85.4602 48.8192 85.7302 49.1612 86.1262 49.4012C86.5342 49.6412 87.0082 49.7612 87.5482 49.7612C88.3762 49.7612 89.0782 49.4972 89.6542 48.9692C90.2302 48.4412 90.5182 47.8052 90.5182 47.0612V46.7012C90.1102 47.2412 89.6602 47.6372 89.1682 47.8892C88.6882 48.1412 88.1362 48.2672 87.5122 48.2672C86.1202 48.2672 84.9322 47.7572 83.9482 46.7372C82.9642 45.7172 82.4722 44.4812 82.4722 43.0292C82.4722 41.5172 82.9642 40.2812 83.9482 39.3212C84.9442 38.3492 86.1502 37.8632 87.5662 37.8632C88.1182 37.8632 88.6162 37.9532 89.0602 38.1332C89.7562 38.4092 90.2962 38.8832 90.6802 39.5552L90.7162 38.1872H92.9122V46.6472ZM90.6622 43.1012C90.6622 42.2012 90.3982 41.4812 89.8702 40.9412C89.3422 40.4012 88.6402 40.1312 87.7642 40.1312C86.8642 40.1312 86.1442 40.4252 85.6042 41.0132C85.1122 41.5532 84.8662 42.2192 84.8662 43.0112C84.8662 43.8512 85.1122 44.5472 85.6042 45.0992C86.1442 45.6992 86.8642 45.9992 87.7642 45.9992C88.6402 45.9992 89.3422 45.7232 89.8702 45.1712C90.3982 44.6192 90.6622 43.9292 90.6622 43.1012Z" fill="#4F8AD8"/>
<rect x="2" y="2" width="119" height="119" rx="17" stroke="#4F8AD8" stroke-width="4"/>
</svg>
