<svg width="123" height="123" viewBox="0 0 123 123" fill="none" xmlns="http://www.w3.org/2000/svg">
<g clip-path="url(#clip0)">
<path d="M20.1433 74.6594C20.2348 63.6282 30.7531 54.9914 41.6372 50.7157C52.5214 46.44 64.5488 44.8153 74.8842 39.428C84.9451 34.2117 92.8567 25.4893 96.7439 15.3988" stroke="#4F8AD8" stroke-width="5" stroke-miterlimit="10"/>
<path d="M38.6161 103.743C42.0917 91.3868 49.3173 79.2012 61.299 73.0442C65.4148 70.9064 69.9423 69.5809 74.3325 68.0845C82.427 65.348 90.4301 61.9703 97.1526 56.925C103.875 51.8797 109.317 44.9959 111.055 37.1287" stroke="#4F8AD8" stroke-width="5" stroke-miterlimit="10"/>
<path d="M56.6161 110.743C60.0917 98.3868 67.3173 86.2012 79.299 80.0443C83.4149 77.9065 87.9423 76.581 92.3326 75.0845C100.427 72.3481 108.43 68.9703 115.153 63.9251C121.875 58.8798 127.317 51.996 129.055 44.1288" stroke="#4F8AD8" stroke-width="5" stroke-miterlimit="10"/>
<path d="M12 63.6148C15.4756 51.2582 22.7012 39.0726 34.6829 32.9156C38.7988 30.7778 43.3262 29.4523 47.7165 27.9559C55.811 25.2194 63.814 21.8417 70.5366 16.7964C77.2591 11.7511 82.7012 4.86733 84.439 -2.99988" stroke="#4F8AD8" stroke-width="5" stroke-miterlimit="10"/>
<path d="M38.7104 70.3933C36.8811 70.3933 35.4177 69.0251 35.4177 67.3149C35.4177 65.6046 36.8811 64.2364 38.7104 64.2364C40.5396 64.2364 42.0031 65.6046 42.0031 67.3149C42.0031 69.0251 40.5396 70.3933 38.7104 70.3933Z" fill="white" stroke="#4F8AD8" stroke-width="3" stroke-miterlimit="10"/>
<path d="M61.9878 60.0463C60.0671 60.0463 58.4665 58.5498 58.4665 56.754C58.4665 54.9583 60.0671 53.4618 61.9878 53.4618C63.9085 53.4618 65.5091 54.9583 65.5091 56.754C65.5091 58.5498 63.9085 60.0463 61.9878 60.0463Z" fill="white" stroke="#4F8AD8" stroke-width="3" stroke-miterlimit="10"/>
<path d="M52.9329 70.3934H52.8415C49.8232 70.3934 47.3537 68.0846 47.3537 65.2626V65.1771C47.3537 62.3552 49.8232 60.0463 52.8415 60.0463H52.9329C55.9512 60.0463 58.4207 62.3552 58.4207 65.1771V65.2626C58.4207 68.0846 55.9512 70.3934 52.9329 70.3934Z" fill="white" stroke="#4F8AD8" stroke-width="3" stroke-miterlimit="10"/>
<path d="M86.9116 49.0151C85.0824 49.0151 83.5732 47.6041 83.5732 45.8939C83.5732 44.1836 85.0824 42.7726 86.9116 42.7726C88.7409 42.7726 90.25 44.1836 90.25 45.8939C90.25 47.6041 88.7409 49.0151 86.9116 49.0151Z" fill="white" stroke="#4F8AD8" stroke-width="3" stroke-miterlimit="10"/>
</g>
<rect x="2" y="2" width="119" height="119" rx="17" stroke="#4F8AD8" stroke-width="4"/>
<defs>
<clipPath id="clip0">
<rect width="90" height="85" fill="white" transform="translate(19 19)"/>
</clipPath>
</defs>
</svg>
