<svg width="123" height="123" viewBox="0 0 123 123" fill="none" xmlns="http://www.w3.org/2000/svg">
<path d="M73.9014 20.1036C77.7335 20.6214 81.5656 21.1393 85.3977 21.7607C86.5369 21.9678 87.7798 22.175 88.8155 22.4857C93.6833 23.9357 94.5119 25.2821 94.3047 30.2535C93.6833 42.0605 93.1655 53.8675 92.4405 65.6746C92.0262 73.5459 91.4048 81.5208 91.094 89.3922C90.9905 92.085 89.4369 93.2243 87.2619 93.535C80.6334 94.3636 74.1085 95.6064 67.48 95.6064C57.7444 95.6064 48.0087 94.6743 38.2731 94.0529C36.8231 93.9493 35.4767 93.4314 34.0267 93.0172C32.266 92.6029 31.541 91.36 31.4375 89.5993C30.9196 80.3816 30.5053 71.2674 29.9875 62.0496C29.3661 50.7604 28.6411 39.4712 28.0197 28.2856C27.8125 25.6964 29.2625 23.9357 31.4375 23.3143C36.0981 22.175 40.8624 21.45 45.5231 20.5179C46.5588 20.3107 47.5945 20.1036 48.6302 20C57.0194 20.1036 65.5121 20.1036 73.9014 20.1036ZM61.2658 23.4178C53.0837 24.1428 45.0052 24.7642 36.8231 25.6964C32.0589 26.2142 31.7482 26.9392 32.0589 31.4963C33.0946 50.0354 34.0267 68.5745 34.9589 87.2172C35.0624 89.2886 35.7874 90.2208 37.8588 90.3243C44.3838 90.8422 50.9087 91.9815 57.4337 91.8779C66.6514 91.7743 75.7656 90.8422 84.9834 90.2208C86.5369 90.1172 87.4691 89.4958 87.5726 87.7351C88.0905 76.8602 88.7119 65.8817 89.2298 55.0068C89.6441 46.8247 89.9548 38.6427 90.6798 30.4606C90.8869 27.8714 90.2655 26.7321 87.9869 26.1107C87.1584 25.9035 86.4334 25.5928 85.6048 25.5928C77.5263 24.8678 69.4478 24.1428 61.2658 23.4178Z" fill="#4F8AD8"/>
<path d="M62.7764 111.928H62.7757H62.7687H62.7616H62.7546H62.7476H62.7405H62.7335H62.7265H62.7195H62.7125H62.7055H62.6985H62.6916H62.6846H62.6776H62.6706H62.6637H62.6567H62.6498H62.6428H62.6359H62.629H62.6221H62.6151H62.6082H62.6013H62.5944H62.5875H62.5806H62.5737H62.5668H62.56H62.5531H62.5462H62.5394H62.5325H62.5257H62.5188H62.512H62.5052H62.4983H62.4915H62.4847H62.4779H62.4711H62.4642H62.4574H62.4507H62.4439H62.4371H62.4303H62.4235H62.4168H62.41H62.4032H62.3965H62.3897H62.383H62.3762H62.3695H62.3627H62.356H62.3493H62.3426H62.3359H62.3291H62.3224H62.3157H62.309H62.3023H62.2956H62.289H62.2823H62.2756H62.2689H62.2623H62.2556H62.2489H62.2423H62.2356H62.229H62.2223H62.2157H62.209H62.2024H62.1958H62.1891H62.1825H62.1759H62.1693H62.1627H62.1561H62.1495H62.1429H62.1363H62.1297H62.1231H62.1165H62.1099H62.1033H62.0967H62.0902H62.0836H62.077H62.0705H62.0639H62.0574H62.0508H62.0442H62.0377H62.0312H62.0246H62.0181H62.0115H62.005H61.9985H61.992H61.9854H61.9789H61.9724H61.9659H61.9594H61.9529H61.9463H61.9398H61.9333H61.9268H61.9203H61.9139H61.9074H61.9009H61.8944H61.8879H61.8814H61.8749H61.8685H61.862H61.8555H61.8491H61.8426H61.8361H61.8297H61.8232H61.8167H61.8103H61.8038H61.7974H61.7909H61.7845H61.778H61.7716H61.7652H61.7587H61.7523H61.7458H61.7394H61.733H61.7266H61.7201H61.7137H61.7073H61.7009H61.6944H61.688H61.6816H61.6752H61.6688H61.6623H61.6559H61.6495H61.6431H61.6367H61.6303H61.6239H61.6175H61.6111H61.6047H61.5983H61.5919H61.5855H61.5791H61.5727H61.5663H61.5599H61.5535H61.5471H61.5407H61.5344H61.528H61.5216H61.5152H61.5088H61.5024H61.496H61.4897H61.4833H61.4769H61.4705H61.4641H61.4578H61.4514H61.445H61.4386H61.4323H61.4259H61.4195H61.4131H61.4068H61.4004H61.394H61.3876H61.3813H61.3749H61.3685H61.3621H61.3558H61.3494H61.343H61.3366H61.3303H61.3239H61.3175H61.3112H61.3048H61.2984H61.292H61.2857H61.2793H61.2729H61.2666H61.2602H61.2538H61.2474H61.2411H61.2347H61.2283H61.2219H61.2156H61.2092H61.2028H61.1964H61.1901H61.1837H61.1773H61.1709H61.1645H61.1582H61.1518H61.1454H61.139H61.1326H61.1262H61.1199H61.1135H61.1071H61.1007H61.0943H61.0879H61.0815H61.0751H61.0687H61.0624H61.056H61.0496H61.0432H61.0368H61.0304H61.024H61.0176H61.0112H61.0048H60.9983H60.9919H60.9855H60.9791H60.9727H60.9663H60.9599H60.9535H60.947H60.9406H60.9342H60.9278H60.9214H60.9149H60.9085H60.9021H60.8956H60.8892H60.8828H60.8763H60.8699H60.8635H60.857H60.8506H60.8441H60.8377H60.8312H60.8248H60.8183H60.8119H60.8054H60.7989H60.7925H60.786H60.7795H60.7731H60.7666H60.7601H60.7536H60.7472H60.7407H60.7342H60.7277H60.7212H60.7147H60.7082H60.7017H60.6952H60.6887H60.6822H60.6757H60.6692H60.6627H60.6562H60.6496H60.6431H60.6366H60.6301H60.6235H60.617H60.6104H60.6039H60.5974H60.5908H60.5843H60.5777H60.5711H60.5646H60.558H60.5515H60.5449H60.5383H60.5317H60.5252H60.5186H60.512H60.5054H60.4988H60.4922H60.4856H60.479H60.4724H60.4658H60.4592H60.4525H60.4459H60.4393H60.4327H60.426H60.4194H60.4127H60.4061H60.3994H60.3928H60.3861H60.3795H60.3728H60.3661H60.3595H60.3528H60.3461H60.3394H60.3327H60.326H60.3193H60.3126H60.3059H60.2992H60.2925H60.2858H60.279H60.2723H60.2656H60.2588H60.2521H60.2453H60.2386H60.2318H60.2251H60.2183H60.2115H60.2048H60.198H60.1912H60.1844H60.1776H60.1708H60.164H60.1572H60.1504H60.1436H60.1367H60.1299H60.1231H60.1162H60.1094H60.1025H60.0957H60.0888H60.082H60.0751H60.0682H60.0613H60.0544H60.0476H60.0407H60.0338H60.0268H60.0199H60.013H60.0061H59.9992H59.9922H59.9853H59.9783H59.9714H59.9644H59.9575H59.9505H59.9435H59.9365H59.9295H59.9225H59.9155H59.9085H59.9015H59.8945H59.8875H59.8805H59.8734H59.8664H59.8593H59.8586V111.927V111.899V111.871V111.843V111.815V111.787V111.759V111.731V111.703V111.676V111.648V111.62V111.592V111.564V111.536V111.508V111.48V111.453V111.425V111.397V111.369V111.341V111.313V111.286V111.258V111.23V111.202V111.174V111.146V111.118V111.091V111.063V111.035V111.007V110.979V110.951V110.924V110.896V110.868V110.84V110.812V110.785V110.757V110.729V110.701V110.673V110.646V110.618V110.59V110.562V110.534V110.507V110.479V110.451V110.423V110.395V110.368V110.34V110.312V110.284V110.256V110.229V110.201V110.173V110.145V110.117V110.09V110.062V110.034V110.006V109.979V109.951V109.923V109.895V109.868V109.84V109.812V109.784V109.756V109.729V109.701V109.673V109.645V109.618V109.59V109.562V109.534V109.507V109.479V109.451V109.423V109.396V109.368V109.34V109.312V109.285V109.257V109.229V109.201V109.174V109.146V109.118V109.09V109.063V109.035V109.007V108.98V108.952V108.924V108.896V108.869V108.841V108.813V108.785V108.758V108.73V108.702V108.675V108.647V108.619V108.591V108.564V108.536V108.508V108.48V108.453V108.425V108.397V108.37V108.342V108.314V108.286V108.259V108.231V108.203V108.176V108.148V108.12V108.092V108.065V108.037V108.009V107.981V107.954V107.926V107.898V107.871V107.843V107.815V107.787V107.76V107.732V107.704V107.677V107.649V107.621V107.593V107.566V107.538V107.51V107.483V107.455V107.427V107.399V107.372V107.344V107.316V107.289V107.261V107.233V107.205V107.178V107.15V107.122V107.095V107.067V107.039V107.011V106.984V106.956V106.928V106.901V106.873V106.845V106.817V106.79V106.762V106.734V106.707V106.679V106.651V106.623V106.596V106.568V106.54V106.513V106.485V106.457V106.429V106.402V106.374V106.346V106.319V106.291V106.263V106.235V106.208V106.18V106.152V106.124V106.097V106.069V106.041V106.014V105.986V105.958V105.93V105.903V105.875V105.847V105.819V105.792V105.764V105.736V105.708V105.681V105.653V105.625V105.597V105.57V105.542V105.514V105.486V105.459V105.431V105.403V105.375V105.348V105.32V105.292V105.264V105.237V105.209V105.181V105.153V105.126V105.098V105.07V105.042V105.015V104.987V104.959V104.931V104.904V104.876V104.848V104.82V104.792V104.765V104.737V104.709V104.681V104.654V104.626V104.598V104.57V104.542V104.515V104.487V104.459V104.431V104.403V104.376V104.348V104.32V104.292V104.264V104.237V104.209V104.181V104.153V104.125V104.098V104.07V104.042V104.014V103.986V103.958V103.931V103.903V103.875V103.847V103.819V103.792V103.764V103.736V103.708V103.68V103.652V103.625V103.597V103.569V103.541V103.513V103.485V103.457V103.43V103.402V103.374V103.346V103.318V103.29V103.262V103.234V103.207V103.179V103.151V103.123V103.095V103.067V103.039V103.011V102.984V102.956V102.928V102.9V102.872V102.844V102.816V102.788V102.76V102.732V102.705V102.677V102.649V102.621V102.593V102.565V102.537V102.509V102.481V102.453V102.425V102.397V102.369V102.341V102.313V102.286V102.258V102.23V102.202V102.174V102.146V102.118V102.09V102.062V102.034V102.006V101.978V101.95V101.922V101.894V101.866V101.838V101.81V101.782V101.754V101.726V101.698V101.67V101.642V101.614V101.586V101.558V101.53V101.502V101.474V101.446V101.418V101.39V101.362V101.334V101.306V101.277V101.249V101.221V101.193V101.165V101.137V101.109V101.081V101.053V101.025V100.997V100.969V100.941V100.913V100.884V100.856V100.828V100.8V100.772V100.744V100.716V100.688V100.66V100.631V100.603V100.575V100.547V100.519V100.491V100.463V100.434V100.406V100.378V100.35V100.322V100.294V100.265V100.237V100.209V100.181V100.153V100.125V100.096V100.068V100.04V100.012V99.9836V99.9553V99.9271V99.8989V99.8707V99.8425V99.8142V99.786V99.7578V99.7295V99.7013V99.673V99.6448V99.6165V99.5883V99.56V99.5317V99.5034V99.4752V99.4469V99.4186V99.3903V99.362V99.3337V99.3054V99.2771V99.2488V99.2205V99.1922V99.1639V99.1355V99.1072V99.0789V99.0505V99.0222V98.9939V98.9655V98.9371V98.9088V98.8804V98.8521V98.8237V98.7953V98.7669V98.7385V98.7102V98.6818V98.6534V98.625V98.5966V98.5682V98.5397V98.5113V98.4829V98.4545V98.426V98.3976V98.3692V98.3407V98.3123V98.2838V98.2553V98.2269V98.1984V98.1699V98.1415V98.1349H59.8607H59.8673H59.8739H59.8805H59.8871H59.8936H59.9002H59.9068H59.9134H59.92H59.9266H59.9331H59.9397H59.9463H59.9529H59.9594H59.966H59.9726H59.9791H59.9857H59.9923H59.9988H60.0054H60.0119H60.0185H60.025H60.0316H60.0381H60.0447H60.0512H60.0578H60.0643H60.0709H60.0774H60.084H60.0905H60.097H60.1036H60.1101H60.1167H60.1232H60.1297H60.1362H60.1428H60.1493H60.1558H60.1624H60.1689H60.1754H60.1819H60.1885H60.195H60.2015H60.208H60.2145H60.221H60.2276H60.2341H60.2406H60.2471H60.2536H60.2601H60.2666H60.2731H60.2796H60.2861H60.2926H60.2991H60.3056H60.3122H60.3187H60.3252H60.3317H60.3382H60.3446H60.3511H60.3576H60.3641H60.3706H60.3771H60.3836H60.3901H60.3966H60.4031H60.4096H60.4161H60.4226H60.429H60.4355H60.442H60.4485H60.455H60.4615H60.468H60.4744H60.4809H60.4874H60.4939H60.5004H60.5069H60.5133H60.5198H60.5263H60.5328H60.5393H60.5457H60.5522H60.5587H60.5652H60.5716H60.5781H60.5846H60.5911H60.5976H60.604H60.6105H60.617H60.6235H60.6299H60.6364H60.6429H60.6494H60.6558H60.6623H60.6688H60.6752H60.6817H60.6882H60.6947H60.7011H60.7076H60.7141H60.7206H60.727H60.7335H60.74H60.7465H60.7529H60.7594H60.7659H60.7723H60.7788H60.7853H60.7918H60.7982H60.8047H60.8112H60.8177H60.8241H60.8306H60.8371H60.8436H60.85H60.8565H60.863H60.8695H60.8759H60.8824H60.8889H60.8954H60.9019H60.9083H60.9148H60.9213H60.9278H60.9343H60.9407H60.9472H60.9537H60.9602H60.9667H60.9731H60.9796H60.9861H60.9926H60.9991H61.0056H61.0121H61.0185H61.025H61.0315H61.038H61.0445H61.051H61.0575H61.064H61.0705H61.077H61.0834H61.0899H61.0964H61.1029H61.1094H61.1159H61.1224H61.1289H61.1354H61.1419H61.1484H61.1549H61.1614H61.1679H61.1745H61.181H61.1875H61.194H61.2005H61.207H61.2135H61.22H61.2265H61.2331H61.2396H61.2461H61.2526H61.2591H61.2656H61.2722H61.2787H61.2852H61.2917H61.2983H61.3048H61.3113H61.3179H61.3244H61.3309H61.3375H61.344H61.3505H61.3571H61.3636H61.3701H61.3767H61.3832H61.3898H61.3963H61.4029H61.4094H61.416H61.4225H61.4291H61.4356H61.4422H61.4487H61.4553H61.4619H61.4684H61.475H61.4816H61.4881H61.4947H61.5013H61.5078H61.5144H61.521H61.5276H61.5342H61.5407H61.5473H61.5539H61.5605H61.5671H61.5737H61.5803H61.5869H61.5935H61.6H61.6066H61.6133H61.6199H61.6265H61.6331H61.6397H61.6463H61.6529H61.6595H61.6661H61.6727H61.6794H61.686H61.6926H61.6992H61.7059H61.7125H61.7191H61.7258H61.7324H61.7391H61.7457H61.7523H61.759H61.7656H61.7723H61.7789H61.7856H61.7922H61.7989H61.8056H61.8122H61.8189H61.8256H61.8322H61.8389H61.8456H61.8523H61.8589H61.8656H61.8723H61.879H61.8857H61.8924H61.8991H61.9058H61.9125H61.9192H61.9259H61.9326H61.9393H61.946H61.9527H61.9595H61.9662H61.9729H61.9796H61.9864H61.9931H61.9998H62.0066H62.0133H62.02H62.0268H62.0335H62.0403H62.047H62.0538H62.0605H62.0673H62.0741H62.0808H62.0876H62.0944H62.1012H62.1079H62.1147H62.1215H62.1283H62.1351H62.1419H62.1487H62.1555H62.1623H62.1691H62.1759H62.1827H62.1895H62.1963H62.2032H62.21H62.2168H62.2236H62.2305H62.2373H62.2442H62.251H62.2578H62.2647H62.2715H62.2784H62.2853H62.2921H62.299H62.3059H62.3127H62.3196H62.3265H62.3334H62.3403H62.3471H62.354H62.3609H62.3678H62.3747H62.3816H62.3886H62.3955H62.4024H62.4093H62.4162H62.4232H62.4301H62.437H62.444H62.4509H62.4578H62.4648H62.4718H62.4787H62.4857H62.4926H62.4996H62.5066H62.5135H62.5205H62.5275H62.5345H62.5415H62.5485H62.5555H62.5625H62.5695H62.5765H62.5835H62.5905H62.5975H62.6046H62.6116H62.6186H62.6257H62.6327H62.6398H62.6468H62.6539H62.6609H62.668H62.675H62.6821H62.6892H62.6963H62.7033H62.7104H62.7175H62.7246H62.7317H62.7388H62.7459H62.753H62.7601H62.7672H62.7744H62.7764V98.1361V98.164V98.1919V98.2198V98.2477V98.2755V98.3034V98.3313V98.3592V98.3871V98.4149V98.4428V98.4707V98.4985V98.5264V98.5543V98.5821V98.61V98.6378V98.6657V98.6936V98.7214V98.7493V98.7771V98.805V98.8328V98.8606V98.8885V98.9163V98.9442V98.972V98.9998V99.0276V99.0555V99.0833V99.1111V99.139V99.1668V99.1946V99.2224V99.2502V99.278V99.3059V99.3337V99.3615V99.3893V99.4171V99.4449V99.4727V99.5005V99.5283V99.5561V99.5839V99.6117V99.6395V99.6673V99.6951V99.7229V99.7507V99.7784V99.8062V99.834V99.8618V99.8896V99.9174V99.9451V99.9729V100.001V100.028V100.056V100.084V100.112V100.14V100.167V100.195V100.223V100.251V100.278V100.306V100.334V100.362V100.389V100.417V100.445V100.473V100.5V100.528V100.556V100.584V100.611V100.639V100.667V100.695V100.722V100.75V100.778V100.806V100.833V100.861V100.889V100.917V100.944V100.972V101V101.028V101.055V101.083V101.111V101.139V101.166V101.194V101.222V101.249V101.277V101.305V101.333V101.36V101.388V101.416V101.444V101.471V101.499V101.527V101.554V101.582V101.61V101.638V101.665V101.693V101.721V101.749V101.776V101.804V101.832V101.859V101.887V101.915V101.943V101.97V101.998V102.026V102.053V102.081V102.109V102.137V102.164V102.192V102.22V102.247V102.275V102.303V102.331V102.358V102.386V102.414V102.441V102.469V102.497V102.525V102.552V102.58V102.608V102.635V102.663V102.691V102.719V102.746V102.774V102.802V102.829V102.857V102.885V102.913V102.94V102.968V102.996V103.023V103.051V103.079V103.107V103.134V103.162V103.19V103.217V103.245V103.273V103.301V103.328V103.356V103.384V103.411V103.439V103.467V103.495V103.522V103.55V103.578V103.605V103.633V103.661V103.689V103.716V103.744V103.772V103.8V103.827V103.855V103.883V103.91V103.938V103.966V103.994V104.021V104.049V104.077V104.105V104.132V104.16V104.188V104.215V104.243V104.271V104.299V104.326V104.354V104.382V104.41V104.437V104.465V104.493V104.521V104.548V104.576V104.604V104.632V104.659V104.687V104.715V104.743V104.77V104.798V104.826V104.854V104.881V104.909V104.937V104.965V104.992V105.02V105.048V105.076V105.104V105.131V105.159V105.187V105.215V105.242V105.27V105.298V105.326V105.354V105.381V105.409V105.437V105.465V105.492V105.52V105.548V105.576V105.604V105.631V105.659V105.687V105.715V105.743V105.77V105.798V105.826V105.854V105.882V105.909V105.937V105.965V105.993V106.021V106.048V106.076V106.104V106.132V106.16V106.188V106.215V106.243V106.271V106.299V106.327V106.355V106.382V106.41V106.438V106.466V106.494V106.522V106.55V106.577V106.605V106.633V106.661V106.689V106.717V106.745V106.772V106.8V106.828V106.856V106.884V106.912V106.94V106.968V106.995V107.023V107.051V107.079V107.107V107.135V107.163V107.191V107.219V107.246V107.274V107.302V107.33V107.358V107.386V107.414V107.442V107.47V107.498V107.526V107.554V107.581V107.609V107.637V107.665V107.693V107.721V107.749V107.777V107.805V107.833V107.861V107.889V107.917V107.945V107.973V108.001V108.029V108.057V108.085V108.113V108.141V108.169V108.197V108.225V108.253V108.281V108.309V108.337V108.365V108.393V108.421V108.449V108.477V108.505V108.533V108.561V108.589V108.617V108.645V108.673V108.701V108.729V108.757V108.785V108.813V108.841V108.869V108.897V108.925V108.953V108.982V109.01V109.038V109.066V109.094V109.122V109.15V109.178V109.206V109.234V109.262V109.291V109.319V109.347V109.375V109.403V109.431V109.459V109.487V109.516V109.544V109.572V109.6V109.628V109.656V109.684V109.713V109.741V109.769V109.797V109.825V109.853V109.882V109.91V109.938V109.966V109.994V110.023V110.051V110.079V110.107V110.135V110.164V110.192V110.22V110.248V110.277V110.305V110.333V110.361V110.39V110.418V110.446V110.474V110.503V110.531V110.559V110.587V110.616V110.644V110.672V110.701V110.729V110.757V110.785V110.814V110.842V110.87V110.899V110.927V110.955V110.984V111.012V111.04V111.069V111.097V111.125V111.154V111.182V111.211V111.239V111.267V111.296V111.324V111.352V111.381V111.409V111.438V111.466V111.494V111.523V111.551V111.58V111.608V111.637V111.665V111.693V111.722V111.75V111.779V111.807V111.836V111.864V111.893V111.921V111.928Z" fill="#4F8AD8" stroke="#4F8AD8" stroke-width="0.5"/>
<path d="M61.2658 29.4249C68.6193 29.4249 76.0764 29.4249 83.4299 29.4249C85.6049 29.4249 86.2263 30.2534 86.1227 32.3248C85.2942 45.789 84.5692 59.2532 83.8442 72.7173C83.7406 74.7887 83.0156 75.6173 80.8407 75.6173C67.7908 75.5137 54.7409 75.5137 41.691 75.6173C39.6196 75.6173 38.7911 74.8923 38.6875 72.8209C37.9625 59.2532 37.2375 45.789 36.4089 32.2213C36.3054 30.1499 37.0304 29.4249 38.9982 29.5284C46.4553 29.5284 53.8088 29.4249 61.2658 29.4249ZM40.241 33.257C40.966 46.2033 41.691 58.8389 42.3124 71.4745C55.1552 71.4745 67.6872 71.4745 80.2192 71.4745C80.9442 58.6317 81.5656 46.0997 82.2906 33.257C68.2051 33.257 54.4302 33.257 40.241 33.257Z" fill="#4F8AD8"/>
<path d="M63.4835 82.3555L63.4836 82.3555V82.3494C63.4836 81.3238 63.8211 80.6053 64.48 80.1314C65.1552 79.6457 66.2057 79.3888 67.6871 79.3888H67.692H67.6968H67.7017H67.7065H67.7114H67.7162H67.7211H67.7259H67.7308H67.7356H67.7405H67.7454H67.7502H67.7551H67.7599H67.7648H67.7696H67.7745H67.7793H67.7842H67.7891H67.7939H67.7988H67.8036H67.8085H67.8133H67.8182H67.823H67.8279H67.8327H67.8376H67.8425H67.8473H67.8522H67.857H67.8619H67.8667H67.8716H67.8764H67.8813H67.8861H67.891H67.8959H67.9007H67.9056H67.9104H67.9153H67.9201H67.925H67.9298H67.9347H67.9396H67.9444H67.9493H67.9541H67.959H67.9638H67.9687H67.9735H67.9784H67.9832H67.9881H67.993H67.9978H68.0027H68.0075H68.0124H68.0172H68.0221H68.0269H68.0318H68.0366H68.0415H68.0464H68.0512H68.0561H68.0609H68.0658H68.0706H68.0755H68.0803H68.0852H68.0901H68.0949H68.0998H68.1046H68.1095H68.1143H68.1192H68.124H68.1289H68.1337H68.1386H68.1435H68.1483H68.1532H68.158H68.1629H68.1677H68.1726H68.1774H68.1823H68.1871H68.192H68.1969H68.2017H68.2066H68.2114H68.2163H68.2211H68.226H68.2308H68.2357H68.2406H68.2454H68.2503H68.2551H68.26H68.2648H68.2697H68.2745H68.2794H68.2842H68.2891H68.294H68.2988H68.3037H68.3085H68.3134H68.3182H68.3231H68.3279H68.3328H68.3376H68.3425H68.3474H68.3522H68.3571H68.3619H68.3668H68.3716H68.3765H68.3813H68.3862H68.3911H68.3959H68.4008H68.4056H68.4105H68.4153H68.4202H68.425H68.4299H68.4347H68.4396H68.4445H68.4493H68.4542H68.459H68.4639H68.4687H68.4736H68.4784H68.4833H68.4882H68.493H68.4979H68.5027H68.5076H68.5124H68.5173H68.5221H68.527H68.5318H68.5367H68.5416H68.5464H68.5513H68.5561H68.561H68.5658H68.5707H68.5755H68.5804H68.5852H68.5901H68.595H68.5998H68.6047H68.6095H68.6144H68.6192H68.6241H68.6289H68.6338H68.6387H68.6435H68.6484H68.6532H68.6581H68.6629H68.6678H68.6726H68.6775H68.6823H68.6872H68.6921H68.6969H68.7018H68.7066H68.7115H68.7163H68.7212H68.726H68.7309H68.7357H68.7406H68.7455H68.7503H68.7552H68.76H68.7649H68.7697H68.7746H68.7794H68.7843H68.7892H68.794H68.7989H68.8037H68.8086H68.8134H68.8183H68.8231H68.828H68.8328H68.8377H68.8426H68.8474H68.8523H68.8571H68.862H68.8668H68.8717H68.8765H68.8814H68.8862H68.8911H68.896H68.9008H68.9057H68.9105H68.9154H68.9202H68.9251H68.9299H68.9348H68.9397H68.9445H68.9494H68.9542H68.9591H68.9639H68.9688H68.9736H68.9785H68.9833H68.9882H68.9931H68.9979H69.0028H69.0076H69.0125H69.0173H69.0222H69.027H69.0319H69.0367H69.0416H69.0465H69.0513H69.0562H69.061H69.0659H69.0707H69.0756H69.0804H69.0853H69.0902H69.095H69.0999H69.1047H69.1096H69.1144H69.1193H69.1241H69.129H69.1338H69.1387H69.1436H69.1484H69.1533H69.1581H69.163H69.1678H69.1727H69.1775H69.1824H69.1872H69.1921H69.197H69.2018H69.2067H69.2115H69.2164H69.2212H69.2261H69.2309H69.2358H69.2407H69.2455H69.2504H69.2552H69.2601H69.2649H69.2698H69.2746H69.2795H69.2843H69.2892H69.2941H69.2989H69.3038H69.3086H69.3135H69.3183H69.3232H69.328H69.3329H69.3377H69.3426H69.3475H69.3523H69.3572H69.362H69.3669H69.3717H69.3766H69.3814H69.3863H69.3912H69.396H69.4009H69.4057H69.4106H69.4154H69.4203H69.4251H69.43H69.4348H69.4397H69.4446H69.4494H69.4543H69.4591H69.464H69.4688H69.4737H69.4785H69.4834H69.4882H69.4931H69.498H69.5028H69.5077H69.5125H69.5174H69.5222H69.5271H69.5319H69.5368H69.5417H69.5465H69.5514H69.5562H69.5611H69.5659H69.5708H69.5756H69.5805H69.5853H69.5902H69.5951H69.5999H69.6048H69.6096H69.6145H69.6193H69.6242H69.629H69.6339H69.6387H69.6436H69.6485H69.6533H69.6582H69.663H69.6679H69.6727H69.6776H69.6824H69.6873H69.6922H69.697H69.7019H69.7067H69.7116H69.7164H69.7213H69.7261H69.731H69.7358H69.7407H69.7456H69.7504H69.7553H69.7601H69.765H69.7698H69.7747H69.7795H69.7844H69.7892H69.7941H69.799H69.8038H69.8087H69.8135H69.8184H69.8232H69.8281H69.8329H69.8378H69.8427H69.8475H69.8524H69.8572H69.8621H69.8669H69.8718H69.8766H69.8815H69.8863H69.8912H69.8961H69.9009H69.9058H69.9106H69.9155H69.9203H69.9252H69.93H69.9349H69.9398H69.9446H69.9495H69.9543H69.9592H69.964H69.9689H69.9737H69.9786H69.9834H69.9883H69.9932H69.998H70.0029H70.0077H70.0126H70.0174H70.0223H70.0271H70.032H70.0368H70.0417H70.0466H70.0514H70.0563H70.0611H70.066H70.0708H70.0757H70.0805H70.0854H70.0903H70.0951H70.1H70.1048H70.1097H70.1145H70.1194H70.1242H70.1291H70.1339H70.1388H70.1437H70.1485H70.1534H70.1552C70.8934 79.4923 71.7297 79.4923 72.5436 79.4923H72.5549C73.2503 79.4923 73.9413 79.4809 74.6337 79.4694C76.021 79.4463 77.4141 79.4232 78.8602 79.492C79.7977 79.5415 80.4508 79.8345 80.873 80.3138C81.2981 80.7964 81.5227 81.5054 81.5227 82.453C81.5227 84.557 81.1354 85.9205 80.2766 86.7674C79.4168 87.6153 78.0262 88.003 75.8692 88.003H75.8534H75.8376H75.8218H75.806H75.7902H75.7744H75.7587H75.7429H75.7271H75.7113H75.6955H75.6797H75.6638H75.648H75.6322H75.6164H75.6006H75.5848H75.569H75.5531H75.5373H75.5215H75.5057H75.4898H75.474H75.4581H75.4423H75.4265H75.4106H75.3948H75.3789H75.3631H75.3472H75.3314H75.3155H75.2997H75.2838H75.268H75.2521H75.2362H75.2204H75.2045H75.1886H75.1728H75.1569H75.141H75.1251H75.1092H75.0934H75.0775H75.0616H75.0457H75.0298H75.0139H74.998H74.9821H74.9662H74.9503H74.9344H74.9185H74.9026H74.8867H74.8708H74.8549H74.839H74.8231H74.8072H74.7912H74.7753H74.7594H74.7435H74.7276H74.7116H74.6957H74.6798H74.6638H74.6479H74.632H74.616H74.6001H74.5842H74.5682H74.5523H74.5363H74.5204H74.5044H74.4885H74.4725H74.4566H74.4406H74.4247H74.4087H74.3928H74.3768H74.3608H74.3449H74.3289H74.313H74.297H74.281H74.265H74.2491H74.2331H74.2171H74.2012H74.1852H74.1692H74.1532H74.1372H74.1213H74.1053H74.0893H74.0733H74.0573H74.0413H74.0253H74.0093H73.9934H73.9774H73.9614H73.9454H73.9294H73.9134H73.8974H73.8814H73.8654H73.8494H73.8334H73.8173H73.8013H73.7853H73.7693H73.7533H73.7373H73.7213H73.7053H73.6893H73.6732H73.6572H73.6412H73.6252H73.6092H73.5931H73.5771H73.5611H73.5451H73.529H73.513H73.497H73.481H73.4649H73.4489H73.4329H73.4168H73.4008H73.3848H73.3687H73.3527H73.3366H73.3206H73.3046H73.2885H73.2725H73.2564H73.2404H73.2244H73.2083H73.1923H73.1762H73.1602H73.1441H73.1281H73.112H73.096H73.0799H73.0639H73.0478H73.0318H73.0157H72.9997H72.9836H72.9676H72.9515H72.9354H72.9194H72.9033H72.8873H72.8712H72.8551H72.8391H72.823H72.807H72.7909H72.7748H72.7588H72.7427H72.7266H72.7106H72.6945H72.6784H72.6624H72.6463H72.6302H72.6142H72.5981H72.582H72.566H72.5499H72.5338H72.5177H72.5017H72.4856H72.4695H72.4534H72.4374H72.4213H72.4052H72.3892H72.3731H72.357H72.3409H72.3248H72.3088H72.2927H72.2766H72.2605H72.2445H72.2284H72.2123H72.1962H72.1801H72.1641H72.148H72.1319H72.1158H72.0998H72.0837H72.0676H72.0515H72.0354H72.0194H72.0033H71.9872H71.9711H71.955H71.9389H71.9229H71.9068H71.8907H71.8746H71.8585H71.8425H71.8264H71.8103H71.7942H71.7781H71.762H71.746H71.7299H71.7138H71.6977H71.6816H71.6656H71.6495H71.6334H71.6173H71.6012H71.5852H71.5691H71.553H71.5369H71.5208H71.5047H71.4887H71.4726H71.4565H71.4404H71.4243H71.4083H71.3922H71.3761H71.36H71.344H71.3279H71.3118H71.2957H71.2796H71.2636H71.2475H71.2314H71.2153H71.1993H71.1832H71.1671H71.151H71.135H71.1189H71.1028H71.0867H71.0707H71.0546H71.0385H71.0224H71.0064H70.9903H70.9742H70.9582H70.9421H70.926H70.91H70.8939H70.8778H70.8618H70.8457H70.8296H70.8136H70.7975H70.7814H70.7654H70.7493H70.7332H70.7172H70.7011H70.6851H70.669H70.6529H70.6369H70.6208H70.6048H70.5887H70.5727H70.5566H70.5405H70.5245H70.5084H70.4924H70.4763H70.4603H70.4442H70.4282H70.4121H70.3961H70.38H70.364H70.3479H70.3319H70.3159H70.2998H70.2838H70.2677H70.2517H70.2356H70.2196H70.2036H70.1875H70.1715H70.1555H70.1394H70.1234H70.1074H70.0913H70.0753H70.0593H70.0432H70.0272H70.0112H69.9952H69.9791H69.9631H69.9471H69.9311H69.9151H69.899H69.883H69.867H69.851H69.835H69.819H69.8029H69.7869H69.7709H69.7549H69.7389H69.7229H69.7069H69.6909H69.6749H69.6589H69.6429H69.6269H69.6109H69.5949H69.5789H69.5629H69.5469H69.5309H69.5149H69.4989H69.483H69.467H69.451H69.435H69.419H69.403H69.3871H69.3711H69.3551H69.3391H69.3232H69.3072H69.2912H69.2752H69.2593H69.2433H69.2273H69.2114H69.1954H69.1795H69.1635H69.1475H69.1316H69.1156H69.0997H69.0837H69.0678H69.0518H69.0359H69.0199H69.004H68.988H68.9721H68.9562H68.9402H68.9243H68.9084H68.8924H68.8765H68.8606H68.8446H68.8287H68.8128H68.7969H68.7809H68.765H68.7491H68.7332H68.7173H68.7014H68.6855H68.6695H68.6536H68.6377H68.6218H68.6059H68.59H68.5741H68.5582H68.5423H68.5264H68.5106H68.4947H68.4788H68.4629H68.447H68.4311H68.4153H68.3994H68.3835H68.3676H68.3518H68.3359H68.32H68.3042H68.2883H68.2724H68.2566H68.2407H68.2249H68.209H68.1932H68.1773H68.1615H68.1456H68.1298H68.1139H68.0981H68.0823H68.0664H68.0506H68.0348H68.019H68.0031H67.9873H67.9715H67.9557H67.9398H67.924H67.9082H67.8924H67.8766H67.8608H67.845H67.8292H67.8134H67.7976H67.7818H67.766H67.7502H67.7344H67.7187H67.7029H67.6871C66.0684 88.003 65.0234 87.5993 64.3783 86.7432C63.7197 85.869 63.432 84.4668 63.4835 82.3555ZM77.8621 84.1174L78.034 84.0142L77.9706 83.8239L77.9658 83.8095C77.8659 83.5098 77.7579 83.1858 77.6463 82.9626L77.5772 82.8244H77.4227H77.4051H77.3875H77.3699H77.3523H77.3347H77.3171H77.2995H77.2819H77.2643H77.2467H77.2291H77.2115H77.1939H77.1763H77.1587H77.1411H77.1235H77.1059H77.0883H77.0707H77.0531H77.0355H77.018H77.0004H76.9828H76.9652H76.9476H76.93H76.9124H76.8948H76.8772H76.8596H76.842H76.8244H76.8068H76.7892H76.7716H76.754H76.7364H76.7188H76.7012H76.6836H76.666H76.6484H76.6308H76.6132H76.5956H76.5781H76.5605H76.5429H76.5253H76.5077H76.4901H76.4725H76.4549H76.4373H76.4197H76.4021H76.3845H76.3669H76.3494H76.3318H76.3142H76.2966H76.279H76.2614H76.2438H76.2262H76.2086H76.1911H76.1735H76.1559H76.1383H76.1207H76.1031H76.0855H76.068H76.0504H76.0328H76.0152H75.9976H75.98H75.9625H75.9449H75.9273H75.9097H75.8921H75.8745H75.857H75.8394H75.8218H75.8042H75.7866H75.7691H75.7515H75.7339H75.7163H75.6988H75.6812H75.6636H75.646H75.6284H75.6109H75.5933H75.5757H75.5582H75.5406H75.523H75.5054H75.4879H75.4703H75.4527H75.4352H75.4176H75.4H75.3825H75.3649H75.3473H75.3297H75.3122H75.2946H75.2771H75.2595H75.2419H75.2244H75.2068H75.1892H75.1717H75.1541H75.1366H75.119H75.1014H75.0839H75.0663H75.0488H75.0312H75.0137H74.9961H74.9785H74.961H74.9434H74.9259H74.9083H74.8908H74.8732H74.8557H74.8381H74.8206H74.803H74.7855H74.7679H74.7504H74.7329H74.7153H74.6978H74.6802H74.6627H74.6451H74.6276H74.6101H74.5925H74.575H74.5574H74.5399H74.5224H74.5048H74.4873H74.4698H74.4522H74.4347H74.4172H74.3996H74.3821H74.3646H74.347H74.3295H74.312H74.2945H74.2769H74.2594H74.2419H74.2244H74.2068H74.1893H74.1718H74.1543H74.1368H74.1193H74.1017H74.0842H74.0667H74.0492H74.0317H74.0142H73.9967H73.9791H73.9616H73.9441H73.9266H73.9091H73.8916H73.8741H73.8566H73.8391H73.8216H73.8041H73.7866H73.7691H73.7516H73.7341H73.7166H73.6991H73.6816H73.6641H73.6466H73.6291H73.6116H73.5942H73.5767H73.5592H73.5417H73.5242H73.5067H73.4892H73.4718H73.4543H73.4368H73.4193H73.4018H73.3844H73.3669H73.3494H73.3319H73.3145H73.297H73.2795H73.2621H73.2446H73.2271H73.2097H73.1922H73.1747H73.1573H73.1398H73.1223H73.1049H73.0874H73.07H73.0525H73.0351H73.0176H73.0001H72.9827H72.9652H72.9478H72.9303H72.9129H72.8955H72.878H72.8606H72.8431H72.8257H72.8082H72.7908H72.7734H72.7559H72.7385H72.7211H72.7036H72.6862H72.6688H72.6513H72.6339H72.6165H72.5991H72.5816H72.5642H72.5468H72.5294H72.512H72.4946H72.4771H72.4597H72.4423H72.4249H72.4075H72.3901H72.3727H72.3553H72.3379H72.3205H72.3031H72.2857H72.2683H72.2509H72.2335H72.2161H72.1987H72.1813H72.1639H72.1465H72.1291H72.1117H72.0943H72.077H72.0596H72.0422H72.0248H72.0074H71.9901H71.9727H71.9553H71.9379H71.9206H71.9032H71.8858H71.8685H71.8511H71.8337H71.8164H71.799H71.7816H71.7643H71.7469H71.7296H71.7122H71.6949H71.6775H71.6602H71.6428H71.6255H71.6081H71.5908H71.5734H71.5561H71.5388H71.5214H71.5041H71.4868H71.4694H71.4521H71.4348H71.4174H71.4001H71.3828H71.3655H71.3481H71.3308H71.3135H71.2962H71.2789H71.2616H71.2443H71.2269H71.2096H71.1923H71.175H71.1577H71.1404H71.1231H71.1058H71.0885H71.0712H71.0539H71.0366H71.0194H71.0021H70.9848H70.9675H70.9502H70.9329H70.9157H70.8984H70.8811H70.8638H70.8466H70.8293H70.812H70.7947H70.7775H70.7602H70.743H70.7257H70.7084H70.6912H70.6739H70.6567H70.6394H70.6222H70.6049H70.5877H70.5704H70.5532H70.536H70.5187H70.5015H70.4842H70.467H70.4498H70.4325H70.4153H70.3981H70.3809H70.3636H70.3464H70.3292H70.312H70.2948H70.2776H70.2604H70.2431H70.2259H70.2087H70.1915H70.1743H70.1571H70.1399H70.1227H70.1055H70.0884H70.0712H70.054H70.0368H70.0196H70.0024H69.9852H69.9681H69.9509H69.9337H69.9165H69.8994H69.8822H69.865H69.8479H69.8307H69.8136H69.7964H69.7792H69.7621H69.7449H69.7278H69.7106H69.6935H69.6764H69.6592H69.6421H69.6249H69.6078H69.5907H69.5735H69.5564H69.5393H69.5222H69.505H69.4879H69.4708H69.4537H69.4366H69.4194H69.4023H69.3852H69.3681H69.351H69.3339H69.3168H69.2997H69.2826H69.2655H69.2484H69.2314H69.2143H69.1972H69.1801H69.163H69.1459H69.1289H69.1118H69.0947H69.0777H69.0606H69.0435H69.0265H69.0094H68.9923H68.9753H68.9582H68.9412H68.9241H68.9071H68.89H68.873H68.856H68.8389H68.8219H68.8049H68.7878H68.7708H68.7538H68.7368H68.7197H68.7027H68.6857H68.6687H68.6517H68.6347H68.6177H68.6006H68.5836H68.5666H68.5496H68.5327H68.5157C68.2292 82.8244 67.9688 82.9658 67.7526 83.1144C67.6412 83.191 67.5317 83.2767 67.4277 83.3596C67.4061 83.3768 67.3848 83.3938 67.3637 83.4107C67.2812 83.4767 67.2022 83.5399 67.1228 83.5994L66.8561 83.7994L67.1228 83.9994C67.2122 84.0665 67.3059 84.1537 67.4081 84.2543C67.4396 84.2853 67.4726 84.3183 67.5063 84.352C67.5771 84.4227 67.6514 84.497 67.7233 84.5644C67.831 84.6654 67.9493 84.7666 68.0749 84.8431C68.1987 84.9186 68.346 84.9802 68.5101 84.9815C71.1029 85.0851 73.5924 85.0851 76.1852 84.9816C76.52 84.9798 76.83 84.8143 77.0929 84.6434C77.2089 84.568 77.3249 84.4851 77.4356 84.4061C77.4539 84.393 77.4721 84.38 77.4901 84.3671C77.6195 84.2749 77.7419 84.1895 77.8621 84.1174Z" fill="#4F8AD8" stroke="#4F8AD8" stroke-width="0.5"/>
<path d="M41.3181 82.1689L41.3181 82.1689L41.3184 82.1649C41.4171 81.0795 41.8055 80.4042 42.3918 79.9903C42.9888 79.5689 43.831 79.3896 44.8943 79.3888C46.6601 79.4923 48.5276 79.4923 50.2833 79.4923H50.2872H50.2988H50.3103H50.3218H50.3334H50.3449H50.3565H50.368H50.3796H50.3911H50.4027H50.4142H50.4258H50.4373H50.4489H50.4605H50.472H50.4836H50.4952H50.5067H50.5183H50.5299H50.5415H50.5531H50.5646H50.5762H50.5878H50.5994H50.611H50.6226H50.6342H50.6458H50.6574H50.669H50.6806H50.6922H50.7038H50.7154H50.727H50.7386H50.7503H50.7619H50.7735H50.7851H50.7967H50.8084H50.82H50.8316H50.8433H50.8549H50.8665H50.8782H50.8898H50.9015H50.9131H50.9247H50.9364H50.948H50.9597H50.9713H50.983H50.9947H51.0063H51.018H51.0296H51.0413H51.053H51.0646H51.0763H51.088H51.0996H51.1113H51.123H51.1347H51.1464H51.158H51.1697H51.1814H51.1931H51.2048H51.2165H51.2282H51.2399H51.2515H51.2632H51.2749H51.2866H51.2983H51.31H51.3217H51.3334H51.3452H51.3569H51.3686H51.3803H51.392H51.4037H51.4154H51.4271H51.4389H51.4506H51.4623H51.474H51.4858H51.4975H51.5092H51.5209H51.5327H51.5444H51.5561H51.5679H51.5796H51.5913H51.6031H51.6148H51.6266H51.6383H51.65H51.6618H51.6735H51.6853H51.697H51.7088H51.7205H51.7323H51.744H51.7558H51.7676H51.7793H51.7911H51.8028H51.8146H51.8263H51.8381H51.8499H51.8616H51.8734H51.8852H51.8969H51.9087H51.9205H51.9323H51.944H51.9558H51.9676H51.9794H51.9911H52.0029H52.0147H52.0265H52.0383H52.05H52.0618H52.0736H52.0854H52.0972H52.109H52.1207H52.1325H52.1443H52.1561H52.1679H52.1797H52.1915H52.2033H52.2151H52.2269H52.2387H52.2505H52.2623H52.2741H52.2859H52.2977H52.3095H52.3213H52.3331H52.3449H52.3567H52.3685H52.3803H52.3921H52.4039H52.4157H52.4275H52.4393H52.4511H52.463H52.4748H52.4866H52.4984H52.5102H52.522H52.5338H52.5457H52.5575H52.5693H52.5811H52.5929H52.6047H52.6166H52.6284H52.6402H52.652H52.6638H52.6757H52.6875H52.6993H52.7111H52.7229H52.7348H52.7466H52.7584H52.7702H52.7821H52.7939H52.8057H52.8175H52.8294H52.8412H52.853H52.8648H52.8767H52.8885H52.9003H52.9122H52.924H52.9358H52.9476H52.9595H52.9713H52.9831H52.995H53.0068H53.0186H53.0305H53.0423H53.0541H53.066H53.0778H53.0896H53.1015H53.1133H53.1251H53.137H53.1488H53.1606H53.1725H53.1843H53.1961H53.208H53.2198H53.2316H53.2435H53.2553H53.2671H53.279H53.2908H53.3026H53.3145H53.3263H53.3381H53.35H53.3618H53.3736H53.3855H53.3973H53.4091H53.421H53.4328H53.4446H53.4565H53.4683H53.4801H53.492H53.5038H53.5156H53.5275H53.5393H53.5511H53.5629H53.5748H53.5866H53.5984H53.6103H53.6221H53.6339H53.6458H53.6576H53.6694H53.6812H53.6931H53.7049H53.7167H53.7286H53.7404H53.7522H53.764H53.7759H53.7877H53.7995H53.8113H53.8232H53.835H53.8468H53.8586H53.8705H53.8823H53.8941H53.9059H53.9177H53.9296H53.9414H53.9532H53.965H53.9768H53.9887H54.0005H54.0123H54.0241H54.0359H54.0477H54.0596H54.0714H54.0832H54.095H54.1068H54.1186H54.1304H54.1422H54.1541H54.1659H54.1777H54.1895H54.2013H54.2131H54.2249H54.2367H54.2485H54.2603H54.2721H54.2839H54.2957H54.3075H54.3193H54.3311H54.3429H54.3547H54.3665H54.3783H54.3901H54.4019H54.4137H54.4255H54.4373H54.449H54.4608H54.4726H54.4844H54.4962H54.508H54.5198H54.5315H54.5433H54.5551H54.5669H54.5787H54.5904H54.6022H54.614H54.6258H54.6376H54.6493H54.6611H54.6729H54.6846H54.6964H54.7082H54.7199H54.7317H54.7435H54.7552H54.767H54.7788H54.7905H54.8023H54.814H54.8258H54.8375H54.8493H54.861H54.8728H54.8845H54.8963H54.908H54.9198H54.9315H54.9433H54.955H54.9668H54.9785H54.9902H55.002H55.0137H55.0254H55.0372H55.0489H55.0606H55.0724H55.0841H55.0958H55.1075H55.1193H55.131H55.1427H55.1544H55.1662H55.1779H55.1896H55.2013H55.213H55.2247H55.2364H55.2481H55.2598H55.2715H55.2832H55.2949H55.3066H55.3183H55.33H55.3417H55.3534H55.3651H55.3768H55.3885H55.4002H55.4119H55.4235H55.4352H55.4469H55.4586H55.4703H55.4819H55.4936H55.5053H55.5169H55.5286H55.5403H55.5519H55.5636H55.5753H55.5869H55.5986H55.6102H55.6219H55.6335H55.6452H55.6568H55.6685H55.6801H55.6918H55.7034H55.715H55.7267H55.7383H55.75H55.7616H55.7732H55.7848H55.7965H55.8081H55.8197H55.8313H55.8429H55.8546H55.8662H55.8778H55.8894H55.901H55.9126H55.9242H55.9358H55.9474H55.959H55.9706H55.9822H55.9938H56.0054H56.0169H56.0285H56.0401H56.0517H56.0633H56.0748H56.0864H56.098H56.1096H56.1211H56.1327H56.1442H56.1558H56.1674H56.1789H56.1905H56.202H56.2136H56.2251H56.2367H56.2482H56.2597H56.2713H56.2828H56.2889C57.4373 79.5432 58.2163 79.866 58.7121 80.408C59.2106 80.9528 59.4622 81.7618 59.4622 82.8673C59.4622 84.5658 59.2544 85.8328 58.7817 86.6813C58.5481 87.1006 58.2509 87.4155 57.8813 87.6329C57.5112 87.8506 57.0552 87.9784 56.4928 88.0031C52.4598 88.1065 48.5302 88.1065 44.4972 88.0031C43.6408 87.9564 42.7715 87.2445 42.1419 86.1238C41.5181 85.0134 41.1686 83.5634 41.3181 82.1689ZM56.222 84.2171L56.4114 84.0959L56.3108 83.8948C56.2769 83.8271 56.2564 83.7334 56.2288 83.595C56.2278 83.5904 56.2269 83.5857 56.2259 83.5809C56.2022 83.4618 56.1707 83.3038 56.1037 83.1698L56.0346 83.0316H55.8801H55.8594H55.8388H55.8182H55.7975H55.7769H55.7563H55.7357H55.7151H55.6944H55.6738H55.6532H55.6326H55.612H55.5914H55.5708H55.5502H55.5296H55.509H55.4884H55.4678H55.4473H55.4267H55.4061H55.3855H55.3649H55.3444H55.3238H55.3032H55.2826H55.2621H55.2415H55.221H55.2004H55.1798H55.1593H55.1387H55.1182H55.0976H55.0771H55.0565H55.036H55.0154H54.9949H54.9744H54.9538H54.9333H54.9128H54.8922H54.8717H54.8512H54.8306H54.8101H54.7896H54.7691H54.7486H54.728H54.7075H54.687H54.6665H54.646H54.6255H54.605H54.5845H54.564H54.5435H54.523H54.5025H54.482H54.4615H54.441H54.4205H54.4H54.3795H54.3591H54.3386H54.3181H54.2976H54.2771H54.2567H54.2362H54.2157H54.1953H54.1748H54.1543H54.1338H54.1134H54.0929H54.0725H54.052H54.0315H54.0111H53.9906H53.9702H53.9497H53.9293H53.9088H53.8884H53.8679H53.8475H53.827H53.8066H53.7862H53.7657H53.7453H53.7248H53.7044H53.684H53.6635H53.6431H53.6227H53.6023H53.5818H53.5614H53.541H53.5206H53.5001H53.4797H53.4593H53.4389H53.4185H53.3981H53.3776H53.3572H53.3368H53.3164H53.296H53.2756H53.2552H53.2348H53.2144H53.194H53.1736H53.1532H53.1328H53.1124H53.092H53.0716H53.0512H53.0308H53.0104H52.99H52.9696H52.9492H52.9288H52.9085H52.8881H52.8677H52.8473H52.8269H52.8065H52.7862H52.7658H52.7454H52.725H52.7046H52.6843H52.6639H52.6435H52.6231H52.6028H52.5824H52.562H52.5417H52.5213H52.5009H52.4805H52.4602H52.4398H52.4194H52.3991H52.3787H52.3584H52.338H52.3176H52.2973H52.2769H52.2566H52.2362H52.2158H52.1955H52.1751H52.1548H52.1344H52.1141H52.0937H52.0734H52.053H52.0327H52.0123H51.992H51.9716H51.9513H51.9309H51.9106H51.8902H51.8699H51.8495H51.8292H51.8088H51.7885H51.7681H51.7478H51.7275H51.7071H51.6868H51.6664H51.6461H51.6257H51.6054H51.5851H51.5647H51.5444H51.524H51.5037H51.4834H51.463H51.4427H51.4224H51.402H51.3817H51.3614H51.341H51.3207H51.3003H51.28H51.2597H51.2393H51.219H51.1987H51.1783H51.158H51.1377H51.1173H51.097H51.0767H51.0564H51.036H51.0157H50.9954H50.975H50.9547H50.9344H50.914H50.8937H50.8734H50.853H50.8327H50.8124H50.7921H50.7717H50.7514H50.7311H50.7107H50.6904H50.6701H50.6497H50.6294H50.6091H50.5888H50.5684H50.5481H50.5278H50.5074H50.4871H50.4668H50.4464H50.4261H50.4058H50.3855H50.3651H50.3448H50.3245H50.3041H50.2838H50.2635H50.2431H50.2228H50.2025H50.1821H50.1618H50.1415H50.1211H50.1008H50.0805H50.0601H50.0398H50.0195H49.9991H49.9788H49.9585H49.9381H49.9178H49.8975H49.8771H49.8568H49.8365H49.8161H49.7958H49.7754H49.7551H49.7348H49.7144H49.6941H49.6737H49.6534H49.6331H49.6127H49.5924H49.572H49.5517H49.5314H49.511H49.4907H49.4703H49.45H49.4296H49.4093H49.3889H49.3686H49.3482H49.3279H49.3075H49.2872H49.2668H49.2465H49.2261H49.2058H49.1854H49.1651H49.1447H49.1244H49.104H49.0836H49.0633H49.0429H49.0226H49.0022H48.9819H48.9615H48.9411H48.9208H48.9004H48.88H48.8597H48.8393H48.8189H48.7986H48.7782H48.7578H48.7375H48.7171H48.6967H48.6763H48.656H48.6356H48.6152H48.5948H48.5745H48.5541H48.5337H48.5133H48.493H48.4726H48.4522H48.4318H48.4114H48.391H48.3706H48.3503H48.3299H48.3095H48.2891H48.2687H48.2483H48.2279H48.2075H48.1871H48.1667H48.1463H48.1259H48.1055H48.0851H48.0647H48.0443H48.0239H48.0035H47.9831H47.9627H47.9423H47.9218H47.9014H47.881H47.8606H47.8402H47.8198H47.7993H47.7789H47.7585H47.7381H47.7177H47.6972H47.6768H47.6564H47.6359H47.6155H47.5951H47.5746H47.5542H47.5338H47.5133H47.4929H47.4724H47.452H47.4316H47.4111H47.3907H47.3702H47.3498H47.3293H47.3089H47.2884H47.2679H47.2475H47.227H47.2066H47.1861H47.1656H47.1452H47.1247H47.1042H47.0838H47.0633H47.0428H47.0223H47.0019H46.9814H46.9609H46.9404H46.9199H46.8995H46.879H46.8585H46.838H46.8175H46.797H46.7765H46.756H46.7355H46.715H46.6945H46.674H46.6535H46.633H46.6125H46.592H46.5714H46.5509H46.5304H46.5099H46.4894H46.4688H46.4483H46.4278H46.4073H46.3867H46.3662H46.3457H46.3251H46.3046H46.2841H46.2635H46.243H46.2224H46.2019H46.1813H46.1608H46.1402H46.1197H46.0991H46.0785H46.058H46.0374H46.0168H45.9963H45.9757H45.9551H45.9345H45.914H45.8934H45.8728H45.8522H45.8316H45.811H45.7905H45.7699H45.7493H45.7287H45.7081H45.6875H45.6669H45.6463H45.6256H45.605H45.5844H45.5638H45.5432H45.5226H45.5019H45.4813H45.4607H45.4401H45.4194H45.2392L45.1823 83.2025C45.1242 83.3766 45.0956 83.5483 45.0705 83.6992L45.0693 83.7065C45.0429 83.8646 45.0197 84.0008 44.9751 84.1347L44.8898 84.3908L45.1517 84.4562C45.3516 84.5062 45.5593 84.5691 45.7768 84.6356C45.7902 84.6398 45.8037 84.6439 45.8173 84.6481C46.0203 84.7102 46.2314 84.7748 46.443 84.8308C46.8912 84.9495 47.3684 85.0373 47.8308 84.9799C48.5076 84.9048 49.1954 84.9231 49.8952 84.9697C50.1674 84.9878 50.4456 85.0106 50.7256 85.0335C51.1544 85.0686 51.5876 85.1041 52.0105 85.1237C53.4268 85.1893 54.8621 85.0874 56.222 84.2171Z" fill="#4F8AD8" stroke="#4F8AD8" stroke-width="0.5"/>
<path d="M69.3162 57.681L69.3165 57.6816C70.5101 60.964 68.929 64.3752 65.9917 66.401L65.9917 66.4009L65.9883 66.4033C63.1765 68.4117 59.4571 68.4153 56.5357 66.5017C53.5143 64.4869 52.2148 61.1769 53.1183 57.7637L53.1191 57.7603C53.633 55.7049 54.3531 53.6461 55.1786 51.5822C56.419 48.757 57.7495 46.0273 59.0824 43.2925C59.7328 41.9581 60.3838 40.6225 61.0252 39.274C61.3031 39.2175 61.5794 39.2062 61.8244 39.204C62.3919 40.5647 62.9638 41.9199 63.5348 43.2728C65.5517 48.0517 67.5573 52.8038 69.3162 57.681ZM62.0162 47.4582L61.9539 47.2998H61.7836H61.7818H61.78H61.7782H61.7764H61.7745H61.7727H61.7709H61.7691H61.7673H61.7654H61.7636H61.7618H61.76H61.7582H61.7563H61.7545H61.7527H61.7509H61.7491H61.7472H61.7454H61.7436H61.7418H61.7399H61.7381H61.7363H61.7345H61.7327H61.7308H61.729H61.7272H61.7254H61.7236H61.7217H61.7199H61.7181H61.7163H61.7145H61.7126H61.7108H61.709H61.7072H61.7054H61.7035H61.7017H61.6999H61.6981H61.6963H61.6944H61.6926H61.6908H61.689H61.6872H61.6853H61.6835H61.6817H61.6799H61.678H61.6762H61.6744H61.6726H61.6708H61.6689H61.6671H61.6653H61.6635H61.6617H61.6598H61.658H61.6562H61.6544H61.6526H61.6507H61.6489H61.6471H61.6453H61.6435H61.6416H61.6398H61.638H61.6362H61.6344H61.6325H61.6307H61.6289H61.6271H61.6253H61.6234H61.6216H61.6198H61.618H61.6161H61.6143H61.6125H61.6107H61.6089H61.607H61.6052H61.6034H61.6016H61.5998H61.5979H61.5961H61.5943H61.5925H61.5907H61.5888H61.587H61.5852H61.5834H61.5816H61.5797H61.5779H61.5761H61.5743H61.5725H61.5706H61.5688H61.567H61.5652H61.5634H61.5615H61.5597H61.5579H61.5561H61.5543H61.5524H61.5506H61.5488H61.547H61.5451H61.5433H61.5415H61.5397H61.5379H61.536H61.5342H61.5324H61.5306H61.5288H61.5269H61.5251H61.5233H61.5215H61.5197H61.5178H61.516H61.5142H61.5124H61.5106H61.5087H61.5069H61.5051H61.5033H61.5015H61.4996H61.4978H61.496H61.4942H61.4924H61.4905H61.4887H61.4869H61.4851H61.4832H61.4814H61.4796H61.4778H61.476H61.4741H61.4723H61.4705H61.4687H61.4669H61.465H61.4632H61.4614H61.4596H61.4578H61.4559H61.4541H61.4523H61.4505H61.4487H61.4468H61.445H61.4432H61.4414H61.4396H61.4377H61.4359H61.4341H61.4323H61.4305H61.4286H61.4268H61.425H61.4232H61.4213H61.4195H61.4177H61.4159H61.4141H61.4122H61.4104H61.4086H61.4068H61.405H61.4031H61.4013H61.3995H61.3977H61.3959H61.394H61.3922H61.3904H61.3886H61.3868H61.3849H61.3831H61.3813H61.3795H61.3777H61.3758H61.374H61.3722H61.3704H61.3686H61.3667H61.3649H61.3631H61.3613H61.3594H61.3576H61.3558H61.354H61.3522H61.3503H61.3485H61.3467H61.3449H61.3431H61.3412H61.3394H61.3376H61.3358H61.334H61.3321H61.3303H61.3285H61.3267H61.3249H61.323H61.3212H61.3194H61.3176H61.3158H61.3139H61.3121H61.3103H61.3085H61.3067H61.3048H61.303H61.3012H61.2994H61.2975H61.2957H61.2939H61.2921H61.2903H61.2884H61.2866H61.2848H61.283H61.2812H61.2793H61.2775H61.2757H61.2739H61.2721H61.2702H61.2684H61.2666H61.2648H61.263H61.2611H61.2593H61.2575H61.2557H61.2539H61.252H61.2502H61.2484H61.2466H61.2448H61.2429H61.2411H61.2393H61.2375H61.2356H61.2338H61.232H61.2302H61.2284H61.2265H61.2247H61.2229H61.2211H61.2193H61.2174H61.2156H61.2138H61.212H61.2102H61.2083H61.2065H61.2047H61.2029H61.2011H61.1992H61.1974H61.1956H61.1938H61.192H61.1901H61.1883H61.1865H61.1847H61.1829H61.181H61.1792H61.1774H61.1756H61.1737H61.1719H61.1701H61.1683H61.1665H61.1646H61.1628H61.161H61.1592H61.1574H61.1555H61.1537H61.1519H61.1501H61.1483H61.1464H61.1446H61.1428H61.141H61.1392H61.1373H61.1355H61.1337H61.1319H61.1301H61.1282H61.1264H61.1246H61.1228H61.121H61.1191H61.1173H61.1155H61.1137H61.1118H61.11H61.1082H61.1064H61.1046H61.1027H61.1009H61.0991H61.0973H61.0955H61.0936H61.0918H61.09H61.0882H61.0864H61.0845H61.0827H61.0809H61.0791H61.0773H61.0754H61.0736H61.0718H61.07H61.0682H61.0663H61.0645H61.0627H61.0609H61.0591H61.0572H61.0554H61.0536H61.0518H61.0499H61.0481H61.0463H61.0445H61.0427H61.0408H61.039H61.0372H61.0354H61.0336H61.0317H61.0299H61.0281H61.0263H61.0245H61.0226H61.0208H61.019H61.0172H61.0154H61.0135H61.0117H61.0099H61.0081H61.0063H61.0044H61.0026H61.0008H60.999H60.9972H60.9953H60.9935H60.9917H60.9899H60.9881H60.9862H60.9844H60.9826H60.9808H60.9789H60.9771H60.9753H60.9735H60.9717H60.9698H60.968H60.9662H60.9644H60.9626H60.9607H60.9589H60.9571H60.9553H60.9535H60.9516H60.9498H60.948H60.9462H60.9444H60.9425H60.9407H60.9389H60.9371H60.9353H60.9334H60.9316H60.9298H60.928H60.9262H60.9243H60.9225H60.9207H60.9189H60.917H60.9152H60.9134H60.9116H60.9098H60.9079H60.9061H60.9043H60.9025H60.9007H60.8988H60.897H60.8952H60.8934H60.8916H60.8897H60.8879H60.8861H60.8843H60.8825H60.8806H60.8788H60.877H60.8752H60.8734H60.8715H60.8697H60.8679H60.8661H60.8643H60.8624H60.8606H60.8588H60.857H60.8551H60.8533H60.8515H60.6841L60.6203 47.4546C60.4356 47.9034 60.2507 48.3506 60.0662 48.797C58.8046 51.8493 57.5598 54.8611 56.4729 58.0307C56.0418 59.2177 56.0372 60.3138 56.3963 61.2941C56.7542 62.2716 57.4652 63.1116 58.4266 63.8059C59.391 64.5024 60.3745 64.8639 61.3728 64.8501C62.3715 64.8362 63.3548 64.4471 64.3193 63.697C65.2765 62.9524 65.9612 62.1127 66.2924 61.1468C66.6248 60.1772 66.5916 59.1079 66.1614 57.925L66.1608 57.9234C65.2926 55.5858 64.3798 53.3304 63.481 51.1097C62.9852 49.8847 62.4937 48.6701 62.0162 47.4582Z" fill="#4F8AD8" stroke="#4F8AD8" stroke-width="0.5"/>
<rect x="2" y="2" width="119" height="119" rx="17" stroke="#4F8AD8" stroke-width="4"/>
</svg>
