<svg width="124" height="123" viewBox="0 0 124 123" fill="none" xmlns="http://www.w3.org/2000/svg">
<path d="M76.5731 14.5594L76.6982 14.8752C76.7718 15.0609 76.8531 15.2366 76.9406 15.4259C76.9876 15.5276 77.0365 15.6332 77.0869 15.7464C77.2225 16.0507 77.3592 16.3894 77.4293 16.7433L77.4307 16.7502L77.4319 16.7572C77.7863 18.8568 78.1207 20.9496 78.4546 23.0399C78.9546 26.169 79.4537 29.2925 80.0176 32.4249L80.0184 32.4293C80.6057 35.8688 81.237 39.2941 81.8691 42.7155L81.9267 43.0272C82.5393 46.3435 83.1514 49.6565 83.722 52.9699L83.7221 52.9702C83.8072 53.4669 83.894 53.9646 83.9811 54.4633C84.4328 57.0519 84.8896 59.6702 85.138 62.3289L85.1385 62.3343C85.2221 63.3474 85.4773 63.8281 85.8129 64.0873C86.1709 64.3637 86.7407 64.4876 87.6972 64.4876C88.4097 64.4876 89.1068 64.6348 89.8355 64.8225C90.0738 64.8839 90.3139 64.9492 90.5607 65.0162C91.0852 65.1587 91.6401 65.3095 92.273 65.4493L93.3939 65.6969L92.4492 66.349C90.0326 68.0171 87.5994 68.4219 85.6138 67.6905C83.6221 66.9569 82.204 65.1253 81.7381 62.5844L81.7376 62.5822C81.3529 60.4305 81.0723 58.2668 80.8077 56.1138C80.7643 55.7612 80.7214 55.409 80.6785 55.0571C80.4593 53.2573 80.2413 51.4675 79.972 49.6875C78.8398 42.4639 77.6626 35.2858 76.4795 28.0715C76.3449 27.2508 76.2102 26.4296 76.0755 25.6077C75.243 31.6936 74.4104 37.7539 73.5752 43.833C72.0532 54.9112 70.5226 66.0517 68.9687 77.522L68.841 78.4647L68.1369 77.8249C67.7784 77.499 67.4731 77.2404 67.1896 77.0003C67.0008 76.8404 66.8217 76.6888 66.643 76.5309C66.2224 76.1591 65.8532 75.7929 65.578 75.3418C65.0905 74.554 64.6611 73.714 64.2418 72.894C64.1444 72.7035 64.0475 72.514 63.9506 72.3265C63.4304 71.3203 62.9031 70.3589 62.2549 69.5051L62.2517 69.5009C61.6658 68.7119 60.4457 68.1136 59.3716 67.9299C59.35 67.9454 59.3201 67.9695 59.2821 68.0056C59.1609 68.121 59.0136 68.3043 58.8587 68.5372C58.5513 68.9993 58.2686 69.5736 58.1371 69.9928C57.4335 72.7169 56.759 75.4413 56.0838 78.1687L56.0837 78.1691C55.4078 80.8995 54.7311 83.6327 54.0249 86.3663L54.0227 86.375L54.0201 86.3837C53.8913 86.8174 53.5829 87.1471 53.3073 87.4022C53.1933 87.5077 53.0707 87.6128 52.9554 87.7116C52.9281 87.735 52.9013 87.758 52.875 87.7806C52.7331 87.9028 52.6026 88.0181 52.4852 88.1366L52.1054 88.5201L51.752 88.1123C51.6247 87.9653 51.4875 87.8404 51.3291 87.6963C51.2583 87.6319 51.1833 87.5636 51.1031 87.4878C50.8675 87.2652 50.598 86.9851 50.4377 86.6208L50.431 86.6055L50.4253 86.5898C47.3685 78.1602 44.3108 69.7283 41.3119 61.2367C40.772 59.7269 40.2893 58.2134 39.704 56.3783C39.5655 55.944 39.4212 55.4917 39.2691 55.0172C39.0507 55.4307 38.8349 55.8232 38.6296 56.1967C38.4489 56.5255 38.2763 56.8396 38.117 57.1402C37.6151 58.0878 37.2303 58.929 37.0395 59.8097L37.0382 59.8159L37.0381 59.8159C36.2566 63.2158 34.8221 65.5844 32.6846 66.9114C30.5506 68.2364 27.8172 68.4597 24.5747 67.7927L24.566 67.7909L24.566 67.7908C24.3885 67.751 24.183 67.7558 23.7896 67.7933C23.7215 67.7998 23.649 67.8071 23.5716 67.8148C23.4172 67.8304 23.2436 67.8478 23.0478 67.8647C23.3189 68.2793 23.5691 68.6793 23.8071 69.0597C23.9316 69.2586 24.0527 69.4523 24.1717 69.6398C24.654 70.3999 25.1062 71.0683 25.6358 71.6594L25.6399 71.664L25.6399 71.664C35.3076 82.7286 46.3841 92.1396 58.5797 100.251C59.3919 100.789 60.0954 101.063 60.754 101.088C61.3995 101.113 62.0673 100.899 62.8192 100.33C64.8609 98.7483 66.9179 97.2024 68.9691 95.6609C73.7951 92.0341 78.5885 88.4317 83.0733 84.4428C86.9769 80.9671 90.4795 77.0449 94.0021 73.1003C95.3868 71.5497 96.7746 69.9956 98.1911 68.4639C98.195 68.4467 98.2018 68.4105 98.2071 68.3453C98.2119 68.2873 98.2148 68.2255 98.2184 68.1479C98.2189 68.1386 98.2193 68.129 98.2198 68.1192C97.8142 68.0369 97.4135 67.9603 97.0096 67.8831L97.0069 67.8826C96.4647 67.779 95.9168 67.6743 95.3534 67.5546L95.0912 67.4988L94.9925 67.2496L94.8161 66.8044L94.6398 66.3591L94.4569 65.8974L94.9174 65.7114C95.1837 65.6038 95.4426 65.4588 95.7299 65.298C95.8892 65.2087 96.0573 65.1146 96.2404 65.0192C96.6869 64.7864 97.264 64.5248 97.8269 64.6123L97.8354 64.6136L97.8354 64.6137C98.7826 64.7777 99.4812 64.6594 100.009 64.3598C100.539 64.0592 100.962 63.5394 101.286 62.7773C105.849 51.5159 102.363 37.6514 89.7345 32.2014C88.8823 31.8408 87.9493 31.6554 86.9517 31.485C86.8177 31.4622 86.6824 31.4395 86.5461 31.4167C85.6831 31.2724 84.7772 31.121 83.906 30.8544L83.9039 30.8537C83.4051 30.6987 82.9811 30.3455 82.6328 30.0237C82.511 29.9112 82.3985 29.8028 82.2911 29.6994C82.0624 29.4792 81.8568 29.2813 81.634 29.1125L80.9724 28.6114L81.7247 28.2607C81.8902 28.1836 82.0693 28.0804 82.2695 27.9604C82.3109 27.9356 82.3535 27.9099 82.397 27.8836C82.5556 27.7879 82.7255 27.6852 82.8925 27.5933C83.2938 27.3722 83.8299 27.1207 84.3704 27.2116L84.3727 27.212C94.8432 29.0246 103.967 36.9458 105.769 48.1659C105.769 48.1661 105.769 48.1664 105.769 48.1667L105.275 48.2459C106.098 53.2328 105.981 57.9822 103.864 62.6129L76.5731 14.5594ZM76.5731 14.5594H76.2334C75.8199 14.5594 75.4378 14.5589 75.0026 14.5039L74.5133 14.4422L74.4449 14.9306C73.1226 24.3666 71.8003 33.8174 70.4781 43.2682L70.4766 43.2788C69.1986 52.4132 67.9206 61.5476 66.6426 70.6686M76.5731 14.5594L66.6426 70.6686M66.6426 70.6686C66.0986 70.0727 65.7326 69.445 65.348 68.7853C65.2421 68.6037 65.1348 68.4196 65.022 68.2332C64.9653 68.1378 64.9084 68.0411 64.8509 67.9435C64.3882 67.1575 63.8919 66.3147 63.2362 65.6525C62.4715 64.8803 61.4847 64.3427 60.0782 64.3097L60.0758 64.3096C58.3948 64.2782 57.0736 64.7053 56.1092 65.7731C55.1702 66.8128 54.6379 68.3886 54.3396 70.4947C53.8714 73.5081 53.2859 76.4649 52.6408 79.4263L52.6407 79.4263L52.6388 79.4356C52.5693 79.7867 52.3905 80.1381 52.1199 80.5625C52.025 80.7113 51.9093 80.8823 51.7848 81.0664C51.7695 81.0891 51.7541 81.1119 51.7385 81.1349C51.0624 79.1818 50.3989 77.2416 49.7391 75.3124C46.7509 66.5747 43.8398 58.0624 40.1845 49.5914L39.9126 48.9612L39.3961 49.4132C39.0164 49.7455 38.7294 49.962 38.5032 50.1327C38.476 50.1532 38.4496 50.173 38.4241 50.1924L38.4198 50.1956C38.2032 50.3597 37.972 50.5348 37.8259 50.7808L37.8161 50.7972L37.8076 50.8143C37.5992 51.2353 37.3735 51.6622 37.144 52.096C36.5008 53.3124 35.8284 54.5839 35.4262 55.9356C34.4606 58.9778 33.2885 61.5335 31.5017 63.1141C29.7542 64.6599 27.3467 65.3326 23.7369 64.4428L23.7266 64.4402L23.7162 64.4381C23.562 64.407 23.4163 64.4186 23.3081 64.4344C23.2127 64.4483 23.1165 64.4706 23.0463 64.4869C23.0372 64.489 23.0286 64.491 23.0204 64.4929C22.9726 64.5039 22.939 64.5109 22.9148 64.5153C22.6566 64.3736 22.3807 64.2395 22.1153 64.1105L22.1052 64.1056C21.8089 63.9617 21.5243 63.8231 21.2595 63.6753C20.7141 63.371 20.3485 63.0769 20.1853 62.7473C16.9683 56.2499 17.1884 49.7576 20.1357 43.0456C23.1833 36.1945 30.3468 29.3037 42.5423 30.8722L42.5458 30.8726C45.5906 31.2427 49.145 33.0513 52.1817 35.7236C55.2152 38.3931 57.6724 41.8723 58.5819 45.5173L58.5838 45.5249L58.5859 45.5324C58.7381 46.0705 59.0899 46.5004 59.4317 46.8609C59.5753 47.0124 59.7117 47.1472 59.8431 47.277C60.0546 47.4859 60.253 47.6819 60.4474 47.914L60.9344 48.4952L61.2768 47.8187C61.6714 47.0389 62.0341 46.3039 62.3799 45.6031C63.2296 43.8808 63.9773 42.3655 64.8466 40.9023C65.6833 39.4941 66.6215 38.2078 67.6469 36.8019C68.119 36.1546 68.6096 35.4819 69.1173 34.7603L69.5911 34.087L68.7751 33.9771C68.4807 33.9374 68.2059 33.8719 67.9369 33.8077C67.8274 33.7816 67.7189 33.7557 67.6104 33.7319C67.44 33.6945 67.25 33.6582 67.0795 33.6554C66.9399 33.6532 66.6336 33.6683 66.434 33.9261C64.9285 35.7845 63.4802 37.6755 61.9485 39.6754C61.474 40.2949 60.9915 40.9249 60.4968 41.5676C57.234 35.5693 52.5375 30.6975 45.6524 28.3015C38.2257 25.68 31.4756 27.6493 25.3368 31.8019C19.9738 35.3926 16.9786 40.8006 15.547 46.8242C14.1701 52.6179 14.4423 58.4945 17.593 64.4215C17.324 64.4175 17.0638 64.4124 16.8111 64.4073C15.6223 64.3837 14.6014 64.3633 13.6274 64.4905C13.1488 64.5342 12.7268 64.7709 12.3877 64.9915C12.2606 65.0743 12.1316 65.1642 12.0112 65.2482C11.9678 65.2784 11.9256 65.3078 11.885 65.3359C11.7248 65.4465 11.5803 65.542 11.4419 65.6183L10.7899 65.9774L11.3689 66.4452C11.4984 66.5498 11.6357 66.6778 11.7882 66.8225C11.805 66.8385 11.8221 66.8547 11.8394 66.8711C11.9727 66.9978 12.1171 67.135 12.2605 67.2587C12.4215 67.3975 12.6029 67.5384 12.7952 67.6411C12.9853 67.7426 13.2301 67.8304 13.5025 67.7998L13.5167 67.7983L13.5308 67.7959C15.7324 67.4205 17.5664 67.5771 19.0235 68.3264C20.4701 69.0704 21.6183 70.4363 22.3807 72.632L22.3862 72.6478L22.3927 72.6633C22.5287 72.9836 22.7837 73.2261 22.9755 73.3974C23.0359 73.4513 23.091 73.4993 23.1415 73.5432C23.2791 73.6629 23.3828 73.7531 23.4668 73.8548L23.4667 73.8549L23.4727 73.8618C33.679 85.7773 45.7078 95.5415 58.7835 104.048C59.2283 104.368 59.8736 104.492 60.4415 104.5C61.0161 104.508 61.6591 104.4 62.1004 104.116L62.1005 104.116L62.1115 104.109C67.166 100.666 72.2945 97.1544 77.1308 93.3425C77.7785 92.832 78.4294 92.3224 79.0815 91.8118C85.6842 86.6419 92.4095 81.376 97.1676 74.1688C98.7196 71.8328 100.287 69.8628 102.19 68.669C104.057 67.4972 106.286 67.0503 109.234 67.8381L66.6426 70.6686ZM22.8661 64.5214C22.8662 64.5213 22.8681 64.5212 22.8716 64.5213C22.8678 64.5215 22.8661 64.5215 22.8661 64.5214ZM59.4075 67.9077C59.4072 67.9079 59.4063 67.9083 59.405 67.9089C59.4072 67.9078 59.408 67.9075 59.4075 67.9077Z" fill="#4F8AD8" stroke="#4F8AD8"/>
<path d="M28.9767 38.3083C28.5414 39.0364 28.2305 39.8765 27.6087 40.4366C24.8727 43.0129 23.1938 45.9813 23.3181 49.6778C23.3181 50.2379 22.4476 50.798 21.9501 51.4141C21.5771 50.854 20.7065 50.2379 20.8309 49.6778C21.5771 45.4213 22.8829 41.3327 26.676 38.3643C27.1112 38.0282 27.733 37.9162 28.2305 37.6922C28.4792 37.9162 28.7279 38.0843 28.9767 38.3083Z" fill="#2F80ED"/>
<path d="M32.3967 34.8918C34.1378 34.3878 35.7545 33.8277 37.3712 33.4916C37.8065 33.3796 38.677 33.7157 38.8636 34.0517C39.1123 34.4438 38.9879 35.1719 38.677 35.5639C37.8065 36.5161 33.7025 36.18 32.3967 34.8918Z" fill="#2F80ED"/>
<rect x="3" y="2" width="119" height="119" rx="17" stroke="#4F8AD8" stroke-width="4"/>
</svg>
