<svg width="123" height="123" viewBox="0 0 123 123" fill="none" xmlns="http://www.w3.org/2000/svg">
<path d="M51.6206 17.8419L51.4565 17.3497L50.9707 17.5318C49.9675 17.908 49.4732 18.4397 49.191 19.0395C49.065 19.3072 48.9864 19.5786 48.9206 19.806L48.9127 19.8333C48.8416 20.0787 48.7831 20.2723 48.6952 20.4481L48.6305 20.5775L48.6449 20.7215C48.8677 22.9487 49.0877 25.375 49.0877 27.5736C49.0877 30.8188 50.2498 33.606 52.3279 35.9175C54.8192 38.8597 58.0679 41.216 62.2923 40.9868C63.0084 40.9852 63.6576 40.8645 64.2295 40.5281C64.8076 40.188 65.2556 39.6577 65.6199 38.9293L65.6357 38.8975L65.647 38.8638C66.0628 37.6163 66.9061 36.3383 68.0027 35.022C70.7825 31.8168 74.6478 30.5092 78.8318 29.8486L78.8334 29.8483C85.5519 28.7647 91.4182 31.1378 96.4571 35.5185C102.582 40.9885 105.878 48.438 106.979 56.3597C107.864 63.4456 107.854 70.6866 104.79 77.6901L104.787 77.6965C103.002 81.9362 101.036 86.2833 97.5717 89.3143L97.5592 89.3252L97.5474 89.337C94.9123 91.9721 91.6135 94.3917 88.3163 96.1504C83.7008 98.5678 78.6558 100.102 73.1776 100.323H73.1708H73.1538H73.1369H73.1199H73.103H73.0861H73.0692H73.0522H73.0353H73.0184H73.0015H72.9846H72.9677H72.9508H72.9339H72.917H72.9002H72.8833H72.8664H72.8496H72.8327H72.8158H72.799H72.7821H72.7653H72.7485H72.7316H72.7148H72.698H72.6812H72.6644H72.6476H72.6307H72.6139H72.5972H72.5804H72.5636H72.5468H72.53H72.5132H72.4965H72.4797H72.463H72.4462H72.4294H72.4127H72.396H72.3792H72.3625H72.3457H72.329H72.3123H72.2956H72.2789H72.2621H72.2454H72.2287H72.212H72.1953H72.1787H72.162H72.1453H72.1286H72.1119H72.0953H72.0786H72.0619H72.0453H72.0286H72.012H71.9953H71.9787H71.962H71.9454H71.9287H71.9121H71.8955H71.8789H71.8622H71.8456H71.829H71.8124H71.7958H71.7792H71.7626H71.746H71.7294H71.7128H71.6962H71.6796H71.6631H71.6465H71.6299H71.6133H71.5968H71.5802H71.5637H71.5471H71.5306H71.514H71.4975H71.4809H71.4644H71.4478H71.4313H71.4148H71.3982H71.3817H71.3652H71.3487H71.3321H71.3156H71.2991H71.2826H71.2661H71.2496H71.2331H71.2166H71.2001H71.1836H71.1671H71.1506H71.1342H71.1177H71.1012H71.0847H71.0682H71.0518H71.0353H71.0188H71.0024H70.9859H70.9695H70.953H70.9365H70.9201H70.9036H70.8872H70.8708H70.8543H70.8379H70.8214H70.805H70.7886H70.7721H70.7557H70.7393H70.7229H70.7064H70.69H70.6736H70.6572H70.6408H70.6244H70.608H70.5915H70.5751H70.5587H70.5423H70.5259H70.5095H70.4931H70.4767H70.4604H70.444H70.4276H70.4112H70.3948H70.3784H70.362H70.3457H70.3293H70.3129H70.2965H70.2802H70.2638H70.2474H70.2311H70.2147H70.1983H70.182H70.1656H70.1492H70.1329H70.1165H70.1002H70.0838H70.0675H70.0511H70.0348H70.0184H70.0021H69.9857H69.9694H69.953H69.9367H69.9203H69.904H69.8877H69.8713H69.855H69.8386H69.8223H69.806H69.7896H69.7733H69.757H69.7406H69.7243H69.708H69.6917H69.6753H69.659H69.6427H69.6264H69.61H69.5937H69.5774H69.5611H69.5448H69.5284H69.5121H69.4958H69.4795H69.4632H69.4468H69.4305H69.4142H69.3979H69.3816H69.3653H69.349H69.3326H69.3163H69.3H69.2837H69.2674H69.2511H69.2348H69.2185H69.2022H69.1859H69.1695H69.1532H69.1369H69.1206H69.1043H69.088H69.0717H69.0554H69.0391H69.0228H69.0065H68.9902H68.9739H68.9576H68.9412H68.9249H68.9086H68.8923H68.876H68.8597H68.8434H68.8271H68.8108H68.7945H68.7782H68.7619H68.7456H68.7293H68.7129H68.6966H68.6803H68.664H68.6477H68.6314H68.6151H68.5988H68.5825H68.5661H68.5498H68.5335H68.5172H68.5009H68.4846H68.4683H68.4519H68.4356H68.4193H68.403H68.3867H68.3704H68.354H68.3377H68.3214H68.3051H68.2887H68.2724H68.2561H68.2398H68.2234H68.2071H68.1908H68.1745H68.1581H68.1418H68.1255H68.1091H68.0928H68.0765H68.0601H68.0438H68.0275H68.0111H67.9948H67.9784H67.9621H67.9457H67.9294H67.9131H67.8967H67.8804H67.864H67.8477H67.8313H67.8149H67.7986H67.7822H67.7659H67.7495H67.7331H67.7168H67.7004H67.6841H67.6677H67.6513H67.6349H67.6186H67.6022H67.5858H67.5694H67.5531H67.5367H67.5203H67.5039H67.4875H67.4711H67.4548H67.4384H67.422H67.4056H67.3892H67.3728H67.3564H67.34H67.3236H67.3072H67.2907H67.2743H67.2579H67.2415H67.2251H67.2087H67.1922H67.1758H67.1594H67.143H67.1265H67.1101H67.0937H67.0772H67.0608H67.0443H67.0279H67.0115H66.995H66.9786H66.9621H66.9457H66.9292H66.9127H66.8963H66.8798H66.8633H66.8469H66.8304H66.8139H66.7974H66.781H66.7645H66.748H66.7315H66.715H66.6985H66.682H66.6655H66.649H66.6325H66.616H66.5995H66.583H66.5664H66.5499H66.5334H66.5169H66.5003H66.4838H66.4673H66.4507H66.4342H66.4177H66.4011H66.3846H66.368H66.3514H66.3349H66.3183H66.3018H66.2852H66.2686H66.252H66.2355H66.2189H66.2023H66.1857H66.1691H66.1525H66.1359H66.1193H66.1027H66.0861H66.0695H66.0529H66.0362H66.0196H66.003H65.9864H65.9697H65.9531H65.9364H65.9198H65.9032H65.8865H65.8698H65.8532H65.8365H65.8198H65.8032H65.7865H65.7698H65.7531H65.7365H65.7198H65.7031H65.6864H65.6697H65.653H65.6362H65.6195H65.6028H65.5861H65.5694H65.5526H65.5359H65.5192H65.5024H65.4857H65.4689H65.4522H65.4354H65.4186H65.4019H65.3851H65.3683H65.3515H65.3347H65.318H65.3012H65.2844H65.2676H65.2507H65.2339H65.2171H65.2003H65.1835H65.1666H65.1498H65.133H65.1161H65.0993H65.0824H65.0656H65.0487H65.0318H65.0149H64.9981H64.9812H64.9643H64.9474H64.9305H64.9136H64.8967H64.8798H64.8629H64.846H64.829H64.8121H64.7952H64.7782H64.7613H64.7443H64.7274C60.1559 100.323 56.2466 99.0191 52.7653 96.6257L52.758 96.6207L52.7505 96.6159C52.5569 96.4927 52.3644 96.3681 52.1723 96.2437C49.9923 94.8323 47.8585 93.4508 44.7441 94.5631L44.6382 94.6009L44.6066 94.6325C44.5854 94.6316 44.5543 94.6288 44.5099 94.6225C44.4558 94.6147 44.4134 94.6071 44.3633 94.5981C44.3212 94.5906 44.2736 94.582 44.2092 94.5716C44.1016 94.5543 43.9738 94.5371 43.8374 94.5343C40.7285 94.09 37.9272 93.6506 35.1305 92.1447L35.1238 92.1411L35.117 92.1377C32.1947 90.6765 28.5485 91.672 26.8705 95.2678L26.8704 95.2678L26.8667 95.2762C25.2496 98.9147 26.0926 102.231 26.9131 105.46C27.037 105.947 27.1603 106.432 27.2746 106.916C27.2969 107.075 27.379 107.189 27.4375 107.253C27.5078 107.331 27.5888 107.387 27.6529 107.427C27.7825 107.506 27.9419 107.575 28.0841 107.632C28.2044 107.68 28.3172 107.722 28.4216 107.761C28.6005 107.828 28.7549 107.886 28.8811 107.949L29.3283 108.173L29.5519 107.725C29.5906 107.648 29.636 107.565 29.688 107.469C29.7045 107.439 29.7216 107.407 29.7394 107.374C29.8095 107.245 29.8871 107.098 29.9513 106.954C30.0128 106.815 30.0774 106.646 30.101 106.474C30.1206 106.332 30.1222 106.102 29.9786 105.901C29.3735 104.563 29.2151 103.214 29.2151 101.825C29.2151 101.118 29.2559 100.409 29.2978 99.6826L29.2982 99.6756C29.3396 98.9566 29.3821 98.221 29.3821 97.483C29.3821 96.2939 29.8708 95.4615 30.5725 95.0088C31.28 94.5523 32.2779 94.4349 33.3792 94.8332C33.7709 94.9904 34.1264 95.173 34.4977 95.3637C34.6266 95.43 34.7575 95.4972 34.8924 95.5647C35.3983 95.8176 35.9422 96.0627 36.5589 96.1886C37.1518 96.3509 37.7337 96.5402 38.3244 96.7336L38.3929 96.7561C38.963 96.9428 39.5427 97.1327 40.1302 97.2967C41.3554 97.6386 42.6434 97.8766 44.0608 97.7589C47.1308 97.5399 49.8628 97.7694 52.3846 99.8709L52.3881 99.8738C54.944 101.965 58.1733 102.875 61.5745 103.102C62.6359 103.184 63.6904 103.357 64.7692 103.533C65.1349 103.593 65.5034 103.653 65.8759 103.71C67.3308 103.934 68.8248 104.109 70.3318 103.993L70.3349 103.993C75.6846 103.547 81.3179 102.875 86.7385 100.616L86.7396 100.616C93.7201 97.6885 99.3624 93.4024 103.873 87.088C108.622 80.5293 110.418 73.0812 111.09 65.2427L111.09 65.2415C111.207 63.841 111.03 62.4543 110.807 61.0841C110.755 60.7702 110.702 60.458 110.648 60.1463C110.466 59.0834 110.285 58.0266 110.2 56.9315C109.971 51.9259 108.149 47.6193 105.913 43.3709L105.91 43.3656C102.992 37.9774 99.3724 33.4357 93.6963 30.4787C91.881 29.3464 89.831 28.4345 87.7679 27.9761L87.7492 27.9719L87.7301 27.9692C84.5903 27.5206 81.4229 27.2922 78.0198 27.7459L78.0198 27.7458L78.0079 27.7476C73.7283 28.4233 69.8183 29.7863 66.8163 33.0153C65.8105 34.0227 65.0359 35.1696 64.2707 36.3027C64.0002 36.7032 63.7308 37.102 63.4529 37.4923C63.3021 37.647 63.1619 37.8196 63.0382 37.9718C63.016 37.9992 62.9943 38.0258 62.9732 38.0516C62.817 38.2425 62.6823 38.3982 62.5398 38.5188C62.4024 38.635 62.2728 38.7052 62.1338 38.7354C61.9964 38.7653 61.8103 38.7647 61.5459 38.6766L61.5379 38.6739L61.5298 38.6715C58.6025 37.8042 56.1917 36.295 54.5413 34.2454C52.8949 32.2006 51.9838 29.5921 52.0912 26.4776L52.0915 26.469V26.4604V26.4473V26.4343V26.4212V26.4082V26.3951V26.3821V26.3691V26.356V26.343V26.3299V26.3169V26.3038V26.2908V26.2777V26.2647V26.2517V26.2386V26.2256V26.2125V26.1995V26.1864V26.1734V26.1604V26.1473V26.1343V26.1212V26.1082V26.0951V26.0821V26.0691V26.056V26.043V26.0299V26.0169V26.0039V25.9908V25.9778V25.9647V25.9517V25.9387V25.9256V25.9126V25.8996V25.8865V25.8735V25.8604V25.8474V25.8344V25.8213V25.8083V25.7953V25.7822V25.7692V25.7562V25.7432V25.7301V25.7171V25.7041V25.691V25.678V25.665V25.652V25.6389V25.6259V25.6129V25.5999V25.5868V25.5738V25.5608V25.5478V25.5347V25.5217V25.5087V25.4957V25.4827V25.4697V25.4566V25.4436V25.4306V25.4176V25.4046V25.3916V25.3786V25.3655V25.3525V25.3395V25.3265V25.3135V25.3005V25.2875V25.2745V25.2615V25.2485V25.2355V25.2225V25.2095V25.1965V25.1835V25.1705V25.1575V25.1445V25.1315V25.1185V25.1055V25.0925V25.0795V25.0666V25.0536V25.0406V25.0276V25.0146V25.0016V24.9886V24.9757V24.9627V24.9497V24.9367V24.9237V24.9108V24.8978V24.8848V24.8718V24.8589V24.8459V24.8329V24.82V24.807V24.794V24.7811V24.7681V24.7552V24.7422V24.7292V24.7163V24.7033V24.6904V24.6774V24.6645V24.6515V24.6386V24.6256V24.6127V24.5997V24.5868V24.5739V24.5609V24.548V24.535V24.5221V24.5092V24.4962V24.4833V24.4704V24.4574V24.4445V24.4316V24.4187V24.4057V24.3928V24.3799V24.367V24.3541V24.3412V24.3282V24.3153V24.3024V24.2895V24.2766V24.2637V24.2508V24.2379V24.225V24.2121V24.1992V24.1863V24.1734V24.1605V24.1477V24.1348V24.1219V24.109V24.0961V24.0832V24.0704V24.0575V24.0446V24.0317V24.0189V24.006V23.9931V23.9803V23.9674V23.9545V23.9417V23.9288V23.916V23.9031V23.8903V23.8774V23.8646V23.8517V23.8389V23.826V23.8132V23.8004V23.7875V23.7747V23.7619V23.749V23.7362V23.7234V23.7106V23.6977V23.6849V23.6721V23.6593V23.6465V23.6337V23.6209V23.6081V23.5952V23.5824V23.5696V23.5569V23.5441V23.5313V23.5185V23.5057V23.4929V23.4801V23.4673V23.4546V23.4418V23.429V23.4162V23.4035V23.3907V23.3779V23.3652V23.3524V23.3397V23.3269V23.3141V23.3014V23.2886V23.2759V23.2632V23.2504V23.2377V23.2249V23.2122V23.1995V23.1868V23.174V23.1613V23.1486V23.1359V23.1232V23.1104V23.0977V23.085V23.0723V23.0596V23.0469V23.0342V23.0215V23.0088V22.9961V22.9835V22.9708V22.9581V22.9454V22.9327V22.9201V22.9074V22.8947V22.8821V22.8694V22.8567V22.8441V22.8314V22.8188V22.8061V22.7935V22.7808V22.7682V22.7556V22.7429V22.7303V22.7177V22.705V22.6924V22.6798V22.6672V22.6546V22.642V22.6294V22.6167V22.6041V22.5915V22.5789V22.5664V22.5538V22.5412V22.5286V22.516V22.5034V22.4909V22.4783V22.4657V22.4532V22.4406V22.428V22.4155V22.4029V22.3904V22.3778V22.3653V22.3527V22.3402V22.3277V22.3151V22.3026V22.2901V22.2776V22.265V22.2525V22.24V22.2275V22.215V22.2025V22.19V22.1775V22.165V22.1525V22.14V22.1276V22.1151V22.1026V22.0901V22.0777V22.0652V22.0527V22.0403V22.0278V22.0154V22.0029V21.9905V21.978V21.9656V21.9532V21.9407V21.9283V21.9159V21.9035V21.8911V21.8786V21.8662V21.8538V21.8414V21.829V21.8166V21.8042V21.7919V21.7795V21.7671V21.7547V21.7423V21.73V21.7176V21.7052V21.6929V21.6805V21.6682V21.6558V21.6435V21.6311V21.6188V21.6065V21.5941V21.5818V21.5695V21.5572V21.5449V21.5326V21.5203V21.508V21.4957V21.4834V21.4711V21.4588V21.4465V21.4342V21.4219V21.4097V21.3974V21.3851V21.3729V21.3606V21.3484V21.3361V21.3239V21.3117V21.2994V21.2872V21.275V21.2627V21.2505V21.2383V21.2261V21.2139V21.2017V21.1895V21.1773V21.1651V21.1529V21.1407V21.1286V21.1164V21.1042V21.092V21.0799V21.0677V21.0556V21.0434V21.0313V21.0191V21.007V20.9949V20.9827V20.9706V20.9585V20.9464V20.9343V20.9222V20.9101V20.898V20.8859V20.8738V20.8617V20.8496V20.8375V20.8255V20.8134V20.8013V20.7893V20.7772V20.7652V20.7531V20.7411V20.7291V20.717V20.705V20.693V20.681V20.669V20.657V20.6449V20.6329V20.621V20.609V20.597V20.585V20.573V20.5611V20.5491V20.5371V20.5252V20.5132V20.5013V20.4893V20.4774V20.4654V20.4535V20.4416V20.4297V20.4178V20.4058V20.3939V20.382V20.3701V20.3582V20.3464V20.3345V20.3226V20.3107V20.2989V20.287V20.2751V20.2633V20.2514V20.2396V20.2278V20.2159V20.2041V20.1923V20.1805V20.1686V20.1568V20.145V20.1332V20.1214V20.1096V20.0979V20.0861V20.0743V20.0625V20.0508V20.039V20.0273V20.0155V20.0038C52.0915 19.2541 51.8469 18.5205 51.6326 17.8779L51.6206 17.8419Z" fill="#4F8AD8" stroke="#4F8AD8" stroke-miterlimit="10"/>
<path d="M69.3898 72.1108L69.9513 71.8516L69.5802 71.3568C68.3361 69.698 68.1381 68.12 68.4457 66.6079C68.76 65.0625 69.6047 63.5721 70.4966 62.1226L70.7493 61.712L70.3481 61.4446C70.085 61.2692 69.8523 61.1253 69.6613 61.0073C69.604 60.9719 69.5504 60.9388 69.5009 60.9078C69.2709 60.7641 69.1531 60.6811 69.0885 60.6165L69.0709 60.5988L69.0516 60.5831C66.6484 58.6168 64.7821 56.2955 64.7821 52.9549C64.7821 52.1695 64.5174 51.4883 64.0354 50.9718C63.5616 50.4642 62.9053 50.1443 62.158 50.0161C61.4261 49.8344 60.6902 49.7241 59.9817 49.6179C59.8064 49.5916 59.6327 49.5656 59.4612 49.5388C58.5779 49.4007 57.7288 49.2398 56.8879 48.9245C48.1598 45.6515 42.0727 37.8114 42.0727 28.0191V28.0047V27.9904V27.976V27.9616V27.9473V27.9329V27.9185V27.9041V27.8897V27.8753V27.8609V27.8465V27.8321V27.8177V27.8033V27.7888V27.7744V27.76V27.7455V27.7311V27.7166V27.7022V27.6877V27.6732V27.6588V27.6443V27.6298V27.6153V27.6008V27.5863V27.5718V27.5573V27.5428V27.5283V27.5138V27.4993V27.4847V27.4702V27.4557V27.4411V27.4266V27.412V27.3975V27.3829V27.3683V27.3538V27.3392V27.3246V27.31V27.2954V27.2808V27.2662V27.2516V27.237V27.2224V27.2078V27.1932V27.1785V27.1639V27.1493V27.1346V27.12V27.1053V27.0907V27.076V27.0614V27.0467V27.032V27.0173V27.0027V26.988V26.9733V26.9586V26.9439V26.9292V26.9145V26.8998V26.8851V26.8704V26.8556V26.8409V26.8262V26.8114V26.7967V26.7819V26.7672V26.7524V26.7377V26.7229V26.7082V26.6934V26.6786V26.6638V26.6491V26.6343V26.6195V26.6047V26.5899V26.5751V26.5603V26.5455V26.5306V26.5158V26.501V26.4862V26.4713V26.4565V26.4417V26.4268V26.412V26.3971V26.3823V26.3674V26.3525V26.3377V26.3228V26.3079V26.293V26.2782V26.2633V26.2484V26.2335V26.2186V26.2037V26.1888V26.1739V26.1589V26.144V26.1291V26.1142V26.0992V26.0843V26.0694V26.0544V26.0395V26.0245V26.0096V25.9946V25.9797V25.9647V25.9497V25.9348V25.9198V25.9048V25.8898V25.8748V25.8599V25.8449V25.8299V25.8149V25.7999V25.7848V25.7698V25.7548V25.7398V25.7248V25.7098V25.6947V25.6797V25.6647V25.6496V25.6346V25.6195V25.6045V25.5894V25.5744V25.5593V25.5442V25.5292V25.5141V25.499V25.484V25.4689V25.4538V25.4387V25.4236V25.4085V25.3934V25.3783V25.3632V25.3481V25.333V25.3179V25.3028V25.2876V25.2725V25.2574V25.2423V25.2271V25.212V25.1968V25.1817V25.1666V25.1514V25.1363V25.1211V25.1059V25.0908V25.0756V25.0604V25.0453V25.0301V25.0149V24.9997V24.9846V24.9694V24.9542V24.939V24.9238V24.9086V24.8934V24.8782V24.863V24.8478V24.8326V24.8173V24.8021V24.7869V24.7717V24.7564V24.7412V24.726V24.7107V24.6955V24.6803V24.665V24.6498V24.6345V24.6192V24.604V24.5887V24.5735V24.5582V24.5429V24.5277V24.5124V24.4971V24.4818V24.4666V24.4513V24.436V24.4207V24.4054V24.3901V24.3748V24.3595V24.3442V24.3289V24.3136V24.2983V24.283V24.2676V24.2523V24.237V24.2217V24.2063V24.191V24.1757V24.1603V24.145V24.1297V24.1143V24.099V24.0836V24.0683V24.0529V24.0376V24.0222V24.0069V23.9915V23.9761V23.9608V23.9454V23.93V23.9147V23.8993V23.8839V23.8685V23.8531V23.8378V23.8224V23.807V23.7916V23.7762V23.7608V23.7454V23.73V23.7146V23.6992V23.6838V23.6684V23.653V23.6375V23.6221V23.6067V23.5913V23.5759V23.5604V23.545V23.5296V23.5141V23.4987V23.4833V23.4678V23.4524V23.437V23.4215V23.4061V23.3906V23.3752V23.3597V23.3443V23.3288V23.3133V23.2979V23.2824V23.267V23.2515V23.236V23.2205V23.2051V23.1896V23.1741V23.1586V23.1432V23.1277V23.1122V23.0967V23.0812V23.0657V23.0503V23.0348V23.0193V23.0038V22.9883V22.9728V22.9573V22.9418V22.9263V22.9108V22.8953V22.8797V22.8642V22.8487V22.8332V22.8177V22.8022V22.7866V22.7711V22.7556V22.7401V22.7246V22.709V22.6935V22.678V22.6624V22.6469V22.6314V22.6158V22.6003V22.5847V22.5692V22.5537V22.5381V22.5226V22.507V22.4915V22.4759V22.4604V22.4448V22.4293V22.4137V22.3981V22.3826V22.367V22.3515V22.3359V22.3203V22.3048V22.2892V22.2736V22.2581V22.2425V22.2269V22.2113V22.1958V22.1802V22.1646V22.149V22.1335V22.1179V22.1023V22.0867V22.0711V22.0555V22.04V22.0244V22.0088V21.9932V21.9776V21.962V21.9464V21.9308V21.9152V21.8996V21.884V21.8684V21.8528V21.8372V21.8216V21.806V21.7904V21.7748V21.7592V21.7436V21.728V21.7124V21.6968V21.6812V21.6655V21.6499V21.6343V21.6187V21.6031V21.5875V21.5719V21.5562V21.5406V21.525V21.5094V21.4938V21.4781V21.4625V21.4469V21.4313V21.4156V21.4V21.3844V21.3688V21.3531V21.3375V21.3219V21.3062V21.2906V21.275V21.2593V21.2437V21.2281V21.2124V21.1968V21.1812V21.1655V21.1499V21.1343V21.1186V21.103V21.0873V21.0717V21.0561V21.0404V21.0248V21.0091V20.9935V20.9779V20.9622V20.9466V20.9309V20.9153V20.8996V20.884V20.8683V20.8527V20.8371V20.8214V20.8058V20.7901V20.7745V20.7588V20.7432V20.7275V20.7119V20.6962V20.6806V20.6649V20.6493V20.6336V20.618V20.6023V20.5867V20.571V20.5554V20.5397V20.5241V20.5084V20.4927V20.4771V20.4614V20.4458V20.4301V20.4145V20.3988V20.3832V20.3675V20.3519V20.3362V20.3206V20.3049V20.2892V20.2736V20.2579V20.2423V20.2266C42.0727 19.603 41.8973 19.1163 41.7242 18.636C41.6824 18.52 41.6408 18.4044 41.6017 18.2874L41.4698 17.8915L41.0567 17.9505C40.1861 18.0749 39.5855 18.4042 39.2318 18.9544C38.8998 19.4707 38.8469 20.0951 38.8463 20.6618C38.623 26.264 39.0706 31.6766 41.1045 37.1003L41.1045 37.1003L41.106 37.1042C44.5193 45.9789 51.3592 50.5194 59.9367 52.5509L59.9531 52.5548L59.9697 52.5576C60.6143 52.665 61.0767 52.8162 61.3982 53.052C61.6962 53.2705 61.9142 53.5921 62.0073 54.1474C62.4689 57.1434 63.8552 59.7008 66.1733 61.5648C66.689 62.0919 66.8349 62.7368 66.5194 63.3921C65.829 64.4347 65.3522 65.5602 65.2318 66.7646C65.1243 67.8391 65.3032 68.9508 65.8331 70.0921C62.7667 71.6262 60.6344 73.7628 59.4863 76.5122C56.601 76.6155 55.0264 76.6834 53.4501 77.1619C51.8652 77.643 50.2892 78.5363 47.3423 80.2201C41.6666 77.4959 36.5564 77.1106 32.1417 78.3558C27.6723 79.6164 23.969 82.5328 21.1364 86.2719L21.1363 86.2718L21.1317 86.2781C18.6093 89.7178 17.4721 94.0018 17.5005 98.0712C17.5289 102.135 18.721 106.041 20.9268 108.711L21.8123 109.783V108.393C21.8123 107.829 21.8419 107.362 21.8689 106.936C21.8784 106.786 21.8876 106.641 21.8951 106.499C21.923 105.968 21.9276 105.466 21.8023 104.952C21.6835 104.251 21.4527 103.559 21.2362 102.91L21.23 102.891C21.0059 102.219 20.7978 101.591 20.6936 100.971C19.8238 94.4319 21.568 88.614 26.7434 84.5168L26.7435 84.5169L26.7531 84.5089C30.6739 81.2415 35.4038 79.5438 40.5421 81.0425L40.5421 81.0426L40.5506 81.0449C41.7457 81.3708 42.8925 81.8071 44.0568 82.2783C44.3573 82.4 44.6599 82.5243 44.9648 82.6496C45.8334 83.0066 46.7211 83.3715 47.6358 83.7041L47.9148 83.8055L48.1375 83.6091C51.8607 80.3239 55.904 78.4488 60.7782 80.1442L61.2076 80.2935L61.397 79.8802C62.6373 77.1742 63.2104 75.9425 64.1577 75.0208C65.111 74.0933 66.4599 73.463 69.3898 72.1108Z" fill="#4F8AD8" stroke="#4F8AD8" stroke-miterlimit="10"/>
<path d="M60.7555 85.3963L60.7554 85.3962L60.7491 85.4057C60.2501 86.1541 60.0379 86.9429 60.1409 87.6987C60.244 88.4543 60.6544 89.119 61.293 89.6316C65.5849 93.2445 70.1429 95.0855 75.1753 94.8672C79.3418 95.3158 83.4612 93.4607 87.457 91.2408L87.4643 91.2368L87.4714 91.2325C90.907 89.1712 93.6305 85.7536 96.0777 82.4164L96.0778 82.4165L96.0814 82.4114C98.1211 79.5558 98.892 75.98 99.6531 72.4491C99.7468 72.0144 99.8404 71.5804 99.9361 71.1485C100.092 70.782 100.063 70.3387 99.9724 69.9768C99.8751 69.588 99.6791 69.1756 99.3884 68.875C98.922 68.296 98.4147 67.838 97.8039 67.6005C97.1712 67.3545 96.4917 67.3691 95.7391 67.62L95.7162 67.6276L95.6941 67.6374C93.6804 68.5324 91.5462 69.3755 89.6632 69.3755C87.5761 69.3755 85.6101 69.1753 83.6474 68.9755C82.7138 68.8804 81.7811 68.7855 80.8364 68.7121C79.8094 68.4692 78.8156 68.734 77.8928 69.1904C77.059 69.4825 76.5436 70.1735 76.1673 70.8972C75.9249 71.3633 75.7078 71.9148 75.5004 72.4418C75.3908 72.7204 75.2838 72.9921 75.1772 73.2408L75.1711 73.255L75.1659 73.2696C75.103 73.4459 75.0403 73.6228 74.9775 73.7998C74.4788 75.2068 73.9768 76.6231 73.3061 77.8447C72.5545 79.2136 71.6277 80.2669 70.3366 80.7635L70.3365 80.7635L70.3304 80.7659C69.2826 81.185 68.0106 81.3981 66.9538 81.3981C64.2538 81.3981 62.3422 83.1295 60.7555 85.3963ZM88.6481 72.5922L88.6597 72.5898L88.6713 72.587C89.5948 72.3561 90.4562 72.0115 91.282 71.6812L91.2961 71.6756C92.1321 71.3412 92.9326 71.0218 93.7807 70.8087C94.745 70.6158 95.7028 70.4245 96.9492 70.2333C96.8487 74.6848 95.5952 77.5736 94.1333 80.0811C90.8366 85.3534 86.6945 89.0357 81.7252 90.5481L81.7138 90.5515L81.7026 90.5555C78.5897 91.6673 75.6189 92.4972 72.4553 91.4426C71.7427 91.2051 71.0583 91.0015 70.3939 90.8039C68.4946 90.239 66.7589 89.7227 64.9958 88.6008L64.974 88.5869L64.951 88.5754C64.2263 88.2131 63.6574 87.6856 63.0594 87.0922C63.4902 85.6231 64.2347 85.0001 65.0481 84.8374L65.0597 84.8351L65.0713 84.8322C65.9418 84.6146 66.8702 84.4505 67.8199 84.2829L67.8293 84.2813C68.7691 84.1154 69.7297 83.9459 70.6373 83.719C72.5731 83.2351 74.0212 82.0171 74.9708 80.1179L74.9774 80.1048L74.9832 80.0913C75.6556 78.5223 76.3268 76.7324 76.9929 74.9563L76.9955 74.9491L76.9988 74.9405L77.0017 74.9317C77.2801 74.0965 77.5095 73.451 77.7376 72.9487C77.9658 72.4458 78.1773 72.1221 78.4029 71.9074C78.8161 71.5138 79.3902 71.3784 80.6956 71.4853C81.2593 71.58 81.8644 71.7151 82.5089 71.859C82.6025 71.8798 82.6968 71.9009 82.792 71.9221C83.5396 72.0882 84.3305 72.258 85.1258 72.3722L85.1553 72.3781C86.239 72.595 87.4364 72.8345 88.6481 72.5922Z" fill="#4F8AD8" stroke="#4F8AD8" stroke-miterlimit="10"/>
<rect x="2" y="2" width="119" height="119" rx="17" stroke="#4F8AD8" stroke-width="4"/>
</svg>
