<svg width="123" height="123" viewBox="0 0 123 123" fill="none" xmlns="http://www.w3.org/2000/svg">
<g clip-path="url(#clip0)">
<path d="M57.5845 81.8754H57.3345C56.7563 81.8754 56.1745 81.8686 55.5921 81.8617C54.4279 81.8481 53.2615 81.8344 52.1175 81.8751C48.6252 82.056 45.8727 83.4925 43.8901 86.5524C42.4707 88.7712 40.8635 90.9945 39.0679 92.9734C36.2955 96.0565 32.1881 97.0103 28.7027 95.6179L28.6985 95.6162L28.6985 95.6162C26.8896 94.8554 25.7207 93.6601 25.0328 92.2061C24.348 90.7586 24.1467 89.07 24.2403 87.325L24.2404 87.3247C24.6076 80.6008 23.6898 74.2461 21.3646 67.89C19.2509 62.1774 19.5043 56.1048 20.7394 50.1836L20.7397 50.1823C21.8879 44.8202 24.3767 40.7676 28.0274 38.1599C31.6765 35.5533 36.459 34.4098 42.16 34.8121L42.1607 34.8121C43.8471 34.936 45.5243 35.0986 47.1981 35.261C49.6998 35.5036 52.1939 35.7455 54.6999 35.856C59.7461 36.0466 64.7862 36.1891 69.8264 36.3316C76.1386 36.5101 82.4509 36.6886 88.7751 36.9617L88.7757 36.9617C92.8519 37.1468 96.9907 37.7636 100.884 38.8128C104.192 39.6858 106.561 41.3622 107.924 43.6809C109.286 45.9977 109.623 48.9212 108.937 52.2508L108.937 52.2515C107.692 58.2233 104.142 62.6915 99.6272 66.4594C92.2526 72.6488 83.5202 74.9939 74.134 75.3022L74.1338 75.3022C73.1858 75.3328 72.4467 75.4246 71.8279 75.7229C71.2194 76.0163 70.7009 76.5232 70.2274 77.4393C70.2272 77.4395 70.2271 77.4398 70.2269 77.4401L70.0049 77.3253C68.6517 79.9668 66.0684 81.1339 63.1776 81.3797L57.5845 81.8754ZM57.5845 81.8754V81.6303V81.8754ZM56.5349 78.3039V78.3036L56.5241 78.3041C55.1074 78.3656 52.7646 78.4887 50.3588 78.7352L50.3562 78.7355C46.4709 79.1736 43.5133 80.9329 41.3189 84.2516C39.846 86.4582 38.3148 88.5988 36.602 90.6152C35.765 91.5701 34.8033 92.2455 33.7419 92.5745C32.6829 92.9028 31.5085 92.8913 30.2333 92.4476C28.9814 91.9817 28.2961 91.1912 27.937 90.2586C27.5728 89.3128 27.5388 88.2059 27.6299 87.1139C28.249 80.0019 26.8238 73.2691 24.4803 66.5549C22.6555 61.2083 22.8951 55.6088 24.3018 50.0503L24.3021 50.0492C25.2453 46.2506 26.9893 43.3081 29.4599 41.3145C31.9296 39.3217 35.1464 38.2601 39.067 38.2601L39.0702 38.2601C41.517 38.2295 43.9512 38.4128 46.3874 38.6277C46.8001 38.6641 47.2129 38.7014 47.6258 38.7388C49.6472 38.9215 51.6718 39.1046 53.6958 39.1813C58.9791 39.3935 64.2703 39.5712 69.567 39.749C76.5491 39.9835 83.5408 40.2183 90.5368 40.5327L90.5388 40.5328C93.8335 40.6547 97.1945 41.3253 100.377 42.3034L100.378 42.3038C102.669 42.9962 104.174 44.1591 104.988 45.7055C105.805 47.2563 105.95 49.2335 105.434 51.5942L105.434 51.5958C104.282 57.0442 100.888 60.9913 96.666 64.3522L96.6653 64.3529C89.5286 70.0794 81.1039 71.9152 72.0961 71.9152C71.0059 71.9152 70.1361 72.0382 69.4011 72.472C68.6636 72.9073 68.0977 73.6336 67.5646 74.7612L67.5645 74.7612L67.5622 74.7664C67.2238 75.527 66.4757 76.2004 65.5369 76.7826C64.6042 77.3611 63.5152 77.8302 62.5379 78.1963C61.8175 78.455 60.998 78.4881 60.0043 78.45C59.6743 78.4373 59.3235 78.4166 58.9526 78.3947C58.2224 78.3516 57.4145 78.3039 56.5349 78.3039Z" fill="#4F8AD8" stroke="#4F8AD8" stroke-width="0.5"/>
<path d="M102.173 51.7704C100.697 52.3233 100.02 52.6919 99.3435 52.8762C93.2543 54.1662 88.7028 57.3606 85.074 62.5207C83.5978 64.6707 80.6455 65.8379 78.3082 67.3736C77.9392 67.6194 77.2626 67.3736 76.7091 67.3122C76.7091 66.8822 76.6476 66.5136 76.7091 66.5136C81.1375 65.2236 83.6593 61.8449 86.2426 58.4049C89.6254 53.859 94.6075 52.0776 99.897 51.0947C100.389 51.0333 100.881 51.4018 102.173 51.7704Z" fill="#4F8AD8"/>
<path d="M38.575 79.6596C41.0968 72.1037 58.3186 64.5478 64.5308 68.1722C54.1977 68.295 45.6483 72.288 38.575 79.6596Z" fill="#4F8AD8"/>
<path d="M30.8867 88.8127C32.3628 86.4169 33.839 83.9597 35.3151 81.5639C35.7457 81.8097 36.1762 82.0554 36.6068 82.3625C35.1306 84.7583 33.5929 87.1541 32.1168 89.5498C31.7477 89.3041 31.3172 89.0584 30.8867 88.8127Z" fill="#4F8AD8"/>
</g>
<rect x="2" y="2" width="119" height="119" rx="17" stroke="#4F8AD8" stroke-width="4"/>
<defs>
<clipPath id="clip0">
<rect width="89" height="61" fill="white" transform="translate(20 35)"/>
</clipPath>
</defs>
</svg>
