<svg width="124" height="123" viewBox="0 0 124 123" fill="none" xmlns="http://www.w3.org/2000/svg">
<g clip-path="url(#clip0)">
<path d="M16.1433 72.6594C16.2348 61.6282 26.7531 52.9914 37.6372 48.7157C48.5214 44.44 60.5488 42.8153 70.8842 37.428C80.9451 32.2117 88.8567 23.4893 92.7439 13.3988" stroke="#4F8AD8" stroke-width="5" stroke-miterlimit="10"/>
<path d="M34.6161 101.743C38.0917 89.3868 45.3173 77.2012 57.299 71.0442C61.4148 68.9064 65.9423 67.5809 70.3325 66.0845C78.427 63.348 86.4301 59.9703 93.1526 54.925C99.8752 49.8797 105.317 42.9959 107.055 35.1287" stroke="#4F8AD8" stroke-width="5" stroke-miterlimit="10"/>
<path d="M34.7104 68.3933C32.8811 68.3933 31.4177 67.0251 31.4177 65.3149C31.4177 63.6046 32.8811 62.2364 34.7104 62.2364C36.5396 62.2364 38.0031 63.6046 38.0031 65.3149C38.0031 67.0251 36.5396 68.3933 34.7104 68.3933Z" fill="white" stroke="#4F8AD8" stroke-width="3" stroke-miterlimit="10"/>
<path d="M57.9878 58.0463C56.0671 58.0463 54.4665 56.5498 54.4665 54.754C54.4665 52.9583 56.0671 51.4618 57.9878 51.4618C59.9085 51.4618 61.5091 52.9583 61.5091 54.754C61.5091 56.5498 59.9085 58.0463 57.9878 58.0463Z" fill="white" stroke="#4F8AD8" stroke-width="3" stroke-miterlimit="10"/>
<path d="M48.9329 68.3934H48.8415C45.8232 68.3934 43.3537 66.0846 43.3537 63.2626V63.1771C43.3537 60.3552 45.8232 58.0463 48.8415 58.0463H48.9329C51.9512 58.0463 54.4207 60.3552 54.4207 63.1771V63.2626C54.4207 66.0846 51.9512 68.3934 48.9329 68.3934Z" fill="white" stroke="#4F8AD8" stroke-width="3" stroke-miterlimit="10"/>
<path d="M82.9116 47.0151C81.0824 47.0151 79.5732 45.6041 79.5732 43.8939C79.5732 42.1836 81.0824 40.7726 82.9116 40.7726C84.7409 40.7726 86.25 42.1836 86.25 43.8939C86.25 45.6041 84.7409 47.0151 82.9116 47.0151Z" fill="white" stroke="#4F8AD8" stroke-width="3" stroke-miterlimit="10"/>
</g>
<rect x="3" y="2" width="119" height="119" rx="17" stroke="#4F8AD8" stroke-width="4"/>
<defs>
<clipPath id="clip0">
<rect width="90" height="85" fill="white" transform="translate(15 17)"/>
</clipPath>
</defs>
</svg>
