<svg width="122" height="122" viewBox="0 0 122 122" fill="none" xmlns="http://www.w3.org/2000/svg">
<path opacity="0.5" fill-rule="evenodd" clip-rule="evenodd" d="M61 122C94.6894 122 122 94.6894 122 61C122 27.3106 94.6894 0 61 0C27.3106 0 0 27.3106 0 61C0 94.6894 27.3106 122 61 122Z" fill="#AACEEE"/>
<g filter="url(#filter0_d)">
<path fill-rule="evenodd" clip-rule="evenodd" d="M61 102C83.6437 102 102 83.6437 102 61C102 38.3563 83.6437 20 61 20C38.3563 20 20 38.3563 20 61C20 83.6437 38.3563 102 61 102Z" fill="white"/>
</g>
<path d="M52.512 70.288C51.184 70.288 49.896 70.112 48.648 69.76C47.416 69.392 46.424 68.92 45.672 68.344L46.992 65.416C47.712 65.944 48.568 66.368 49.56 66.688C50.552 67.008 51.544 67.168 52.536 67.168C53.64 67.168 54.456 67.008 54.984 66.688C55.512 66.352 55.776 65.912 55.776 65.368C55.776 64.968 55.616 64.64 55.296 64.384C54.992 64.112 54.592 63.896 54.096 63.736C53.616 63.576 52.96 63.4 52.128 63.208C50.848 62.904 49.8 62.6 48.984 62.296C48.168 61.992 47.464 61.504 46.872 60.832C46.296 60.16 46.008 59.264 46.008 58.144C46.008 57.168 46.272 56.288 46.8 55.504C47.328 54.704 48.12 54.072 49.176 53.608C50.248 53.144 51.552 52.912 53.088 52.912C54.16 52.912 55.208 53.04 56.232 53.296C57.256 53.552 58.152 53.92 58.92 54.4L57.72 57.352C56.168 56.472 54.616 56.032 53.064 56.032C51.976 56.032 51.168 56.208 50.64 56.56C50.128 56.912 49.872 57.376 49.872 57.952C49.872 58.528 50.168 58.96 50.76 59.248C51.368 59.52 52.288 59.792 53.52 60.064C54.8 60.368 55.848 60.672 56.664 60.976C57.48 61.28 58.176 61.76 58.752 62.416C59.344 63.072 59.64 63.96 59.64 65.08C59.64 66.04 59.368 66.92 58.824 67.72C58.296 68.504 57.496 69.128 56.424 69.592C55.352 70.056 54.048 70.288 52.512 70.288ZM74.6807 63.592C74.6807 63.64 74.6567 63.976 74.6087 64.6H64.8407C65.0167 65.4 65.4327 66.032 66.0887 66.496C66.7447 66.96 67.5607 67.192 68.5367 67.192C69.2087 67.192 69.8007 67.096 70.3127 66.904C70.8407 66.696 71.3287 66.376 71.7767 65.944L73.7687 68.104C72.5527 69.496 70.7767 70.192 68.4407 70.192C66.9847 70.192 65.6967 69.912 64.5767 69.352C63.4567 68.776 62.5927 67.984 61.9847 66.976C61.3767 65.968 61.0727 64.824 61.0727 63.544C61.0727 62.28 61.3687 61.144 61.9607 60.136C62.5687 59.112 63.3927 58.32 64.4327 57.76C65.4887 57.184 66.6647 56.896 67.9607 56.896C69.2247 56.896 70.3687 57.168 71.3927 57.712C72.4167 58.256 73.2167 59.04 73.7927 60.064C74.3847 61.072 74.6807 62.248 74.6807 63.592ZM67.9847 59.728C67.1367 59.728 66.4247 59.968 65.8487 60.448C65.2727 60.928 64.9207 61.584 64.7927 62.416H71.1527C71.0247 61.6 70.6727 60.952 70.0967 60.472C69.5207 59.976 68.8167 59.728 67.9847 59.728Z" fill="#0B95D6"/>
<defs>
<filter id="filter0_d" x="16" y="20" width="90" height="90" filterUnits="userSpaceOnUse" color-interpolation-filters="sRGB">
<feFlood flood-opacity="0" result="BackgroundImageFix"/>
<feColorMatrix in="SourceAlpha" type="matrix" values="0 0 0 0 0 0 0 0 0 0 0 0 0 0 0 0 0 0 127 0"/>
<feOffset dy="4"/>
<feGaussianBlur stdDeviation="2"/>
<feColorMatrix type="matrix" values="0 0 0 0 0 0 0 0 0 0 0 0 0 0 0 0 0 0 0.25 0"/>
<feBlend mode="normal" in2="BackgroundImageFix" result="effect1_dropShadow"/>
<feBlend mode="normal" in="SourceGraphic" in2="effect1_dropShadow" result="shape"/>
</filter>
</defs>
</svg>
