<svg width="1920" height="1556" viewBox="0 0 1920 1556" fill="none" xmlns="http://www.w3.org/2000/svg">
<path opacity="0.4" d="M1499.9 63.1061C1493.1 65.4061 1486.5 65.9061 1478.9 63.9061C1443 54.3061 1407.6 60.2061 1372.6 69.5061C1332.2 80.2061 1293.6 95.9061 1257.5 114.206C1200.8 143.006 1144.6 172.506 1088.6 202.506C1077.8 208.306 1067.7 209.506 1056.6 206.806C1019.4 197.906 982.3 188.506 945 179.806C915.7 173.006 886.5 166.106 856.9 161.006C812.4 153.306 768.5 158.306 726.8 174.906C684.5 191.806 643.2 211.106 601.9 230.406C589.8 236.106 579 237.906 565.8 234.706C524.1 224.606 481.9 218.606 438.9 223.906C397.6 228.906 358.8 242.806 320.8 259.106C307.4 264.806 294.1 270.806 281.1 277.206C276.6 279.406 272.4 280.206 268 279.906V415.606H1500V63.1061H1499.9Z" fill="#0B95D6"/>
<path opacity="0.4" d="M268 1292.8C272.3 1292.5 276.5 1293.2 281.1 1295.3C305.5 1306.1 329.9 1316.7 354.7 1326.5C389.7 1340.3 425.9 1349.7 463.6 1349.9C485.3 1350 507.1 1347.5 528.7 1344.9C543.1 1343.2 557.4 1340.1 571.5 1336.4C580.2 1334.1 587.4 1335.4 595.2 1339.1C630.7 1355.9 666.1 1373 702.1 1388.6C736.1 1403.3 771.5 1413.2 809 1414.3C841.8 1415.3 873.8 1410.6 905.5 1402.7C947.4 1392.3 989 1381 1031 1370.9C1072.3 1360.9 1072.4 1361.5 1110.4 1381.4C1159.4 1407 1208.2 1433 1257.6 1457.8C1297.1 1477.6 1338 1494.3 1381.1 1504.7C1415.4 1513 1449.8 1516.5 1484.7 1507.1C1489.2 1505.9 1495.2 1507.5 1500 1509.5V1068H268V1292.8Z" fill="#0B95D6"/>
<path d="M0 70.6801C5.95732 76.4839 12.3505 81.8829 17.872 87.9566C58.4108 132.632 103.745 172.179 157.796 202.548C208.942 231.297 264.301 248.033 323.148 257.482C399.431 269.764 470.047 253.432 538.629 224.953C588.467 204.303 637.433 181.897 687.126 160.842C716.622 148.289 747.426 138.976 779.392 133.982C805.4 129.798 831.409 130.743 857.418 134.252C907.256 141.001 955.06 155.308 1003.74 166.78C1040.79 175.553 1078.42 181.762 1116.63 183.517C1155.72 185.406 1193.64 178.658 1230.4 166.645C1272.54 153.013 1312.21 134.522 1351.73 115.356C1410.87 86.6068 1468.55 55.5632 1529.87 30.9983C1563.14 17.636 1597.29 6.43345 1633.32 1.57445C1665.29 -2.74466 1696.09 1.8444 1725.01 15.0717C1750.14 26.5443 1774.55 39.3665 1799.55 51.2441C1824.68 63.2566 1850.98 72.4348 1879.9 70.4102C1893.26 69.4654 1906.34 66.361 1920 64.0664C1920 539.843 1920 1016.02 1920 1492.88C1911.57 1490.99 1904.16 1488.97 1896.75 1487.62C1867.55 1481.95 1839.94 1488.02 1813.64 1499.09C1797.37 1505.97 1781.82 1514.34 1765.98 1522.04C1753.49 1527.97 1741.13 1534.05 1728.64 1539.99C1691.15 1557.4 1651.92 1559.83 1611.38 1551.05C1582.03 1544.71 1553.41 1536.21 1526.53 1523.92C1472.33 1499.22 1418.57 1473.45 1364.81 1447.67C1320.49 1426.47 1276.32 1405.28 1229.24 1389.76C1181.73 1374.11 1133.2 1371.54 1083.51 1376.27C1026.98 1381.8 973.222 1398.27 918.444 1410.95C888.367 1417.84 858.144 1423.64 827.195 1425.13C787.383 1427.01 749.024 1419.19 712.699 1405.01C673.467 1389.76 635.108 1372.49 596.604 1356.02C557.954 1339.55 519.449 1322.82 478.765 1310.8C436.773 1298.39 393.909 1292.58 350.029 1296.5C258.635 1304.59 176.685 1334.83 105.052 1388.82C71.0519 1414.46 40.6841 1443.35 12.7864 1474.53C9.15393 1478.57 4.50431 1481.54 0.290601 1485.05C0 1013.73 0 542.273 0 70.6801Z" fill="#56CCF2"/>
</svg>
