<svg width="1920" height="805" viewBox="0 0 1920 805" fill="none" xmlns="http://www.w3.org/2000/svg">
<path d="M2272 804.848C2272 583.375 2272 292.902 2272 71.2779C2267.77 72.3383 2264.95 72.9444 2262.13 73.7018C2235.69 80.3672 2209.25 81.1247 2182.28 75.9741C2153.9 70.5206 2128.7 58.8565 2103.14 47.495C2074.58 34.7702 2046.03 21.8935 2016.59 10.835C1993.32 2.04885 1968.12 -1.43504 1942.56 0.534278C1903.25 3.41252 1865.35 12.3501 1828.69 24.6204C1763.47 46.4345 1702.13 74.9137 1640.62 103.242C1581.21 130.509 1521.99 158.383 1459.24 179.742C1414.82 194.739 1369.34 205.192 1321.05 205.949C1269.05 206.706 1218.28 199.435 1168.05 188.831C1110.76 176.712 1053.47 163.685 995.836 153.08C955.471 145.658 914.401 146.112 873.507 153.384C827.149 161.715 784.14 177.318 741.66 194.133C681.554 217.917 621.623 242.306 560.988 265.18C521.152 280.177 478.672 288.813 435.487 292.903C396.179 296.69 357.048 293.054 318.094 286.843C222.558 271.846 137.774 237.156 63.2133 183.833C24.2585 155.959 -10.6421 124.601 -42.8987 91.1228C-46.6003 87.1841 -52.2408 84.609 -57 81.4278C-57 299.568 -57 586.708 -57 805H2272V804.848Z" fill="#56CCF2"/>
</svg>
