<svg width="1920" height="1248" viewBox="0 0 1920 1248" fill="none" xmlns="http://www.w3.org/2000/svg">
<path opacity="0.3" d="M1496 47.1061C1489.2 49.4061 1482.6 49.9061 1475 47.9061C1439.1 38.3061 1403.7 44.2061 1368.7 53.5061C1328.3 64.2061 1289.7 79.9061 1253.6 98.2061C1196.9 127.006 1140.7 156.506 1084.7 186.506C1073.9 192.306 1063.8 193.506 1052.7 190.806C1015.5 181.906 978.4 172.506 941.1 163.806C911.8 157.006 882.6 150.106 853 145.006C808.5 137.306 764.6 142.306 722.9 158.906C680.6 175.806 639.3 195.106 598 214.406C585.9 220.106 575.1 221.906 561.9 218.706C520.2 208.606 478 202.606 435 207.906C393.7 212.906 354.9 226.806 316.9 243.106C303.5 248.806 290.2 254.806 277.2 261.206C272.7 263.406 268.5 264.206 264.1 263.906V399.606H1496.1V47.1061H1496Z" fill="#0B95D6"/>
<path opacity="0.4" d="M269 971.406C273.3 971.106 277.5 971.806 282.1 973.906C306.5 984.706 330.9 995.306 355.7 1005.11C390.7 1018.91 426.9 1028.31 464.6 1028.51C486.3 1028.61 508.1 1026.11 529.7 1023.51C544.1 1021.81 558.4 1018.71 572.5 1015.01C581.2 1012.71 588.4 1014.01 596.2 1017.71C631.7 1034.51 667.1 1051.61 703.1 1067.21C737.1 1081.91 772.5 1091.81 810 1092.91C842.8 1093.91 874.8 1089.21 906.5 1081.31C948.4 1070.91 990 1059.61 1032 1049.51C1073.3 1039.51 1073.4 1040.11 1111.4 1060.01C1160.4 1085.61 1209.2 1111.61 1258.6 1136.41C1298.1 1156.21 1339 1172.91 1382.1 1183.31C1416.4 1191.61 1450.8 1195.11 1485.7 1185.71C1490.2 1184.51 1496.2 1186.11 1501 1188.11V746.606H269V971.406Z" fill="#0B95D6"/>
<path d="M0.145264 76.955C3.92222 80.4837 8.28024 83.7184 11.4761 87.6882C52.2963 137.973 98.0555 182.67 152.967 217.369C205.263 250.451 262.208 270.153 323.075 280.445C390.188 291.767 454.106 280.592 515.699 254.421C559.28 235.895 601.843 214.723 644.697 194.579C682.321 176.936 720.091 159.733 760.766 150.029C798.826 140.913 836.595 141.06 874.22 149.588C920.705 160.174 967.045 172.231 1013.24 183.993C1062.78 196.638 1113.04 203.107 1164.03 197.667C1196.42 194.285 1227.07 183.846 1257.14 171.201C1314.53 147.236 1368.27 116.359 1422.89 86.9531C1471.56 60.7816 1520.22 34.7573 1572.67 16.9666C1597.36 8.58587 1622.49 1.82245 1648.79 0.499174C1676.1 -0.8241 1701.66 5.20417 1725.92 16.9666C1746.41 26.9647 1766.16 38.286 1786.21 49.0192C1807.13 60.1935 1828.34 70.3386 1852.01 74.8965C1871.63 78.7193 1890.37 76.955 1909.25 71.5149C1912.45 70.6327 1915.64 69.8975 1919.71 68.8683C1919.71 438.944 1919.71 808.285 1919.71 1179.39C1912.45 1177.48 1905.76 1175.57 1899.08 1173.95C1873.22 1167.92 1848.09 1171.74 1823.83 1181.74C1809.6 1187.62 1795.8 1194.83 1782 1201.88C1767.32 1209.38 1752.94 1217.47 1738.56 1225.56C1694.69 1249.96 1648.93 1253.49 1600.99 1240.26C1552.62 1226.88 1507.44 1206 1463.13 1182.92C1411.56 1156.01 1360.57 1127.93 1308.71 1101.46C1269.49 1081.32 1228.96 1063.82 1185.53 1054.85C1151.54 1047.8 1117.25 1048.68 1082.97 1052.21C1026.9 1057.94 973.582 1075.73 919.398 1089.7C889.327 1097.49 859.112 1103.67 828.17 1105.43C791.417 1107.64 755.681 1100.73 721.834 1087.2C688.132 1073.82 655.156 1058.53 622.326 1043.09C578.164 1022.21 534.439 1000.31 488.099 984.28C442.194 968.401 395.273 960.608 346.899 965.754C272.231 973.694 202.648 997.072 140.038 1039.86C91.5185 1073.09 49.972 1113.81 12.6383 1159.25C9.00658 1163.66 4.35802 1167.19 0.290531 1171.16C0.145264 806.226 0.145264 441.591 0.145264 76.955Z" fill="#56CCF2"/>
</svg>
