<svg width="1920" height="1150" viewBox="0 0 1920 1150" fill="none" xmlns="http://www.w3.org/2000/svg">
<path opacity="0.3" d="M1499.9 64.1061C1493.1 66.4061 1486.5 66.9061 1478.9 64.9061C1443 55.3061 1407.6 61.2061 1372.6 70.5061C1332.2 81.2061 1293.6 96.9061 1257.5 115.206C1200.8 144.006 1144.6 173.506 1088.6 203.506C1077.8 209.306 1067.7 210.506 1056.6 207.806C1019.4 198.906 982.3 189.506 945 180.806C915.7 174.006 886.5 167.106 856.9 162.006C812.4 154.306 768.5 159.306 726.8 175.906C684.5 192.806 643.2 212.106 601.9 231.406C589.8 237.106 579 238.906 565.8 235.706C524.1 225.606 481.9 219.606 438.9 224.906C397.6 229.906 358.8 243.806 320.8 260.106C307.4 265.806 294.1 271.806 281.1 278.206C276.6 280.406 272.4 281.206 268 280.906V416.606H1500V64.1061H1499.9Z" fill="#0B95D6"/>
<path opacity="0.4" d="M268 873.8C272.3 873.5 276.5 874.2 281.1 876.3C305.5 887.1 329.9 897.7 354.7 907.5C389.7 921.3 425.9 930.7 463.6 930.9C485.3 931 507.1 928.5 528.7 925.9C543.1 924.2 557.4 921.1 571.5 917.4C580.2 915.1 587.4 916.4 595.2 920.1C630.7 936.9 666.1 954 702.1 969.6C736.1 984.3 771.5 994.2 809 995.3C841.8 996.3 873.8 991.6 905.5 983.7C947.4 973.3 989 962 1031 951.9C1072.3 941.9 1072.4 942.5 1110.4 962.4C1159.4 988 1208.2 1014 1257.6 1038.8C1297.1 1058.6 1338 1075.3 1381.1 1085.7C1415.4 1094 1449.8 1097.5 1484.7 1088.1C1489.2 1086.9 1495.2 1088.5 1500 1090.5V649H268V873.8Z" fill="#0B95D6"/>
<path d="M0 74.7406C6.24697 81.1419 12.7845 87.401 18.7409 94.2291C57.0944 138.754 99.9516 178.158 150.363 209.311C306.538 285.274 480.872 281.006 613.22 203.621C652.736 185.84 691.235 166.066 732.785 152.979C760.969 144.017 789.879 138.612 819.516 139.038C847.554 139.465 875.303 143.875 902.47 150.561C943.584 160.661 984.697 171.187 1025.96 181.145C1057.05 188.684 1088.57 192.952 1120.53 193.948C1169.78 195.513 1216.13 183.279 1261.16 164.644C1313.75 142.879 1363.58 115.709 1414 89.3926C1463.39 63.5028 1512.64 37.1862 1565.96 19.4047C1588.62 11.8654 1612.3 6.03299 1635.84 1.90768C1666.2 -3.35564 1695.69 2.61873 1723.29 15.5637C1747.7 26.9438 1771.23 40.0311 1795.35 52.2647C1822.66 66.2054 1850.99 77.0167 1882.52 74.4562C1894.87 73.4604 1907.07 70.1885 1920 67.9124C1920 406.33 1920 744.605 1920 1083.73C1912.88 1082.03 1906.49 1080.32 1899.95 1078.75C1868.72 1071.5 1839.37 1078.33 1811.19 1091.13C1794.04 1098.95 1777.77 1108.2 1761.07 1116.74C1748.57 1123 1736.22 1129.54 1723.58 1135.23C1687.99 1151.45 1651.23 1153.58 1613.17 1145.19C1567.55 1135.09 1524.84 1117.31 1483.44 1096.82C1424.75 1067.8 1366.92 1037.08 1308.23 1007.91C1269.88 988.852 1230.22 972.492 1187.8 963.673C1151.91 956.134 1115.88 956.703 1079.71 960.828C1024.36 967.229 971.332 984.015 917.579 997.244C886.634 1004.93 855.254 1011.19 823.438 1012.18C788.717 1013.32 754.722 1007.34 722.76 994.542C681.211 977.898 640.678 958.836 599.564 941.055C568.62 927.683 406.925 849.872 260.194 893.827C197.143 911.04 142.082 942.762 92.5424 984.015C63.3414 1008.34 37.046 1035.51 12.6392 1064.39C9.00726 1068.65 4.50363 1072.21 0.290557 1076.05C0 742.471 0 408.606 0 74.7406Z" fill="#56CCF2"/>
</svg>
