<svg width="1919" height="1418" viewBox="0 0 1919 1418" fill="none" xmlns="http://www.w3.org/2000/svg">
<path opacity="0.4" d="M1499.9 45.1061C1493.1 47.4061 1486.5 47.9061 1478.9 45.9061C1443 36.3061 1407.6 42.2061 1372.6 51.5061C1332.2 62.2061 1293.6 77.9061 1257.5 96.2061C1200.8 125.006 1144.6 154.506 1088.6 184.506C1077.8 190.306 1067.7 191.506 1056.6 188.806C1019.4 179.906 982.3 170.506 945 161.806C915.7 155.006 886.5 148.106 856.9 143.006C812.4 135.306 768.5 140.306 726.8 156.906C684.5 173.806 643.2 193.106 601.9 212.406C589.8 218.106 579 219.906 565.8 216.706C524.1 206.606 481.9 200.606 438.9 205.906C397.6 210.906 358.8 224.806 320.8 241.106C307.4 246.806 294.1 252.806 281.1 259.206C276.6 261.406 272.4 262.206 268 261.906V397.606H1500V45.1061H1499.9Z" fill="#0B95D6"/>
<path opacity="0.4" d="M265 1161.8C269.3 1161.5 273.5 1162.2 278.1 1164.3C302.5 1175.1 326.9 1185.7 351.7 1195.5C386.7 1209.3 422.9 1218.7 460.6 1218.9C482.3 1219 504.1 1216.5 525.7 1213.9C540.1 1212.2 554.4 1209.1 568.5 1205.4C577.2 1203.1 584.4 1204.4 592.2 1208.1C627.7 1224.9 663.1 1242 699.1 1257.6C733.1 1272.3 768.5 1282.2 806 1283.3C838.8 1284.3 870.8 1279.6 902.5 1271.7C944.4 1261.3 986 1250 1028 1239.9C1069.3 1229.9 1069.4 1230.5 1107.4 1250.4C1156.4 1276 1205.2 1302 1254.6 1326.8C1294.1 1346.6 1335 1363.3 1378.1 1373.7C1412.4 1382 1446.8 1385.5 1481.7 1376.1C1486.2 1374.9 1492.2 1376.5 1497 1378.5V937H265V1161.8Z" fill="#0B95D6"/>
<path d="M0.145236 73.6833C7.11655 72.8616 8.71415 78.8875 11.7641 82.4483C39.9398 114.496 70.5846 144.352 104.86 170.511C165.424 216.801 233.975 246.657 310.659 259.531C341.159 264.735 372.094 268.159 403.029 265.009C437.741 261.449 471.29 253.094 503.968 241.59C556.689 223.238 606.069 198.175 656.756 175.989C691.758 160.65 727.195 146.406 765.392 138.874C799.959 131.889 834.815 131.478 869.091 138.463C917.164 148.186 964.656 160.375 1012.44 171.332C1050.49 180.097 1088.98 186.123 1128.34 186.26C1167.99 186.397 1205.75 178.18 1242.64 164.895C1293.76 146.543 1341.54 121.481 1390.05 97.9246C1438.56 74.3684 1487.21 50.9487 1536.45 29.036C1570.14 13.9709 1606.02 4.52147 1643.2 0.686741C1669.34 -1.9154 1694.32 3.01444 1717.99 13.1491C1739.49 22.3251 1760.26 33.1447 1781.17 43.5533C1802.09 53.9619 1823 64.3706 1846.53 69.027C1867.73 73.2726 1888.65 72.7249 1909.56 67.1098C1912.32 66.425 1915.08 65.6029 1919 64.6442C1919 494.134 1919 922.802 1919 1352.57C1909.27 1350.79 1899.68 1348.73 1889.95 1347.36C1864.25 1343.53 1839.7 1348.05 1816.61 1358.32C1795.26 1367.77 1774.78 1379.14 1753.29 1388.72C1733.68 1397.49 1714.07 1406.53 1693.45 1412.69C1661.5 1422.41 1629.25 1417.35 1597.88 1408.99C1577.55 1403.51 1557.36 1396.8 1537.61 1389.41C1486.2 1370.37 1438.12 1344.76 1389.62 1320.25C1343.58 1296.96 1297.54 1273.95 1249.03 1255.47C1200.23 1236.84 1149.69 1228.9 1097.26 1233.01C1059.64 1236.02 1022.9 1243.82 986.441 1252.73C948.099 1262.04 909.757 1270.94 871.124 1279.16C815.499 1290.94 761.471 1283.4 709.477 1263.14C679.122 1251.36 649.64 1237.66 619.576 1225.2C577.603 1207.67 536.065 1189.32 493.366 1173.43C448.924 1157 402.158 1149.19 354.085 1153.43C288.438 1159.19 226.132 1175.48 168.473 1206.57C107.474 1239.44 57.2229 1283.68 12.6355 1334.21C9.14985 1338.19 4.21184 1341.2 0 1344.76C0.145236 921.022 0.145236 497.421 0.145236 73.6833Z" fill="#56CCF2"/>
<path d="M879.5 664.6C872 661.9 869.1 655.8 867 649.2C864.6 641.8 859.9 638.2 852 637.9C849.3 637.8 846.6 637.5 844 637.9C834.9 639.3 827.1 637 819.9 631C814.3 626.4 806.9 627.7 800.3 633.3C795.4 637.5 790.7 642.1 785.5 646C775.8 653.3 763.9 655.3 752.4 657.7C744.5 659.3 737.3 662.1 730.2 666.2C721.4 671.4 712 675.7 702.6 679.7C692 684.2 681.5 683.6 673 674.9C666.7 668.4 659 666.1 650.5 665.9C633.7 665.6 616.9 665.5 600.1 665.2C597.7 665.2 595 664.7 592.9 663.6C578.4 655.8 564.2 647.6 549.6 639.9C544.8 637.4 546.7 632.8 545.5 629.4C544.4 626.2 545.1 621.7 546.4 618.3C552.1 604.3 558.3 590.5 564.7 576.8C565.8 574.5 568.5 572.4 570.9 571.4C575.2 569.6 575 567.2 573.5 563.6C571.1 557.6 568.9 551.5 567.2 545.3C565.1 537.9 567 531.1 572.2 525.4C575.6 521.7 579.5 518.5 582.7 514.8C592.1 504 601.5 493.2 610.5 482.1C617.9 472.9 626.2 465.9 638.6 465C642.5 464.7 644.7 460.4 642.8 456.3C641.1 452.6 638.8 449 636 446C621.3 430.2 614 411.2 611.4 390.3C610.1 379.7 615.9 372.8 626.5 371.3C629 370.9 631.5 370.7 634 370.7C643 370.8 650.2 367.1 657.2 361.8C665.5 355.5 674 349.2 683.3 344.6C694.6 338.9 707.1 338.3 719.5 341.1C742.5 346.4 765.5 351.9 788.3 358C794.2 359.6 800.5 362.5 804.9 366.6C813.7 374.8 823.8 378.5 835.2 378.6C859.3 378.8 883.4 378.6 907.6 378.2C916.9 378.1 926.4 376.5 934.9 381.5C938.9 383.8 942.5 386.8 946.1 389.7C950.7 393.3 952.4 392.9 953.9 387.3C954.6 384.7 955.5 382.1 955.5 379.5C955.4 365.4 964 356.6 974.4 349.6C980.7 345.4 988.3 342.3 995.7 340.5C1007.5 337.8 1019.6 336.7 1031.6 334.7C1033 334.5 1034.3 333.2 1035.4 332.2C1036 331.7 1036.1 330.7 1036.3 329.9C1040.1 312.6 1052.3 305.8 1068.6 304.9C1080.7 304.2 1092.9 304.4 1105 304C1112.5 303.8 1118.1 307.2 1122.6 312.9C1129.9 322.2 1138.3 330.9 1144 341.1C1149.7 351.2 1153 362.8 1156.5 374C1158.2 379.4 1156.5 384.9 1151.7 388.8C1151.4 389 1151.1 389.2 1151 389.5C1149.6 392.7 1147.1 396 1147.4 399C1147.6 400.6 1152.7 402.1 1155.8 402.7C1160.7 403.7 1165.7 403.8 1170.7 404.5C1181.2 406 1188.4 411.9 1191.6 422C1192.9 426.1 1194.1 430.5 1194 434.7C1193.9 446.8 1201.5 455 1207.7 463.9C1208.4 464.8 1209.3 465.6 1210.1 466.4C1215.3 472.2 1220.9 476.7 1229.6 473.7C1232 472.8 1234.9 473.4 1237.5 473C1243.6 472 1248.6 473.9 1253.3 477.6C1258.1 481.4 1262.4 481.5 1267.4 477.8C1271.4 474.8 1275 471.3 1279.1 468.5C1289 461.8 1299.6 465.6 1302.3 477.2C1303.8 483.9 1307.3 489.1 1311.7 493.9C1317 499.7 1324.3 499.3 1331.2 499.4C1335 499.4 1338.9 499 1342.6 498.4C1351.6 496.8 1358.9 499.9 1365.1 506.3C1369.3 510.6 1373.8 514.6 1378.1 518.7C1382.6 523 1388.1 524.5 1394.1 524.6C1398.9 524.7 1403.8 524.5 1408.6 524.3C1419.1 523.9 1426.8 529.6 1429.7 539.7C1431.6 546.3 1433.3 552.7 1428.6 558.7C1427.1 560.6 1425.4 562.5 1423.4 564C1419 567.4 1417.3 572.1 1415.9 577.2C1415 580.4 1416.1 582.1 1419 583.4C1430.2 588.5 1431.3 595.1 1422.9 604.5C1419.4 608.4 1416.4 612.8 1413.7 617.2C1411.7 620.4 1412.6 623.8 1414.6 627C1419.4 634.8 1422.4 643.2 1420.8 652.6C1418.8 665 1411.8 674.1 1402 675.8C1398.7 676.4 1395.1 675.7 1391.7 675.2C1385.6 674.4 1379.5 673.5 1373.5 672.2C1367.6 670.8 1364 673.6 1361.6 678.1C1356.4 687.9 1351.6 698 1346.7 708C1345.2 711.1 1344.3 714.7 1342.4 717.5C1340.7 720 1338.1 722.7 1335.4 723.4C1327 725.6 1320.4 730.6 1314.3 736.2C1305.3 744.5 1295 748.7 1282.5 747.7C1275.4 747.1 1268.2 747.6 1261 747.7C1251.2 747.9 1242.4 751.2 1234.4 756.7C1229.1 760.4 1223.7 764 1218.4 767.8C1212.1 772.3 1205 774.5 1197.3 774.6C1189.4 774.7 1184.6 779.1 1181.6 785.7C1176.5 796.9 1179 808.5 1187.8 817.4C1190.4 820 1192.5 823 1194.7 825.9C1201.1 834.1 1210 836.7 1220 833.7C1226.2 831.9 1232.5 830.4 1238.9 829.2C1248.9 827.4 1254.5 831.6 1256 841.5C1257.7 852.6 1252.4 863.8 1242 868.2C1238.4 869.7 1233.3 868.5 1229.1 867.6C1225.1 866.8 1221.4 864.5 1217.4 863.4C1208.7 861 1202.1 864.3 1196.3 870.8C1191.7 875.9 1186.3 880.5 1180.7 884.6C1171.3 891.4 1161.3 897.3 1151.8 904.1C1139.4 912.9 1126.1 916.3 1111.3 911.7C1096.1 907 1089 891.9 1095.1 877.5C1096.5 874.1 1097.6 870.6 1099.1 867.3C1100.5 864 1099.3 862.1 1096.3 861.1C1085.6 857.5 1075.1 853 1064.1 850.8C1052.1 848.4 1047.3 831.1 1054.3 824.4C1057.9 820.9 1062.3 818.1 1066.9 815.9C1074.5 812.3 1082.6 809.5 1090.3 806.1C1092.9 804.9 1095 802.7 1097.3 801C1097.2 800.5 1097.1 799.9 1096.9 799.4C1093.2 799.4 1089.4 799.3 1085.7 799.4C1074.5 799.8 1063.4 800.4 1052.2 800.6C1041.8 800.8 1034.2 795.8 1028.8 787C1027.2 784.3 1024.7 781.8 1022.1 780.1C1015.9 776 1014.6 769.9 1014.3 763.2C1014.2 762.1 1014.5 761 1014.7 759.1C1006.6 765 997.8 766.3 988.8 767C983.4 767.4 979.6 770.7 976.9 775.2C973.4 781 970.2 787.1 966.6 792.9C958.9 805.5 948.8 816 938.4 826.5C933.4 831.5 929.5 837.6 925.4 843.4C920.4 850.5 913.7 853.8 905.2 852.8C895.5 851.6 886.1 852.6 876.6 855.1C863.5 858.5 852.5 851.8 848 839C847 836 846.4 832.9 845.3 829.9C843.7 825.4 845.4 822 847.8 818.3C855.7 806.2 863.7 794.2 870.8 781.6C873.6 776.7 874.3 770.6 875.5 764.9C876.5 760.3 878.2 756.7 883 755.2C888.1 753.6 891.9 755.9 895 759.4C899.5 764.6 904.7 766.2 911.1 763.5C917.6 760.8 918.6 752.6 913.4 748.2C910.7 745.9 908.3 742.8 906.5 739.7C898.6 726 890.5 712.4 883.3 698.4C878 687.9 876.2 676.5 879.5 664.6Z" fill="white" fill-opacity="0.2"/>
<path d="M879.5 664.6C872 661.9 869.1 655.8 867 649.2C864.6 641.8 859.9 638.2 852 637.9C849.3 637.8 846.6 637.5 844 637.9C834.9 639.3 827.1 637 819.9 631C814.3 626.4 806.9 627.7 800.3 633.3C795.4 637.5 790.7 642.1 785.5 646C775.8 653.3 763.9 655.3 752.4 657.7C744.5 659.3 737.3 662.1 730.2 666.2C721.4 671.4 712 675.7 702.6 679.7C692 684.2 681.5 683.6 673 674.9C666.7 668.4 659 666.1 650.5 665.9C633.7 665.6 616.9 665.5 600.1 665.2C597.7 665.2 595 664.7 592.9 663.6C578.4 655.8 564.2 647.6 549.6 639.9C544.8 637.4 546.7 632.8 545.5 629.4C544.4 626.2 545.1 621.7 546.4 618.3C552.1 604.3 558.3 590.5 564.7 576.8C565.8 574.5 568.5 572.4 570.9 571.4C575.2 569.6 575 567.2 573.5 563.6C571.1 557.6 568.9 551.5 567.2 545.3C565.1 537.9 567 531.1 572.2 525.4C575.6 521.7 579.5 518.5 582.7 514.8C592.1 504 601.5 493.2 610.5 482.1C617.9 472.9 626.2 465.9 638.6 465C642.5 464.7 644.7 460.4 642.8 456.3C641.1 452.6 638.8 449 636 446C621.3 430.2 614 411.2 611.4 390.3C610.1 379.7 615.9 372.8 626.5 371.3C629 370.9 631.5 370.7 634 370.7C643 370.8 650.2 367.1 657.2 361.8C665.5 355.5 674 349.2 683.3 344.6C694.6 338.9 707.1 338.3 719.5 341.1C742.5 346.4 765.5 351.9 788.3 358C794.2 359.6 800.5 362.5 804.9 366.6C813.7 374.8 823.8 378.5 835.2 378.6C859.3 378.8 883.4 378.6 907.6 378.2C916.9 378.1 926.4 376.5 934.9 381.5C938.9 383.8 942.5 386.8 946.1 389.7C950.7 393.3 952.4 392.9 953.9 387.3C954.6 384.7 955.5 382.1 955.5 379.5C955.4 365.4 964 356.6 974.4 349.6C980.7 345.4 988.3 342.3 995.7 340.5C1007.5 337.8 1019.6 336.7 1031.6 334.7C1033 334.5 1034.3 333.2 1035.4 332.2C1036 331.7 1036.1 330.7 1036.3 329.9C1040.1 312.6 1052.3 305.8 1068.6 304.9C1080.7 304.2 1092.9 304.4 1105 304C1112.5 303.8 1118.1 307.2 1122.6 312.9C1129.9 322.2 1138.3 330.9 1144 341.1C1149.7 351.2 1153 362.8 1156.5 374C1158.2 379.4 1156.5 384.9 1151.7 388.8C1151.4 389 1151.1 389.2 1151 389.5C1149.6 392.7 1147.1 396 1147.4 399C1147.6 400.6 1152.7 402.1 1155.8 402.7C1160.7 403.7 1165.7 403.8 1170.7 404.5C1181.2 406 1188.4 411.9 1191.6 422C1192.9 426.1 1194.1 430.5 1194 434.7C1193.9 446.8 1201.5 455 1207.7 463.9C1208.4 464.8 1209.3 465.6 1210.1 466.4C1215.3 472.2 1220.9 476.7 1229.6 473.7C1232 472.8 1234.9 473.4 1237.5 473C1243.6 472 1248.6 473.9 1253.3 477.6C1258.1 481.4 1262.4 481.5 1267.4 477.8C1271.4 474.8 1275 471.3 1279.1 468.5C1289 461.8 1299.6 465.6 1302.3 477.2C1303.8 483.9 1307.3 489.1 1311.7 493.9C1317 499.7 1324.3 499.3 1331.2 499.4C1335 499.4 1338.9 499 1342.6 498.4C1351.6 496.8 1358.9 499.9 1365.1 506.3C1369.3 510.6 1373.8 514.6 1378.1 518.7C1382.6 523 1388.1 524.5 1394.1 524.6C1398.9 524.7 1403.8 524.5 1408.6 524.3C1419.1 523.9 1426.8 529.6 1429.7 539.7C1431.6 546.3 1433.3 552.7 1428.6 558.7C1427.1 560.6 1425.4 562.5 1423.4 564C1419 567.4 1417.3 572.1 1415.9 577.2C1415 580.4 1416.1 582.1 1419 583.4C1430.2 588.5 1431.3 595.1 1422.9 604.5C1419.4 608.4 1416.4 612.8 1413.7 617.2C1411.7 620.4 1412.6 623.8 1414.6 627C1419.4 634.8 1422.4 643.2 1420.8 652.6C1418.8 665 1411.8 674.1 1402 675.8C1398.7 676.4 1395.1 675.7 1391.7 675.2C1385.6 674.4 1379.5 673.5 1373.5 672.2C1367.6 670.8 1364 673.6 1361.6 678.1C1356.4 687.9 1351.6 698 1346.7 708C1345.2 711.1 1344.3 714.7 1342.4 717.5C1340.7 720 1338.1 722.7 1335.4 723.4C1327 725.6 1320.4 730.6 1314.3 736.2C1305.3 744.5 1295 748.7 1282.5 747.7C1275.4 747.1 1268.2 747.6 1261 747.7C1251.2 747.9 1242.4 751.2 1234.4 756.7C1229.1 760.4 1223.7 764 1218.4 767.8C1212.1 772.3 1205 774.5 1197.3 774.6C1189.4 774.7 1184.6 779.1 1181.6 785.7C1176.5 796.9 1179 808.5 1187.8 817.4C1190.4 820 1192.5 823 1194.7 825.9C1201.1 834.1 1210 836.7 1220 833.7C1226.2 831.9 1232.5 830.4 1238.9 829.2C1248.9 827.4 1254.5 831.6 1256 841.5C1257.7 852.6 1252.4 863.8 1242 868.2C1238.4 869.7 1233.3 868.5 1229.1 867.6C1225.1 866.8 1221.4 864.5 1217.4 863.4C1208.7 861 1202.1 864.3 1196.3 870.8C1191.7 875.9 1186.3 880.5 1180.7 884.6C1171.3 891.4 1161.3 897.3 1151.8 904.1C1139.4 912.9 1126.1 916.3 1111.3 911.7C1096.1 907 1089 891.9 1095.1 877.5C1096.5 874.1 1097.6 870.6 1099.1 867.3C1100.5 864 1099.3 862.1 1096.3 861.1C1085.6 857.5 1075.1 853 1064.1 850.8C1052.1 848.4 1047.3 831.1 1054.3 824.4C1057.9 820.9 1062.3 818.1 1066.9 815.9C1074.5 812.3 1082.6 809.5 1090.3 806.1C1092.9 804.9 1095 802.7 1097.3 801C1097.2 800.5 1097.1 799.9 1096.9 799.4C1093.2 799.4 1089.4 799.3 1085.7 799.4C1074.5 799.8 1063.4 800.4 1052.2 800.6C1041.8 800.8 1034.2 795.8 1028.8 787C1027.2 784.3 1024.7 781.8 1022.1 780.1C1015.9 776 1014.6 769.9 1014.3 763.2C1014.2 762.1 1014.5 761 1014.7 759.1C1006.6 765 997.8 766.3 988.8 767C983.4 767.4 979.6 770.7 976.9 775.2C973.4 781 970.2 787.1 966.6 792.9C958.9 805.5 948.8 816 938.4 826.5C933.4 831.5 929.5 837.6 925.4 843.4C920.4 850.5 913.7 853.8 905.2 852.8C895.5 851.6 886.1 852.6 876.6 855.1C863.5 858.5 852.5 851.8 848 839C847 836 846.4 832.9 845.3 829.9C843.7 825.4 845.4 822 847.8 818.3C855.7 806.2 863.7 794.2 870.8 781.6C873.6 776.7 874.3 770.6 875.5 764.9C876.5 760.3 878.2 756.7 883 755.2C888.1 753.6 891.9 755.9 895 759.4C899.5 764.6 904.7 766.2 911.1 763.5C917.6 760.8 918.6 752.6 913.4 748.2C910.7 745.9 908.3 742.8 906.5 739.7C898.6 726 890.5 712.4 883.3 698.4C878 687.9 876.2 676.5 879.5 664.6Z" fill="url(#paint0_linear)" fill-opacity="0.5"/>
<defs>
<linearGradient id="paint0_linear" x1="988.292" y1="303.992" x2="988.292" y2="913.75" gradientUnits="userSpaceOnUse">
<stop stop-color="white"/>
<stop offset="1" stop-color="white" stop-opacity="0"/>
</linearGradient>
</defs>
</svg>
