<svg width="122" height="122" viewBox="0 0 122 122" fill="none" xmlns="http://www.w3.org/2000/svg">
<path opacity="0.5" fill-rule="evenodd" clip-rule="evenodd" d="M61 122C94.6894 122 122 94.6894 122 61C122 27.3106 94.6894 0 61 0C27.3106 0 0 27.3106 0 61C0 94.6894 27.3106 122 61 122Z" fill="#AACEEE"/>
<g filter="url(#filter0_d)">
<path fill-rule="evenodd" clip-rule="evenodd" d="M61 102C83.6437 102 102 83.6437 102 61C102 38.3563 83.6437 20 61 20C38.3563 20 20 38.3563 20 61C20 83.6437 38.3563 102 61 102Z" fill="white"/>
</g>
<path d="M57.512 70.288C56.184 70.288 54.896 70.112 53.648 69.76C52.416 69.392 51.424 68.92 50.672 68.344L51.992 65.416C52.712 65.944 53.568 66.368 54.56 66.688C55.552 67.008 56.544 67.168 57.536 67.168C58.64 67.168 59.456 67.008 59.984 66.688C60.512 66.352 60.776 65.912 60.776 65.368C60.776 64.968 60.616 64.64 60.296 64.384C59.992 64.112 59.592 63.896 59.096 63.736C58.616 63.576 57.96 63.4 57.128 63.208C55.848 62.904 54.8 62.6 53.984 62.296C53.168 61.992 52.464 61.504 51.872 60.832C51.296 60.16 51.008 59.264 51.008 58.144C51.008 57.168 51.272 56.288 51.8 55.504C52.328 54.704 53.12 54.072 54.176 53.608C55.248 53.144 56.552 52.912 58.088 52.912C59.16 52.912 60.208 53.04 61.232 53.296C62.256 53.552 63.152 53.92 63.92 54.4L62.72 57.352C61.168 56.472 59.616 56.032 58.064 56.032C56.976 56.032 56.168 56.208 55.64 56.56C55.128 56.912 54.872 57.376 54.872 57.952C54.872 58.528 55.168 58.96 55.76 59.248C56.368 59.52 57.288 59.792 58.52 60.064C59.8 60.368 60.848 60.672 61.664 60.976C62.48 61.28 63.176 61.76 63.752 62.416C64.344 63.072 64.64 63.96 64.64 65.08C64.64 66.04 64.368 66.92 63.824 67.72C63.296 68.504 62.496 69.128 61.424 69.592C60.352 70.056 59.048 70.288 57.512 70.288ZM67.0327 57.088H70.7767V70H67.0327V57.088ZM68.9047 55.288C68.2167 55.288 67.6567 55.088 67.2247 54.688C66.7927 54.288 66.5767 53.792 66.5767 53.2C66.5767 52.608 66.7927 52.112 67.2247 51.712C67.6567 51.312 68.2167 51.112 68.9047 51.112C69.5927 51.112 70.1527 51.304 70.5847 51.688C71.0167 52.072 71.2327 52.552 71.2327 53.128C71.2327 53.752 71.0167 54.272 70.5847 54.688C70.1527 55.088 69.5927 55.288 68.9047 55.288Z" fill="#0B95D6"/>
<defs>
<filter id="filter0_d" x="16" y="20" width="90" height="90" filterUnits="userSpaceOnUse" color-interpolation-filters="sRGB">
<feFlood flood-opacity="0" result="BackgroundImageFix"/>
<feColorMatrix in="SourceAlpha" type="matrix" values="0 0 0 0 0 0 0 0 0 0 0 0 0 0 0 0 0 0 127 0"/>
<feOffset dy="4"/>
<feGaussianBlur stdDeviation="2"/>
<feColorMatrix type="matrix" values="0 0 0 0 0 0 0 0 0 0 0 0 0 0 0 0 0 0 0.25 0"/>
<feBlend mode="normal" in2="BackgroundImageFix" result="effect1_dropShadow"/>
<feBlend mode="normal" in="SourceGraphic" in2="effect1_dropShadow" result="shape"/>
</filter>
</defs>
</svg>
