<svg width="65" height="63" viewBox="0 0 65 63" fill="none" xmlns="http://www.w3.org/2000/svg">
<path d="M10.9536 0H54.5829C57.3204 0 59.8013 1.10229 61.6405 2.88291C63.437 4.66353 64.5491 7.12248 64.5491 9.8782V53.1218C64.5491 55.8351 63.437 58.2941 61.6405 60.1171C59.844 61.8977 57.3631 63 54.5829 63H10.9536C8.21608 63 5.7352 61.8977 3.89593 60.1171C2.09943 58.3365 0.98732 55.8775 0.98732 53.1218V9.8782C0.98732 7.16487 2.09943 4.70592 3.89593 2.88291C5.69243 1.10229 8.21608 0 10.9536 0Z" fill="#56CCF2"/>
<path d="M47.6535 17.1702L15.3593 29.3801C14.7177 29.6345 14.7177 30.652 15.3165 30.9064L23.5719 34.2556L26.6516 43.8795C26.8227 44.3882 27.507 44.5578 27.892 44.2186L32.6827 39.8519L41.6652 45.7449C42.1357 46.0416 42.7345 45.7873 42.8628 45.2361L48.7228 18.0181C48.8512 17.4245 48.2523 16.9158 47.6535 17.1702ZM28.2342 36.0787L27.7209 41.039L25.24 33.4077L42.8628 21.9609L28.2342 36.0787Z" fill="white"/>
</svg>
