<svg width="54" height="53" viewBox="0 0 54 53" fill="none" xmlns="http://www.w3.org/2000/svg">
<circle cx="26.9999" cy="26.0466" r="26.0471" fill="#0C5DC5"/>
<path fill-rule="evenodd" clip-rule="evenodd" d="M26.8692 20.9352L26.8119 20.0407C26.6399 17.7224 28.1488 15.6049 30.5364 14.7835C31.415 14.4914 32.9048 14.4549 33.8789 14.7105C34.2609 14.82 34.9868 15.185 35.5024 15.5137L36.4383 16.1161L37.4697 15.8058C38.0428 15.6414 38.8068 15.3676 39.1505 15.185C39.4752 15.0208 39.7617 14.9294 39.7617 14.9843C39.7617 15.2946 39.0551 16.3533 38.463 16.9374C37.6607 17.7589 37.89 17.832 39.5135 17.2843C40.4876 16.974 40.5066 16.974 40.3157 17.3208C40.201 17.5033 39.6089 18.1423 38.9786 18.7264C37.909 19.7304 37.8518 19.84 37.8518 20.6796C37.8518 21.9757 37.2023 24.6773 36.5529 26.1559C35.3496 28.9306 32.7711 31.7965 30.1926 33.2386C26.5636 35.2649 21.7312 35.776 17.6629 34.5895C16.3068 34.1878 13.9766 33.1656 13.9766 32.9831C13.9766 32.9283 14.6832 32.8553 15.5428 32.8371C17.3382 32.8005 19.1336 32.3259 20.6616 31.4862L21.6931 30.9021L20.5088 30.5188C18.828 29.9711 17.3191 28.7115 16.9371 27.525C16.8224 27.1417 16.8607 27.1234 17.9303 27.1234L19.0381 27.1052L18.1022 26.6853C16.9944 26.1559 15.9821 25.2614 15.4855 24.3487C15.1225 23.6916 14.6642 22.0304 14.7979 21.9027C14.836 21.848 15.2372 21.9574 15.6956 22.1034C17.0135 22.5598 17.1854 22.4503 16.4214 21.6836C14.9888 20.2963 14.5495 18.2335 15.2372 16.2803L15.5619 15.4041L16.8224 16.5906C19.4011 18.982 22.438 20.4058 25.9142 20.8257L26.8692 20.9352Z" fill="white"/>
</svg>
